<svg id="b607df33-12ae-4e31-b300-1ce5fbc12ba4" data-name="Layer 1" xmlns="http://www.w3.org/2000/svg" viewBox="0 0 500 500">
  <defs>
    <style>
      .a95bee24-8270-4760-be0a-f151910bc692 {
        fill: #bbf;
      }

      .ae38cb75-05e6-4347-a8ed-43e15f34ccf3 {
        fill: #ccccf0;
      }

      .a61d3382-a6f3-451d-8e80-e048bcee34dc {
        fill: #ccf;
      }
    </style>
  </defs>
  <g>
    <g>
      <path class="a95bee24-8270-4760-be0a-f151910bc692" d="M385.41,309.23,417,293.9q21.72-10.56,43.44-21.12c1.79-.88,3.28-2.11,3.7,1.42,3.38,28,6.92,55.93,10.39,83.89a8.19,8.19,0,0,1-.2,1.63c-5.83-3.19-11.63-6-17-9.44-3.47-2.22-4.61-1.37-6.21,2-21.73,46.3-55.33,81.09-101.43,103.45a197,197,0,0,1-84.95,19.84c-18.32.19-36.64,0-56,0,1.67-1.35,2.62-2.1,3.55-2.86a132.87,132.87,0,0,0,36.87-47.07c1.37-2.93,2.86-4,6.18-3.92,25.31.84,49.65-3.41,72.51-14.71,28.46-14.07,49.92-35.66,66.68-62.28,4.22-6.7,7.92-13.69,11.47-20.76.92-1.83.8-2.66-1.1-3.7C398.44,316.87,392.19,313.14,385.41,309.23Z"/>
      <g>
        <path class="ae38cb75-05e6-4347-a8ed-43e15f34ccf3" d="M378.57,24.2c3.86,1.77,8.12,1.6,12.17,2.5C434.62,36.52,468.5,74.33,473,119c3.72,36.88-9.11,67.29-36.53,91.84-.66.59-1.34,1.15-2,1.69a6.43,6.43,0,0,1-1.09.49c-7.31-31.8-27-50.6-60.08-55.91,22.37-4.78,36.21-22.54,34.27-43a39.72,39.72,0,0,0-79.07-.44C326.17,134.13,340,152,362.67,157.13c-32.87,5.34-52.6,23.93-60.1,56.24-2.48-2.16-4.85-4-7-6.1-30.39-30.13-41.07-66.22-28.59-107.11S308,34.55,350,25.77c2.18-.45,4.63.07,6.53-1.57Z"/>
        <path class="ae38cb75-05e6-4347-a8ed-43e15f34ccf3" d="M369.77,236.76c-14.58-.16-26.89-2.39-38.8-6.93-1.67-.63-2.59-1.19-2.72-3.25-1.32-21.05,13.19-38.94,34.57-42.44,18.95-3.1,38.13,9.76,43.42,29.11,3.8,13.89,2.41,16.39-11.4,19.87a115.62,115.62,0,0,1-12.46,2.55C377.59,236.32,372.77,237,369.77,236.76Z"/>
        <path class="ae38cb75-05e6-4347-a8ed-43e15f34ccf3" d="M381.21,117.5a13.22,13.22,0,1,1-13.28-13A13.37,13.37,0,0,1,381.21,117.5Z"/>
      </g>
    </g>
    <g>
      <path class="a95bee24-8270-4760-be0a-f151910bc692" d="M287.76,24.2c.94,1.93-1.1,2.06-1.85,2.67A135,135,0,0,0,248.36,75c-1.12,2.4-2.44,3.07-4.92,3-21.62-.67-42.71,2.11-62.93,10.16-33.26,13.23-58,36.41-77.22,66.09-4.38,6.77-8.14,13.89-11.93,21-1.31,2.46-.71,3.39,1.52,4.59,6.17,3.35,12.21,6.95,18.83,10.75-9.41,4.6-18.43,9-27.46,13.42-15.52,7.55-31.09,15-46.55,22.69-3.3,1.63-4.43,1.77-4.89-2.6C30.15,199,27.13,174,24.22,148.92c-.09-.79.24-1.83-1-2.15V140.6c6.33,2,11.51,6.13,17.25,9.24,2.42,1.32,3.54,1.87,5-1.38a211.21,211.21,0,0,1,56.61-74.77c28.36-23.89,60.71-39.44,97.27-46.18,6.23-1.15,12.66-1.15,18.7-3.31Z"/>
      <g>
        <path class="a61d3382-a6f3-451d-8e80-e048bcee34dc" d="M23.26,356.63c2-3.31,1.76-7.21,2.56-10.82,11.5-51.73,62.4-88,115.11-82,48.58,5.56,86.47,41.14,93.52,89.54,5.67,38.91-7.87,71.21-37.52,96.86a15.67,15.67,0,0,1-1.6,1c-7.37-31.85-26.92-50.64-60.37-56,11.59-2.13,20.2-7.09,26.58-15.56s9.18-18.09,7.75-28.57c-2.89-21.16-20.19-35.68-41.16-34.94-19.56.69-36.18,16.7-37.76,36.35-1.65,20.65,12.2,38.26,34.48,42.69-33,5.38-52.8,23.91-60.31,56.21a101.57,101.57,0,0,1-17.21-16.81,104.79,104.79,0,0,1-22.75-49.35c-.21-1.29.36-3-1.32-3.89Z"/>
        <path class="a61d3382-a6f3-451d-8e80-e048bcee34dc" d="M130,475.7c-12.91-.12-25.19-3.17-37.19-7.76-2-.77-2.58-1.71-2.64-3.77-.69-23.52,17-42.33,39.85-42.27s40.58,19.14,39.61,42.5c-.08,1.94-.66,2.8-2.44,3.49C155.25,472.53,143,475.53,130,475.7Z"/>
        <path class="a61d3382-a6f3-451d-8e80-e048bcee34dc" d="M143.15,355.79a13.21,13.21,0,1,1-13.06-13.26A13.36,13.36,0,0,1,143.15,355.79Z"/>
      </g>
    </g>
  </g>
</svg>
