<svg id="a2e30855-5e99-4537-87b6-9a2a531120af" data-name="Layer 1" xmlns="http://www.w3.org/2000/svg" viewBox="0 0 500 500">
  <defs>
    <style>
      .bb72f1fe-640a-4c74-9d65-93ad09859b8f {
        fill: #00002f;
      }

      .b59a1d59-f54a-4ed6-bdb6-e5b9642206fe {
        fill: #000040;
      }

      .fca2a4c3-6842-4a97-b5fc-11ac86c10ec4 {
        fill: #000020;
      }

      .ed998199-286e-4295-b5c0-a82c30fa3a4b {
        fill: #00004f;
      }
    </style>
  </defs>
  <g>
    <g>
      <path class="bb72f1fe-640a-4c74-9d65-93ad09859b8f" d="M386.22,309l31.54-15.33q21.72-10.56,43.44-21.13c1.79-.87,3.28-2.1,3.71,1.43,3.38,28,6.91,55.93,10.38,83.89a8.78,8.78,0,0,1-.19,1.63c-5.83-3.19-11.64-6-17-9.44-3.47-2.23-4.61-1.37-6.21,2-21.73,46.3-55.32,81.09-101.42,103.45a197.2,197.2,0,0,1-85,19.84c-18.31.19-36.63,0-56,0,1.67-1.34,2.61-2.09,3.55-2.86a132.86,132.86,0,0,0,36.87-47.06c1.37-2.93,2.86-4,6.17-3.92,25.32.84,49.66-3.41,72.52-14.71,28.46-14.07,49.92-35.67,66.67-62.28,4.22-6.7,7.92-13.69,11.48-20.77.92-1.82.8-2.65-1.1-3.69C399.25,316.67,393,313,386.22,309Z"/>
      <g>
        <path class="b59a1d59-f54a-4ed6-bdb6-e5b9642206fe" d="M379.38,24c3.86,1.77,8.12,1.59,12.16,2.5,43.88,9.81,77.76,47.62,82.28,92.32,3.73,36.88-9.1,67.29-36.53,91.84-.65.59-1.34,1.14-2,1.68a5.71,5.71,0,0,1-1.09.49c-7.32-31.79-27-50.6-60.08-55.9,22.37-4.78,36.21-22.54,34.26-43a39.72,39.72,0,0,0-79.07-.44c-2.31,20.47,11.5,38.38,34.2,43.47-32.87,5.34-52.61,23.93-60.11,56.24-2.48-2.16-4.84-4-7-6.1C266,177,255.34,140.86,267.83,100s40.93-65.62,83-74.39c2.17-.45,4.63.07,6.53-1.57Z"/>
        <path class="b59a1d59-f54a-4ed6-bdb6-e5b9642206fe" d="M370.58,236.57c-14.59-.16-26.9-2.4-38.81-6.93-1.67-.64-2.58-1.19-2.71-3.26-1.33-21,13.18-38.94,34.56-42.43,18.95-3.11,38.14,9.76,43.43,29.11,3.8,13.89,2.4,16.39-11.4,19.87a117.76,117.76,0,0,1-12.47,2.55C378.4,236.13,373.58,236.8,370.58,236.57Z"/>
        <path class="b59a1d59-f54a-4ed6-bdb6-e5b9642206fe" d="M382,117.31a13.21,13.21,0,1,1-13.27-13A13.35,13.35,0,0,1,382,117.31Z"/>
      </g>
    </g>
    <g>
      <path class="fca2a4c3-6842-4a97-b5fc-11ac86c10ec4" d="M288.57,24c.94,1.93-1.1,2.06-1.86,2.67a135,135,0,0,0-37.54,48.16c-1.13,2.41-2.45,3.08-4.92,3C222.62,77.17,201.54,80,181.32,88c-33.27,13.24-58,36.42-77.22,66.1-4.38,6.77-8.14,13.88-11.93,21-1.31,2.45-.71,3.38,1.51,4.59,6.18,3.34,12.22,6.94,18.84,10.75-9.41,4.6-18.43,9-27.47,13.42-15.52,7.55-31.08,15-46.55,22.69-3.3,1.63-4.42,1.77-4.89-2.61C31,198.84,27.94,173.79,25,148.73c-.09-.79.24-1.84-1-2.15V140.4c6.34,2,11.52,6.14,17.25,9.25,2.43,1.32,3.55,1.87,5-1.38a211.09,211.09,0,0,1,56.6-74.77c28.36-23.89,60.71-39.44,97.27-46.18,6.23-1.15,12.66-1.15,18.7-3.31Z"/>
      <g>
        <path class="ed998199-286e-4295-b5c0-a82c30fa3a4b" d="M24.06,356.44c2.05-3.32,1.77-7.21,2.57-10.82,11.5-51.73,62.4-88.05,115.11-82,48.57,5.57,86.47,41.14,93.52,89.55,5.66,38.91-7.88,71.21-37.53,96.85a13.83,13.83,0,0,1-1.59,1c-7.37-31.85-26.93-50.64-60.38-56,11.59-2.13,20.2-7.09,26.58-15.57s9.19-18.08,7.76-28.56c-2.89-21.16-20.2-35.68-41.17-34.94-19.55.69-36.18,16.7-37.75,36.35-1.66,20.64,12.2,38.25,34.48,42.68-33,5.39-52.8,23.92-60.32,56.22a102.7,102.7,0,0,1-17.21-16.81A104.77,104.77,0,0,1,25.39,385c-.22-1.28.36-3-1.33-3.88Z"/>
        <path class="ed998199-286e-4295-b5c0-a82c30fa3a4b" d="M130.85,475.51c-12.92-.12-25.2-3.17-37.19-7.76C91.64,467,91.08,466,91,464c-.7-23.53,17-42.33,39.84-42.28s40.58,19.15,39.62,42.51A3.27,3.27,0,0,1,168,467.7C156.06,472.33,143.76,475.34,130.85,475.51Z"/>
        <path class="ed998199-286e-4295-b5c0-a82c30fa3a4b" d="M144,355.6a13.22,13.22,0,1,1-13.06-13.26A13.37,13.37,0,0,1,144,355.6Z"/>
      </g>
    </g>
  </g>
</svg>
