<svg id="e7e1f543-de53-42af-b444-f487fbbd1925" data-name="—ÎÓÈ_1" xmlns="http://www.w3.org/2000/svg" viewBox="0 0 2600 1778.09">
  <defs>
    <style>
      .abe5a7b3-2c54-4c8a-acbc-320ac6aae49e {
        fill: #cfddf9;
      }

      .a8a47a85-d2e6-4d65-a561-af813f2b0217 {
        fill: #d4e8ff;
      }

      .f73b0331-b78f-4b36-9ea2-5f2f6271b02e {
        fill: #dce6ff;
      }

      .fffe26df-8408-4983-8b09-3d1103fd10e1 {
        fill: #eef7ff;
      }

      .fad04820-4344-4bf2-b7a8-eb65e7bfb6d5 {
        fill: #255084;
      }

      .aafe597b-ed80-4672-b2fe-7d0e0233fe88 {
        fill: #1d3f70;
      }

      .fd74c00a-4df9-4202-a547-da30032b4023 {
        fill: #b0c7f5;
      }

      .bf1f2620-5cb7-4367-bb60-9e92c7f20333 {
        fill: #ce3932;
      }

      .fb60c2ea-5a7a-42e0-b6c7-4b1ae4d22a0e {
        fill: #9358e0;
      }

      .bfc8260c-4a00-49b6-9277-c7568ca1ca6c {
        fill: #7640cc;
      }

      .e0a3714e-cd50-467b-9376-3771bcdac6b4 {
        fill: #eb5648;
      }

      .efe32062-139f-46b0-86e4-697313221334 {
        fill: #662948;
      }

      .a021f46e-7712-4b28-b4d2-9457102f8874 {
        fill: #3a72aa;
      }

      .a12e76f2-41d1-4581-864f-dd1b69306e7d {
        fill: #f99370;
      }

      .f789a1ab-0359-405a-9cca-0132bee9682d {
        fill: #23659b;
      }

      .f7443261-2a48-43b4-845d-30f755d0dd48 {
        fill: #e57d61;
      }

      .f38a372f-2954-40d8-96c0-5f53c8b8d027 {
        fill: #c16256;
      }

      .a4536bbf-d78c-41ac-9ecd-09917404fb9e {
        fill: #f4d4be;
      }

      .b15ba81d-83fe-4aa6-9fc4-246ac81b71fc {
        fill: #d1a68f;
      }

      .b71e489f-32ab-4ec6-a786-d3b6535b563e {
        fill: #d64343;
      }

      .e5b60a85-0791-4a88-a80b-08023c8cdf7e {
        fill: #fcb4b4;
      }

      .ef8626ee-4390-4238-b8ba-f3cee1323c5a {
        fill: #f49f9f;
      }

      .e86d8053-a1bb-4e78-97cf-6157781ea3f2 {
        fill: #ffe7d7;
      }

      .b2d1a31f-3f47-4903-93ed-2b28fc19b1e4 {
        fill: #f9c0c0;
      }

      .b3e8412d-80a0-4d3f-a67c-ba0f2bb27e0f {
        fill: #93abe5;
      }

      .e8092d89-58e9-40fa-a051-9f797208b6a5 {
        fill: #bbceea;
      }

      .e9a014bd-ee4e-47bc-b39e-c0845375324a {
        fill: #edd5c5;
      }

      .a7dbb7c0-2440-4f15-9e70-7a98b67a9a3c {
        fill: #fff;
      }

      .b609da17-dd10-4875-b2df-965b25f41ac1 {
        fill: #8a9edd;
      }

      .abc1990d-f8b3-45fb-9c31-5f38a027329b {
        fill: #ea876c;
      }

      .ac2337cd-8e2c-4250-909e-9b399bd37ed8 {
        fill: #8c4225;
      }

      .f1c2eb0c-f961-4385-aaa8-0f5cd52f89bc {
        fill: #103663;
      }

      .a377db70-22fb-44fb-8352-38ac8035676c {
        fill: #f9f8f3;
      }

      .b6529a94-8ec4-4342-a73c-cd20023e6cf9 {
        fill: #fdffde;
      }
    </style>
  </defs>
  <g>
    <g id="eb7cbc0e-b882-4942-b3a5-bdd706425beb" data-name="10">
      <path class="abe5a7b3-2c54-4c8a-acbc-320ac6aae49e" d="M65.76,1510.2s-15.51,51.42,56.35,65.23c98.29,18.89,654,69.57,513.86,107.28-79.12,21.29,61.6,49.15,447,59.8s1046.65-31.07,824.27-92.78,686.07-11.17,630.88-139.53Z"/>
      <path class="a8a47a85-d2e6-4d65-a561-af813f2b0217" d="M548.85,1515.83s-262.19-740.89-65.6-898.52c131.4-105.36,259.69,159.9,425.93,37,148-109.39,52.33-366.48,197.35-488.2C1315.07-8.88,1579.8,767,1787.78,650.31c327.15-183.61,527.15,106,300,866.87Z"/>
      <path class="f73b0331-b78f-4b36-9ea2-5f2f6271b02e" d="M335.11,1515.14c-4.59-14.07-9.13-28.65-13.49-43.34l10.75-3.2c4.33,14.59,8.84,29.08,13.4,43.05ZM2258.47,1497l-11.13-1.38c1.85-15,3.6-30.07,5.22-44.84l11.15,1.22C2262.09,1466.8,2260.33,1481.94,2258.47,1497ZM309.24,1428.15c-3.93-14.51-7.74-29.29-11.32-43.93l10.89-2.68c3.57,14.56,7.35,29.25,11.25,43.67Zm1959.06-21.24-11.17-1.06c1.42-15,2.74-30.16,3.91-45l11.18.89C2271,1376.63,2269.72,1391.81,2268.3,1406.91ZM287.67,1340c-3.24-14.78-6.32-29.73-9.16-44.43l11-2.13c2.82,14.61,5.89,29.46,9.11,44.16Zm1987.77-23.44-11.2-.7c1-15,1.79-30.19,2.48-45.06l11.2.52C2277.23,1286.27,2276.39,1301.49,2275.44,1316.58Zm-2005-65.64c-2.49-15-4.8-30.06-6.86-44.86l11.11-1.55c2,14.7,4.34,29.69,6.81,44.56Zm2009.17-24.88-11.22-.33c.44-15.09.74-30.27.9-45.1l11.22.12C2280.38,1195.65,2280.08,1210.9,2279.64,1226.06ZM258,1161c-1.67-15.11-3.13-30.31-4.33-45.18l11.18-.91c1.19,14.76,2.64,29.85,4.3,44.86Zm2011.39-25.52c-.14-15.11-.42-30.28-.86-45.09l11.22-.33c.43,14.89.72,30.14.85,45.32Zm-2018.66-65c-.74-15.2-1.24-30.47-1.47-45.37l11.22-.18c.23,14.78.72,29.92,1.45,45Zm2016-25.17c-.77-15.09-1.72-30.23-2.81-45l11.18-.83c1.11,14.85,2.06,30.08,2.83,45.25ZM260.57,980l-11.22-.23c.31-15.25.92-30.52,1.79-45.39l11.2.66C261.47,949.76,260.88,964.89,260.57,980ZM2260,955.48c-1.5-15.08-3.2-30.15-5.05-44.78l11.13-1.4c1.86,14.72,3.57,29.89,5.08,45.07ZM265.9,890.2l-11.16-1.13c1.52-15.18,3.38-30.36,5.52-45.12l11.1,1.62C269.24,860.16,267.4,875.17,265.9,890.2Zm1982.78-24.1c-2.33-15-4.89-29.92-7.61-44.38l11-2.08c2.74,14.57,5.33,29.62,7.68,44.73ZM922.13,864.51c-15.59-2.46-26.86-9.56-42.48-21.83l7.09-8.7c13.68,10.72,23.56,17.15,36.58,19.36ZM961,837.79l-10-5.11c5.14-10.07,9.68-24,13.49-41.52l11,2.39C971.42,812.24,966.69,826.71,961,837.79ZM846.73,810.47c-8.93-10-18.48-21.43-29.19-35.06l8.81-6.95c10.56,13.44,20,24.72,28.73,34.5Zm-567.88-9.21-11-2.14c2.9-15,6.19-29.94,9.77-44.43l10.89,2.69C285,771.69,281.72,786.45,278.85,801.26ZM2232,777.63c-3.32-14.84-6.9-29.54-10.65-43.71L2232.2,731c3.78,14.31,7.4,29.16,10.75,44.13ZM983.05,748.35l-11.13-1.43c1.73-13.41,3.27-28.09,4.72-44.88l11.18,1C986.35,720,984.79,734.79,983.05,748.35Zm-193-9.13c-9.12-12.33-18.58-25.36-26.73-36.61l9.08-6.59c8.14,11.23,17.57,24.23,26.66,36.52Zm821.19-.92a47.29,47.29,0,0,1-25.48-7.77l6-9.5c12.27,7.76,24.34,7.77,37.38,1.59l4.82,10.14A52.69,52.69,0,0,1,1611.26,738.3ZM300.43,714.1l-10.73-3.28c4.46-14.6,9.35-29.11,14.54-43.14l10.52,3.9C309.64,685.41,304.82,699.71,300.43,714.1Zm1370.21-10.71-8.24-7.62A379.08,379.08,0,0,0,1690.27,661l9.09,6.59A390.59,390.59,0,0,1,1670.64,703.39Zm-116.75-7.72a347.14,347.14,0,0,1-22-40.37l10.14-4.8a337,337,0,0,0,21.26,39.06Zm655.07-5c-4.52-14.56-9.34-28.88-14.33-42.58l10.54-3.85c5,13.87,9.93,28.37,14.5,43.09ZM736.76,666c-10.26-14-18.81-25.58-26.91-36.29l8.94-6.78c8.14,10.76,16.72,22.34,27,36.43Zm254.43-8.35L980,656.92c.85-13.15,1.71-27.94,2.64-45.21l11.2.6C992.91,629.62,992.05,644.45,991.19,657.65ZM331.57,630l-10.26-4.53q9.22-21,19.69-41.09l9.94,5.19Q340.65,609.37,331.57,630Zm1393.48,0-9.37-6.17c8-12.14,16.2-25,24.54-38l9.43,6.07C1741.3,604.94,1733.06,617.81,1725.05,630Zm-211.21-16.61c-5.08-12.76-10.33-26.68-16-42.56l10.55-3.81c5.68,15.76,10.89,29.56,15.92,42.21Zm664.29-7c-6-14.06-12.41-27.73-19-40.61l10-5.09c6.66,13.1,13.14,27,19.27,41.27Zm-1496-12.26c-10.17-12.65-19.65-23.9-29-34.42l8.39-7.45c9.43,10.65,19,22,29.31,34.83Zm314-27.11-11.2-.57c.75-15,1.5-30,2.3-45.29l11.2.59C997.68,537,996.93,552,996.18,567Zm778.07-13-9.36-6.2c9.37-14.2,17.75-26.48,25.62-37.55l9.14,6.52C1791.85,527.72,1783.54,539.9,1774.25,554ZM373.19,550.82l-9.46-6.05a348.83,348.83,0,0,1,27-37.1l8.57,7.24A336.45,336.45,0,0,0,373.19,550.82ZM1482.82,528c-5.15-15.1-10.19-30.2-14.45-43l10.64-3.56c4.25,12.77,9.29,27.85,14.42,42.91Zm-860.47-.79a387.5,387.5,0,0,0-33.5-29.35l6.84-8.9a398.76,398.76,0,0,1,34.49,30.2Zm1515-.48c-8-13.13-16.46-25.55-25-36.92l8.94-6.77c8.8,11.65,17.44,24.38,25.67,37.82ZM430.78,484.36,424,475.43c13.4-10.23,27.34-17.61,41.44-21.93l3.28,10.74C455.87,468.17,443.11,474.94,430.78,484.36Zm1395.92-3.44-8.71-7.07a440.26,440.26,0,0,1,30.47-34.19l7.94,7.94A429.58,429.58,0,0,0,1826.7,480.92ZM1001,476.51l-11.2-.67c1-16.33,1.94-31.15,3-45.33l11.19.81C1002.93,445.44,1002,460.23,1001,476.51Zm-449.24-2.35c-14-7-27.76-11.43-40.91-13.24l1.52-11.12c14.36,2,29.3,6.78,44.39,14.3ZM2083.49,456a263.88,263.88,0,0,0-33.23-29.06l6.61-9.08a276.46,276.46,0,0,1,34.65,30.29Zm-629.43-14c-5.58-16.71-10.18-30.34-14.47-42.88l10.61-3.64c4.3,12.57,8.91,26.22,14.5,43ZM1890,418.93l-6.43-9.2c13.79-9.67,27.72-16.82,41.41-21.27l3.46,10.68C1915.79,403.25,1902.85,409.9,1890,418.93Zm122.38-13.76a141.19,141.19,0,0,0-41.79-10.79l1-11.19a153.05,153.05,0,0,1,45.11,11.63ZM1007.52,386.22l-11.17-1c1.4-15.76,2.92-31,4.52-45.23l11.15,1.25C1010.43,355.42,1008.91,370.55,1007.52,386.22Zm417.15-29.81c-5.42-15.15-10.53-29-15.62-42.33l10.48-4c5.11,13.41,10.25,27.33,15.69,42.55Zm-406.94-59.94-11.1-1.61c2.27-15.72,4.76-30.85,7.41-45l11,2.08C1022.44,265.93,1020,280.9,1017.73,296.47Zm374.66-24.33c-6-14.51-12.1-28.4-18.06-41.28l10.18-4.72c6,13,12.15,27,18.24,41.69ZM1034.59,208l-10.89-2.72c3.92-15.69,8.23-30.46,12.82-43.91l10.62,3.63C1042.65,178.19,1038.42,192.66,1034.59,208Zm319.82-17.49c-7.38-13.91-14.91-27-22.4-38.82l9.48-6c7.64,12.08,15.32,25.39,22.83,39.56ZM1064,123.89l-10.06-5a224.08,224.08,0,0,1,24.28-39.27L1087,86.6A212.18,212.18,0,0,0,1064,123.89Zm242.32-8.58a273.73,273.73,0,0,0-30.06-32.39l7.52-8.33a285.58,285.58,0,0,1,31.31,33.71Zm-188-57.82-6-9.46a111.66,111.66,0,0,1,43.51-16.46l1.71,11.1A100.69,100.69,0,0,0,1118.3,57.49Zm122.55,0a135.39,135.39,0,0,0-40.46-14.33l2-11.06a146.54,146.54,0,0,1,43.81,15.51Z"/>
      <path class="fffe26df-8408-4983-8b09-3d1103fd10e1" d="M2408.86,1122.5c-99.33-17.25-90.34,241.92-231.93,241.92-129.45,0-198.73-579-340.78-461.27-571.1,473.46-126.75-332.21-510.76-348-173.64-7.12-289.35,209.75-332,593.72C931.52,1496,788.08,884.15,640.47,941,546.65,977.2,557.4,1364.42,428,1364.42c-141.59,0-132.26-217.93-231.59-200.69-107,18.57-132,356.47-132,356.47H2540.53S2515.8,1141.06,2408.86,1122.5Z"/>
      <path class="f73b0331-b78f-4b36-9ea2-5f2f6271b02e" d="M2247.13,1415.83c-85.63-6.11-71.66,49.13-193.72,49.13-111.6,0-108.53-123.8-183.21-150.12-137.53-48.45-250.91,196.79-304.23,73.71-101.27-326.59-396.63-490.37-532.89,0-53.32,123.08-178-96.54-304.23-73.71C651.16,1328.9,657.24,1465,545.64,1465c-122.06,0-108.09-55.24-193.72-49.13-92.19,6.59-119.73,104.37-119.73,104.37H2366.86S2339.32,1422.42,2247.13,1415.83Z"/>
    </g>
    <g id="a0d5a18b-e4b2-4582-9ab8-87015f72f1bb" data-name="9">
      <rect class="fad04820-4344-4bf2-b7a8-eb65e7bfb6d5" x="1108.15" y="1267.07" width="274.3" height="248.44"/>
      <rect class="aafe597b-ed80-4672-b2fe-7d0e0233fe88" x="1108.15" y="1121.26" width="274.3" height="282.17"/>
      <path class="aafe597b-ed80-4672-b2fe-7d0e0233fe88" d="M1665.59,1564.17H825a30.55,30.55,0,0,1-30.55-30.55h0A30.55,30.55,0,0,1,825,1503.07h840.58a30.55,30.55,0,0,1,30.55,30.55h0A30.55,30.55,0,0,1,1665.59,1564.17Z"/>
      <rect class="fad04820-4344-4bf2-b7a8-eb65e7bfb6d5" x="734.08" y="76.6" width="1025" height="1547.5" rx="62.01" transform="translate(2096.93 -396.23) rotate(90)"/>
      <rect class="fd74c00a-4df9-4202-a547-da30032b4023" x="532.15" y="397.38" width="1426.3" height="833.01"/>
      <circle class="aafe597b-ed80-4672-b2fe-7d0e0233fe88" cx="1245.3" cy="1304.54" r="32.43" transform="translate(-557.71 1262.65) rotate(-45)"/>
    </g>
    <g id="aea9395f-695e-43e1-b843-7a93ed693030" data-name="8">
      <path class="bf1f2620-5cb7-4367-bb60-9e92c7f20333" d="M1519,1260.81s11.47-76.49,55.39-131.27c0,0,2.47,24.67,6.42,38.49,0,0,20.72-14.31,38-19.24,0,0-17.27,64.64-70.07,119.42Z"/>
      <path class="bf1f2620-5cb7-4367-bb60-9e92c7f20333" d="M1538.37,1263.31s-9.75-94.39-34.43-159c0,0-9.87,25.66-13.32,36.52l-34-24.68s23.19,75,48.36,152Z"/>
      <path class="bf1f2620-5cb7-4367-bb60-9e92c7f20333" d="M1641.43,1230.75s31.74,8.22,33.59,33.76c1.42,19.6-51.08,13.11-51.08,13.11s40,10,61.07,1,24.43-16.73,16.66-33.76-22.58-45.89-42.19-39.23S1641.43,1230.75,1641.43,1230.75Z"/>
      <rect class="fb60c2ea-5a7a-42e0-b6c7-4b1ae4d22a0e" x="1339.8" y="1314.84" width="375.09" height="287.22"/>
      <rect class="bfc8260c-4a00-49b6-9277-c7568ca1ca6c" x="1339.8" y="1314.84" width="375.09" height="44.03"/>
      <rect class="fb60c2ea-5a7a-42e0-b6c7-4b1ae4d22a0e" x="1327.48" y="1290.68" width="399.73" height="48.86"/>
      <path class="e0a3714e-cd50-467b-9376-3771bcdac6b4" d="M1516.13,1260.81h22.41a29.88,29.88,0,0,1,29.88,29.88v0a0,0,0,0,1,0,0h-82.17a0,0,0,0,1,0,0v0A29.88,29.88,0,0,1,1516.13,1260.81Z"/>
      <path class="e0a3714e-cd50-467b-9376-3771bcdac6b4" d="M1625.05,1184.81c-62.18,11.35-97.71,76-97.71,76l35.53,29.87c96.61,0,130.29,0,145.16-19.51S1687.23,1173.46,1625.05,1184.81Zm66.24,83.76c-19.85,11.88-71.91,11.85-118.79,1.12,0,0,59-48.64,102.15-42.93C1694.27,1229.35,1704.26,1260.81,1691.29,1268.57Z"/>
      <path class="bf1f2620-5cb7-4367-bb60-9e92c7f20333" d="M1414.62,1230.75s-31.74,8.22-33.59,33.76c-1.42,19.6,51.08,13.11,51.08,13.11s-40,10-61.07,1-24.43-16.73-16.66-33.76,22.58-45.89,42.19-39.23S1414.62,1230.75,1414.62,1230.75Z"/>
      <path class="e0a3714e-cd50-467b-9376-3771bcdac6b4" d="M1348,1271.17c14.87,19.51,48.55,19.51,145.15,19.51l35.54-29.87s-35.54-64.65-97.72-76S1333.07,1251.56,1348,1271.17Zm33.38-44.41c43.19-5.71,102.15,42.93,102.15,42.93-46.88,10.73-98.94,10.76-118.8-1.12C1351.79,1260.81,1361.78,1229.35,1381.4,1226.76Z"/>
      <path class="bfc8260c-4a00-49b6-9277-c7568ca1ca6c" d="M1379.49,1450.39a37,37,0,0,1-37,37c-.9,0-1.79,0-2.68-.1v-73.81c.89-.06,1.78-.1,2.68-.1A37,37,0,0,1,1379.49,1450.39Z"/>
      <circle class="bfc8260c-4a00-49b6-9277-c7568ca1ca6c" cx="1437.46" cy="1402.7" r="37" transform="translate(-177.39 2596.91) rotate(-80.78)"/>
      <circle class="bfc8260c-4a00-49b6-9277-c7568ca1ca6c" cx="1437.46" cy="1518.35" r="37"/>
      <path class="bfc8260c-4a00-49b6-9277-c7568ca1ca6c" d="M1376.9,1591.7a36.9,36.9,0,0,1-1.47,10.36H1339.8v-47.37h.09A37,37,0,0,1,1376.9,1591.7Z"/>
      <path class="bfc8260c-4a00-49b6-9277-c7568ca1ca6c" d="M1543.08,1602.06h-74a37,37,0,1,1,74,0Z"/>
      <circle class="bfc8260c-4a00-49b6-9277-c7568ca1ca6c" cx="1554.51" cy="1469.45" r="37"/>
      <circle class="bfc8260c-4a00-49b6-9277-c7568ca1ca6c" cx="1637.68" cy="1404.55" r="37"/>
      <circle class="bfc8260c-4a00-49b6-9277-c7568ca1ca6c" cx="1628.52" cy="1555.35" r="37" transform="translate(-167.61 2913.71) rotate(-80.78)"/>
      <path class="bfc8260c-4a00-49b6-9277-c7568ca1ca6c" d="M1714.89,1449.82v72.81a37.72,37.72,0,0,1-6.68.6,37,37,0,1,1,6.68-73.41Z"/>
      <rect class="e0a3714e-cd50-467b-9376-3771bcdac6b4" x="1491.81" y="1284.5" width="71.06" height="317.56"/>
    </g>
    <g id="eb6574aa-439b-4ed0-a85c-6a84c8c03897" data-name="7">
      <path class="efe32062-139f-46b0-86e4-697313221334" d="M800.84,530.2S912.84,480,923.09,667c8.91,162.68,30,345.78-79.92,433.6-88.82,70.94-263.56,85-295.68-46.78-18.78-77.06,28.91-156.55,51.45-246.64C621,719,616.56,515.85,800.84,530.2Z"/>
      <path class="a021f46e-7712-4b28-b4d2-9457102f8874" d="M1074.05,1056c-34.88,11.82-75.12,17.21-121,14-30.83-2.2-64.19-8.3-100.21-18.94l-1.76-34L843.62,873.8l-1.86-36s5.53-.64,14.41-.83c19.2-.45,54,1.18,81.67,15.9,38.94,20.74,80.43,37.7,116.65,29a76.23,76.23,0,0,0,25.24-11.07c15.13-10.14,25.31-28.62,40.2-51.79,31-48.24,54.35-124.57,54.35-124.57l65.62-14.3C1279.63,810.73,1237.27,1000.65,1074.05,1056Z"/>
      <path class="a12e76f2-41d1-4581-864f-dd1b69306e7d" d="M846,801.57l-4.88,36.55c-13.06,42.47-69.53,9.2-78.88-7.64l8.53-52.91Z"/>
      <path class="f789a1ab-0359-405a-9cca-0132bee9682d" d="M891.75,882.65s44.31,55.13,69.72,93.25,27.8,65.62,27.8,65.62l-73.33,6.38Z"/>
      <path class="f7443261-2a48-43b4-845d-30f755d0dd48" d="M770.3,714.53c0,1.36.11,2.75.26,4.11,1.94-1,.52,47.65-3.66,83,31.44,19.07,69.94,17.54,76.89,17,6.07-44.71,6.82-86,3.29-112.42C838.78,661.22,768.77,668.9,770.3,714.53Z"/>
      <path class="a12e76f2-41d1-4581-864f-dd1b69306e7d" d="M719.43,687.51c6.12,34.78,18.46,73.91,46.34,96.57h0c11.26,9.08,24.91,14.77,39.32,17.39,80.93,22.13,176.12-75.19,111.2-142.34-23.42-21-28.86-58.76-47.59-79.73-27.35-38.48-86.1-35.61-117.39-3.46C723.08,605,713.84,644.64,719.43,687.51Z"/>
      <path class="f38a372f-2954-40d8-96c0-5f53c8b8d027" d="M852.22,664.08c3.1-6.1-6.56-10.84-9.48-4.64C839.63,665.54,849.29,670.28,852.22,664.08Z"/>
      <path class="f38a372f-2954-40d8-96c0-5f53c8b8d027" d="M896.49,656c3.11-6.1-6.56-10.84-9.48-4.64C883.91,657.44,893.57,662.18,896.49,656Z"/>
      <path class="f38a372f-2954-40d8-96c0-5f53c8b8d027" d="M883.43,701.89c-3.25.08-10.39,1.4-10.26-3a2,2,0,0,1,2.49-1.33c6.73,2.05,16.17-1.45,17.42-4.5.44-1.07-1-2.1-2.31-2.78-11.28-5.47-26.24-36.75-15.9-29.57.07.21,7.71,20.78,17.75,26C904,694.32,892.34,700.49,883.43,701.89Z"/>
      <path class="f7443261-2a48-43b4-845d-30f755d0dd48" d="M719.43,687.51c6.12,34.78,18.46,73.91,46.34,96.57h0c-15.53-18.73-25.67-61-25.67-61l7-19C867.62,663.32,855.4,565.51,855.4,565.51,777.33,511.22,702.37,607.89,719.43,687.51Z"/>
      <path class="efe32062-139f-46b0-86e4-697313221334" d="M842.85,557.78S854,653.51,746.17,694.43L707,673.53C668,599.65,735.1,489.44,842.85,557.78Z"/>
      <path class="efe32062-139f-46b0-86e4-697313221334" d="M715.94,530.08C742.38,621,848.3,591.94,824.6,500.26,798.17,409.33,692.24,438.4,715.94,530.08Z"/>
      <path class="a12e76f2-41d1-4581-864f-dd1b69306e7d" d="M697.54,705.44c8.44,39.32,58,28.11,48.63-11C737.72,655.11,688.21,666.32,697.54,705.44Z"/>
      <path class="f38a372f-2954-40d8-96c0-5f53c8b8d027" d="M710.47,713.43c-8.33-8.49-5.34-25.85-1.09-28.89,7.81-6.38,22-3.19,21,.81-2.46,4-10.58-4.32-18.21,2.09C704.31,693.38,715.13,710.05,710.47,713.43Z"/>
      <path class="f38a372f-2954-40d8-96c0-5f53c8b8d027" d="M729.08,710.37c-4.09-.16-5.8-15-21.52-16.35a2,2,0,0,1-1.89-2.1C716.57,683.47,736.55,711.09,729.08,710.37Z"/>
      <path class="a4536bbf-d78c-41ac-9ecd-09917404fb9e" d="M719.63,723.4c0,5.82,9.14,5.69,9-.13C728.61,717.45,719.47,717.59,719.63,723.4Z"/>
      <path class="a021f46e-7712-4b28-b4d2-9457102f8874" d="M956.76,1044.34a185.08,185.08,0,0,1-3.72,25.59c-2.48,9.18-5.13,18.08-7.83,26.78-2.62,8.41-5.3,16.62-7.94,24.72q-1.6,4.92-3.18,9.77-1.37,4.21-2.69,8.4v0c-3.23,10.14-6.28,20.17-8.94,30.2-1.75,6.54-3.33,13.1-4.68,19.69a255.63,255.63,0,0,0-5.09,42.62h-381v-42c7.09-17.91,14.39-36.59,19.65-53.21,4-12.82,8.43-27,13.42-42,11.88-35.83,26.61-76.54,43.86-115.5C643.67,900.1,689.21,828,742.32,819a66.47,66.47,0,0,1,22.25,0c17.17,19.93,58.77,52.34,75.33,22.64a38.32,38.32,0,0,0,1.86-3.85,64.5,64.5,0,0,1,17,8.59c13.5,9.36,25.15,23.71,35.44,39.35l0,0c11.6,17.66,21.48,36.94,30.31,52.59,3.46,6.14,6.76,11.72,10,16.41a141.31,141.31,0,0,1,19.28,46c.18.75.34,1.52.49,2.28s.31,1.5.44,2.25a144.11,144.11,0,0,1,2.29,19.2A157.14,157.14,0,0,1,956.76,1044.34Z"/>
      <path class="b15ba81d-83fe-4aa6-9fc4-246ac81b71fc" d="M937.85,1121.33l0,0c-177.52,21-249-99.82-249-99.82L949,1052.15C951.21,1077.45,945.41,1099.15,937.85,1121.33Z"/>
      <path class="f38a372f-2954-40d8-96c0-5f53c8b8d027" d="M878.49,714.16a18,18,0,0,0-16.85-8.69c-3.35.4-5.9,2-7.19,4.49s-1.11,5.5.5,8.46a17,17,0,0,0,7.2,6.74,17.55,17.55,0,0,0,8,2.05,13,13,0,0,0,1.66-.1c3.34-.4,5.89-2,7.18-4.49S880.09,717.12,878.49,714.16Zm-2.92,6.69c-.68,1.34-2.18,2.2-4.22,2.45a14.23,14.23,0,0,1-13-6.71,4.52,4.52,0,0,1,3.78-7.31,9.42,9.42,0,0,1,1.2-.08,13.86,13.86,0,0,1,6.24,1.63,13.19,13.19,0,0,1,5.58,5.16A5.17,5.17,0,0,1,875.57,720.85Z"/>
      <path class="f38a372f-2954-40d8-96c0-5f53c8b8d027" d="M831,656.74a1.93,1.93,0,0,1-1.77-2.65,32.89,32.89,0,0,1,23.21-18.35,1.92,1.92,0,1,1,.77,3.76,29.4,29.4,0,0,0-20.43,16A1.92,1.92,0,0,1,831,656.74Z"/>
      <path class="f38a372f-2954-40d8-96c0-5f53c8b8d027" d="M897.32,640.85a1.94,1.94,0,0,1-1.14-.37c-9.56-7-21.69-4.28-21.81-4.26a1.92,1.92,0,0,1-.88-3.74c.57-.13,14-3.16,25,4.9a1.92,1.92,0,0,1-1.14,3.47Z"/>
      <path class="a12e76f2-41d1-4581-864f-dd1b69306e7d" d="M794.18,932c3.55,286,237.64,62.43,276.29-80.32,4.66-14.95,20.34-21.73,35.62-18.23,47.34,10.85-14.86,160.86-31.34,192.4-51,106.24-180.63,202.82-295.48,126-74.78-51.91-91.45-150.66-81.84-234.71C705.44,842,794.18,932,794.18,932Z"/>
      <path class="e0a3714e-cd50-467b-9376-3771bcdac6b4" d="M1390.28,680.31a20.27,20.27,0,0,1-22.52,26.36h0L1246.62,686.9l-126.25,41.6,26.79,81.28L1119.94,819l-26.86-81.5-39.68,13.09-15.76,5.19L1004,653.58l16.15-5.33,192.84-63.54L1298.33,497l.26-.26a20.27,20.27,0,0,1,33.78,7.8Z"/>
      <path class="a12e76f2-41d1-4581-864f-dd1b69306e7d" d="M1150.91,815.15c1.3-.24,1.59-.33,2.25-.49s1.1-.31,1.62-.48c1-.33,2-.71,3-1.13a28.08,28.08,0,0,0,5.57-3.24,22.86,22.86,0,0,0,4.62-4.54,21.5,21.5,0,0,0,3-5.38c2.16-5.45-1.31-11.33-7.76-13.15a14.05,14.05,0,0,0-12.57,2.47l-4.86,4c-.1.08.1-.11.06-.08a.9.9,0,0,1-.22.13l-.21.08h0l.55-.1c-7.16,1.17-11.85,7-10.48,13S1143.74,816.32,1150.91,815.15Z"/>
      <path class="a12e76f2-41d1-4581-864f-dd1b69306e7d" d="M1146.77,797.8c1-.44,1.28-.59,1.84-.86l1.37-.75c.89-.5,1.74-1,2.57-1.59a33.06,33.06,0,0,0,4.78-4,24.3,24.3,0,0,0,4-5.34,19.88,19.88,0,0,0,2.26-6.67c.85-6.12-4.34-11.56-11.58-12.15s-13.79,3.89-14.63,10c0-.29.21-.37-.22.08a6.69,6.69,0,0,1-.94.77l-.66.41-.3.16s-.32.15.09,0c-6.57,2.77-9.35,9.46-6.21,15S1140.2,800.56,1146.77,797.8Z"/>
      <path class="a12e76f2-41d1-4581-864f-dd1b69306e7d" d="M1145.71,776.12l8.67-8.9c4.76-4.89,4.17-11.92-1.32-15.7s-13.79-2.89-18.55,2l-8.67,8.9c-4.75,4.89-4.17,11.91,1.32,15.7S1141,781,1145.71,776.12Z"/>
      <path class="a12e76f2-41d1-4581-864f-dd1b69306e7d" d="M1136.28,758.81l8.67-8.9c4.76-4.89,4.17-11.92-1.32-15.7s-13.79-2.89-18.55,2l-8.66,8.9c-4.76,4.89-4.17,11.92,1.31,15.7S1131.52,763.7,1136.28,758.81Z"/>
      <path class="a12e76f2-41d1-4581-864f-dd1b69306e7d" d="M1123.3,873.91s32.3-44.5,40.06-64.1c0,0-20.9-84.78-35.41-75.83s-68.15,53.12-57.78,119.59C1070.17,853.57,1103.49,842.56,1123.3,873.91Z"/>
      <path class="b71e489f-32ab-4ec6-a786-d3b6535b563e" d="M1367.76,706.67h0L1298.33,497l.26-.26a20.27,20.27,0,0,1,33.78,7.8l57.91,175.73A20.27,20.27,0,0,1,1367.76,706.67Z"/>
      <polygon class="b71e489f-32ab-4ec6-a786-d3b6535b563e" points="1053.4 750.58 1037.64 755.76 1003.95 653.58 1020.1 648.25 1053.4 750.58"/>
      <path class="b71e489f-32ab-4ec6-a786-d3b6535b563e" d="M1068.85,689.23a9.1,9.1,0,1,1-9.1-9.1A9.09,9.09,0,0,1,1068.85,689.23Z"/>
      <path class="b71e489f-32ab-4ec6-a786-d3b6535b563e" d="M1095.57,680.13a9.1,9.1,0,1,1-9.09-9.09A9.1,9.1,0,0,1,1095.57,680.13Z"/>
      <path class="b71e489f-32ab-4ec6-a786-d3b6535b563e" d="M1122.3,671a9.1,9.1,0,1,1-9.1-9.1A9.1,9.1,0,0,1,1122.3,671Z"/>
      <path class="f789a1ab-0359-405a-9cca-0132bee9682d" d="M934.36,1131.28c-7.82,22-16.49,45.16-20.11,73.23-239.3,36.68-300-120-315.31-201.83q7.34-18.06,14.41-33.84l195,129.89S878.81,1112.62,934.36,1131.28Z"/>
      <path class="a021f46e-7712-4b28-b4d2-9457102f8874" d="M1123.48,878.42c-10.52,105.33-57.9,259.67-179.42,302.81-149.42,56.39-327.66-40.94-335.48-201.54C597.75,850.35,698.69,817.88,742.6,819c12.93,5.66,22.6,19.59,32.89,38.15,32.78,54.66,28.56,114.79,75.57,159.84,86.33,59.36,181-103.27,215.9-155.11C1080.5,878.27,1122.73,881.15,1123.48,878.42Z"/>
      <path class="f789a1ab-0359-405a-9cca-0132bee9682d" d="M887.42,1032.12c-17.48,0-32-7.59-44.36-22.81-18.26-22.56-35.88-66.77-36.62-68.65a2.07,2.07,0,1,1,3.86-1.52c.18.45,18.12,45.49,36,67.56,14.85,18.35,38.87,35.36,93.18,3.79,50.63-29.43,113.59-127.06,114.22-128a2.07,2.07,0,0,1,3.49,2.23c-2.59,4.05-64.12,99.46-115.63,129.4C920.87,1026.1,903,1032.12,887.42,1032.12Z"/>
      <path class="f789a1ab-0359-405a-9cca-0132bee9682d" d="M1076.57,1053.81a2,2,0,0,1-1-.25,2.08,2.08,0,0,1-.86-2.8c38.83-72.94,41.6-148.29,41.62-149a2,2,0,0,1,2.14-2,2.08,2.08,0,0,1,2,2.14c0,.76-2.8,77-42.11,150.86A2.07,2.07,0,0,1,1076.57,1053.81Z"/>
      <path class="f789a1ab-0359-405a-9cca-0132bee9682d" d="M1123.48,878.42c-.67,7.05-1.68,15.66-3.13,25.42,0,.33-.11.67-.15,1a81.74,81.74,0,0,1-67.86-19.66c.37-.56.7-1.08,1.06-1.62C1062,870.4,1067,861.88,1067,861.88,1092.6,884.48,1123.48,878.42,1123.48,878.42Z"/>
      <path class="f789a1ab-0359-405a-9cca-0132bee9682d" d="M843.62,873.8A56.37,56.37,0,0,1,827.87,878c-19.18,2.5-37.6-8-52.38-20.82-16.67-14.43-28.7-31.79-32-36.76L742.6,819s8.87-3.3,22,0c17.86,20.71,62.12,54.92,77.2,18.78,0,0,5.53-.64,14.41-.83a37.72,37.72,0,0,1,2.51,9C860,854.45,858.78,866.93,843.62,873.8Z"/>
    </g>
    <g id="a998912a-f277-44df-8cbf-a8047994c22c" data-name="6">
      <path class="e5b60a85-0791-4a88-a80b-08023c8cdf7e" d="M1113.48,1610.08c-9.55-.06-554.58-4.45-541.5-4.33-37.47-.39-37-72.37.58-72.15,6.9.11,518.83,4.12,541.5,4.34l0,5Z"/>
      <path class="e0a3714e-cd50-467b-9376-3771bcdac6b4" d="M599.51,1606c-4.53,0-22.65-.23-27.53-.22-26.92.78-37.45-44.77-18.79-63h0c9.49-13.3,33.33-8.3,46.9-9Z"/>
      <path class="ef8626ee-4390-4238-b8ba-f3cee1323c5a" d="M616.05,1560.41c2-5,498.45-1,500.4,4C1114.42,1569.36,618,1565.36,616.05,1560.41Z"/>
      <path class="e86d8053-a1bb-4e78-97cf-6157781ea3f2" d="M1113.48,1610.08c.09-12.14.47-59.16.58-72.14l94.15,36.82Z"/>
      <path class="e0a3714e-cd50-467b-9376-3771bcdac6b4" d="M1169.8,1589.09a44.85,44.85,0,0,1,.24-29.26l38.17,14.93Z"/>
      <polygon class="b2d1a31f-3f47-4903-93ed-2b28fc19b1e4" points="1114.02 1542.96 618.76 1540.75 618.79 1533.97 1114.06 1537.94 1114.02 1542.96"/>
      <path class="bf1f2620-5cb7-4367-bb60-9e92c7f20333" d="M592.58,1605.91l-20.6-.16c-26.93.78-37.44-44.77-18.79-63h0s-1.16,47,39.52,47.13Z"/>
      <path class="b3e8412d-80a0-4d3f-a67c-ba0f2bb27e0f" d="M599,1613.18a6.41,6.41,0,0,1-6.37-6.47l.13-17,.46-56.71c-.06-8.35,13.05-8.2,12.84.1l-.59,73.73A6.42,6.42,0,0,1,599,1613.18Z"/>
      <path class="b3e8412d-80a0-4d3f-a67c-ba0f2bb27e0f" d="M611.79,1613.28a6.43,6.43,0,0,1-6.37-6.48l.14-17,.45-56.71c0-8.33,13-8.21,12.85.1l-.59,73.74A6.44,6.44,0,0,1,611.79,1613.28Z"/>
      <path class="e8092d89-58e9-40fa-a051-9f797208b6a5" d="M599,1595.28a6.43,6.43,0,0,1-6.32-5.6l.46-56.71a6.42,6.42,0,0,1,12.78-.79l-.45,56.72A6.42,6.42,0,0,1,599,1595.28Z"/>
      <path class="e8092d89-58e9-40fa-a051-9f797208b6a5" d="M611.87,1595.37a6.4,6.4,0,0,1-6.31-5.59l.45-56.71a6.42,6.42,0,0,1,12.79-.77l-.45,56.71A6.42,6.42,0,0,1,611.87,1595.37Z"/>
      <polygon class="ef8626ee-4390-4238-b8ba-f3cee1323c5a" points="1113.48 1610.08 618.45 1606.12 618.31 1589.63 1113.56 1591.84 1113.48 1610.08"/>
      <path class="e9a014bd-ee4e-47bc-b39e-c0845375324a" d="M1113.48,1610.08l.08-18.24,94.65-17.08Z"/>
      <path class="bf1f2620-5cb7-4367-bb60-9e92c7f20333" d="M1169.8,1589.09A43.9,43.9,0,0,1,1168,1582l40.18-7.25Z"/>
    </g>
    <g id="ed2181df-40dd-40e7-9aa7-0fb70244d3db" data-name="5">
      <path class="a7dbb7c0-2440-4f15-9e70-7a98b67a9a3c" d="M1377.92,514.91,1362,502.79l21.2-27.85,15.91,12.12Zm42.41-55.7-15.92-12.11,21.21-27.85,15.91,12.12Zm42.4-55.69-15.91-12.12,21.2-27.84,15.91,12.11Zm42.41-55.69-15.91-12.12,21.2-27.85L1526.34,320Zm42.4-55.7L1531.63,280l20.08-26.37,15.91,12.12Z"/>
      <path class="a7dbb7c0-2440-4f15-9e70-7a98b67a9a3c" d="M1989.45,723.92l-34.51-5.81,3.31-19.72,34.52,5.81Zm-69-11.61-34.51-5.81,3.31-19.72,34.52,5.81Zm-69-11.61-34.51-5.81,3.31-19.72,34.52,5.81Zm-69-11.61-34.51-5.81,3.31-19.72,34.52,5.81Zm-69-11.61-34.51-5.81,3.31-19.72,34.52,5.81Zm-69-11.61-34.51-5.81,3.31-19.72,34.52,5.81Zm-69-11.61-34.52-5.81,3.32-19.72,34.52,5.81Zm-69-11.61-34.52-5.81,3.32-19.72,34.52,5.81Zm-69-11.61-34.52-5.81,3.32-19.72,34.52,5.81Z"/>
      <path class="a7dbb7c0-2440-4f15-9e70-7a98b67a9a3c" d="M1605.67,833.17l-27.77-21.31L1590.07,796l27.77,21.31Zm-55.55-42.61-27.77-21.3,12.18-15.87,27.77,21.3ZM1494.58,748l-27.77-21.3L1479,710.79l27.77,21.3ZM1439,705.36l-27.77-21.31,12.17-15.87,27.77,21.31Z"/>
      <path class="a7dbb7c0-2440-4f15-9e70-7a98b67a9a3c" d="M1393.88,568.24l-5.1-19.34,33.84-8.92,5.1,19.34Zm67.68-17.84-5.1-19.34,33.85-8.92,5.1,19.33Zm67.69-17.85-5.1-19.34,33.84-8.92,5.1,19.34Zm67.69-17.84-5.1-19.34,33.84-8.93,5.1,19.34Zm67.68-17.85-5.1-19.34,33.85-8.92,5.1,19.34ZM1732.31,479l-5.1-19.34,33.84-8.92,5.1,19.34ZM1800,461.17l-5.1-19.34,33.84-8.93,5.1,19.34Z"/>
    </g>
    <g id="b2c9746e-b6b9-48c5-852e-3b0e2f37bab1" data-name="4">
      <path class="b609da17-dd10-4875-b2df-965b25f41ac1" d="M1846.15,364c-.06,99.79,105.2,171.72,197.21,138.32a149.07,149.07,0,0,0,100.82-143.83C2137.22,162.69,1845.85,168,1846.15,364Z"/>
      <rect class="abc1990d-f8b3-45fb-9c31-5f38a027329b" x="1971.72" y="408.85" width="41.61" height="49.13" transform="translate(-7.67 36.92) rotate(-1.06)"/>
      <path class="e0a3714e-cd50-467b-9376-3771bcdac6b4" d="M2025.46,449.05c4,13.18,12.14,37.17,17.89,53.24a149,149,0,0,0,51.64-30.4C2073.25,458.4,2049.61,450.12,2025.46,449.05Z"/>
      <path class="e0a3714e-cd50-467b-9376-3771bcdac6b4" d="M1898.3,474.49a148.83,148.83,0,0,0,48,27.57c5-15.74,11.85-38.8,15.27-51.83C1939.13,453.54,1917.81,462.07,1898.3,474.49Z"/>
      <path class="e0a3714e-cd50-467b-9376-3771bcdac6b4" d="M2043.35,502.29c3.72-1.26,7.37-2.68,10.93-4.22-9.2-16.52-18.53-32.33-28.82-49,0,0,1.22-11.76-12.17-17.78a98.53,98.53,0,0,1-41.6.63s-13,5.88-10.19,18.12c-8.86,16.37-17.06,32.05-25.1,48.2C1969,512.61,2009.56,514.15,2043.35,502.29Z"/>
      <path class="a12e76f2-41d1-4581-864f-dd1b69306e7d" d="M1922.63,347.87c5.48,23.23,33.85,16.69,28.59-6.6C1945.74,318,1917.37,324.59,1922.63,347.87Z"/>
      <path class="a12e76f2-41d1-4581-864f-dd1b69306e7d" d="M2061.81,345.3c-4.62,23.42-33.21,17.92-28.82-5.54C2037.61,316.34,2066.2,321.83,2061.81,345.3Z"/>
      <path class="a12e76f2-41d1-4581-864f-dd1b69306e7d" d="M1934.14,372.87c4.69,78.05,129.75,64.28,115.94-13.93-2-15.53-7.76-25.77-10.83-50.52-7.11-57.28-88.73-58.83-95,1.33C1941.86,333.48,1933.55,351.1,1934.14,372.87Z"/>
      <path class="f38a372f-2954-40d8-96c0-5f53c8b8d027" d="M1976.33,336.92c1.81-3.6-3.89-6.37-5.59-2.71S1974.62,340.57,1976.33,336.92Z"/>
      <path class="f38a372f-2954-40d8-96c0-5f53c8b8d027" d="M2013.57,336.3c1.82-3.6-3.88-6.37-5.59-2.71S2011.87,340,2013.57,336.3Z"/>
      <path class="f38a372f-2954-40d8-96c0-5f53c8b8d027" d="M1995.21,361c5.69-.18,14.46-4.17,7.18-9.09-5.94-3.08-10.47-15.16-10.52-15.28a1.17,1.17,0,0,0-2.2.81c.2.53,4.9,13.07,11.63,16.55,4.66,2.74-4.89,5.65-8.87,4.33a1.16,1.16,0,0,0-1.46.78C1990.67,361.22,1993.74,360.87,1995.21,361Z"/>
      <path class="f7443261-2a48-43b4-845d-30f755d0dd48" d="M2029.83,305c-27.94,13.6-61.06-28.41-77.95-8.55l-2.34-11.9,32.58-16,52.77,17.28Z"/>
      <path class="ac2337cd-8e2c-4250-909e-9b399bd37ed8" d="M1941.18,327.89s9.48-19,10.7-31.48,17.87-14.94,31.77-5.46,31.1,13.59,49,6.62,29-34.47,10.41-50.22c-18.42-15.6-37-2.83-53.23,3.64C1968.91,259.35,1915.75,244.25,1941.18,327.89Z"/>
      <path class="ac2337cd-8e2c-4250-909e-9b399bd37ed8" d="M2041.94,325.14s-15-16.4-16.31-38.51l15.64-6.49S2048.08,301.55,2041.94,325.14Z"/>
      <path class="f38a372f-2954-40d8-96c0-5f53c8b8d027" d="M1928.68,352.41a1.15,1.15,0,0,0,1.07-1.5c-4.23-11.39-.17-17.32,8.94-14,8.1-2.74-20.56-10-11.12,14.73A1.15,1.15,0,0,0,1928.68,352.41Z"/>
      <path class="f38a372f-2954-40d8-96c0-5f53c8b8d027" d="M1937.45,350.26c3.57-.36-1.52-10.88-10.24-11.31a1.15,1.15,0,0,0-.11,2.3C1936,342,1935.34,350,1937.45,350.26Z"/>
      <path class="f38a372f-2954-40d8-96c0-5f53c8b8d027" d="M2055.21,350.07c7.69-12.45-1.89-22.36-11.46-17.26a1.15,1.15,0,0,0,.87,2.12c8.13-3.51,13.57,1.48,9.46,13.68A1.15,1.15,0,0,0,2055.21,350.07Z"/>
      <path class="f38a372f-2954-40d8-96c0-5f53c8b8d027" d="M2044.46,348.67c2.08-.32,3.07-8.75,11.92-9.81a1.14,1.14,0,0,0,1-1.24C2053.45,332.56,2039.32,348.08,2044.46,348.67Z"/>
      <path class="ac2337cd-8e2c-4250-909e-9b399bd37ed8" d="M2050.08,358.94c-6.44-24.62-5.38-30.81-12-43.36,3.36,14,5.64,34,6.61,44.65,2.57,14.2-7.14,17.27-17.48,13.17-20.18-9.11-44.24-14-66.37-1.7-35,18.6-17.65-37.2-15.74-52.55.41-2.22.71-4.19.87-5.77a225.31,225.31,0,0,0-12.06,48.46C1924.28,451,2072.22,443.64,2050.08,358.94Zm-29,47.11c-21.73,9.7-21-14-28.06-14.09-8.73-.06-6.57,15.73-18.13,15.6-14.83-.24-27.34-19.1-11.27-29.2,17.12-10.4,43-8.95,59.18,2.45C2032.34,387,2031.48,401.49,2021.05,406.05Z"/>
      <path class="f38a372f-2954-40d8-96c0-5f53c8b8d027" d="M1998.91,382.87a24.48,24.48,0,0,0,5.59-.66,1.18,1.18,0,0,0-.63-2.27c-.1,0-10.26,2.68-22.4-3.84a1.17,1.17,0,0,0-1.59.48C1981.31,381.87,1997.37,383,1998.91,382.87Z"/>
      <path class="bf1f2620-5cb7-4367-bb60-9e92c7f20333" d="M1899.46,475.48c52.79,46,138.57,46.07,191.42,0A1070.72,1070.72,0,0,1,1899.46,475.48Z"/>
      <path class="bf1f2620-5cb7-4367-bb60-9e92c7f20333" d="M1961.5,450c0,.06-.07.11-.09.16,32.28,7.74,64.12-1.16,64-1.13s1.22-11.76-12.17-17.78a98.53,98.53,0,0,1-41.6.63S1958.71,437.77,1961.5,450Z"/>
      <path class="a7dbb7c0-2440-4f15-9e70-7a98b67a9a3c" d="M1992.23,203c209.28,2.75,214.64,306.14,5.86,316.38C1789.13,516.89,1783.15,213.58,1992.23,203Zm5.51,298c184.53-9.05,179.89-277.19-5.17-279.68C1807.81,230.63,1813,498.85,1997.74,501.06Z"/>
      <path class="f38a372f-2954-40d8-96c0-5f53c8b8d027" d="M1962.69,328a1.25,1.25,0,0,1,.38-2.47c.11,0,11.43,1.26,18.88-7.38a1.25,1.25,0,0,1,1.9,1.63c-8.35,9.68-20.57,8.3-21.08,8.23Z"/>
      <path class="f38a372f-2954-40d8-96c0-5f53c8b8d027" d="M2018.73,330.19a1.28,1.28,0,0,1-.85-.59c-4.22-7.13-14.34-8.14-14.44-8.15a1.25,1.25,0,0,1-1.13-1.36,1.24,1.24,0,0,1,1.35-1.13c.47,0,11.5,1.12,16.37,9.36a1.25,1.25,0,0,1-.43,1.72A1.28,1.28,0,0,1,2018.73,330.19Z"/>
    </g>
    <g id="a0247981-7e80-413d-819b-c33bf49af97b" data-name="3">
      <path class="b609da17-dd10-4875-b2df-965b25f41ac1" d="M1899.25,953C1903,1071,1769.52,1147.15,1671,1082.4h0a150.49,150.49,0,0,1-16.32-11.81s0,0,0,0C1450.67,863,1862.52,666.17,1899.25,953Z"/>
      <path class="bfc8260c-4a00-49b6-9277-c7568ca1ca6c" d="M1745.66,1105.74v.29c-1.38,0-2.76-.12-4.13-.22a139.74,139.74,0,0,1-14.89-1.8l-.33,0c0-.14,0-.28.07-.41,1.81-7.88,12.36-9.31,17-3.92A9.49,9.49,0,0,1,1745.66,1105.74Z"/>
      <path class="efe32062-139f-46b0-86e4-697313221334" d="M1860.56,1056.9c-33.54,37.45-86.89,56.66-136.46,46.64q.26.86.57,1.71c-3.23-2.59-7.31-3.14-11.25-4.17-8.41-30.74-15.43-62.36-19-94.19-4.6-42.91-4-89,16.9-126,.1,0,2.12-11.84,4-14.66,30.32-71.19,133.79-16.29,119.84,59.9C1822.36,984,1847.91,1009.78,1860.56,1056.9Z"/>
      <path class="a4536bbf-d78c-41ac-9ecd-09917404fb9e" d="M1839.29,1076.28a150,150,0,0,1-28.51,16.84c-2.08-11.92-4.1-23.31-6.17-34.77A148.28,148.28,0,0,1,1839.29,1076.28Z"/>
      <path class="a4536bbf-d78c-41ac-9ecd-09917404fb9e" d="M1673.7,1062.62c-.47,3.47-1.14,8.35-2,14.39-.22,1.7-.48,3.5-.73,5.38-1-.62-2-1.27-3-1.94-.87.8-1.73,1.62-2.58,2.44.4-1.12.79-2.24,1.21-3.35a149.25,149.25,0,0,1-11.94-9A81.21,81.21,0,0,1,1673.7,1062.62Z"/>
      <rect class="a12e76f2-41d1-4581-864f-dd1b69306e7d" x="1720.53" y="1010.67" width="39.37" height="46.48" transform="translate(-16.4 28.11) rotate(-0.92)"/>
      <path class="f7443261-2a48-43b4-845d-30f755d0dd48" d="M1759.62,1016.92l.2,12.33c-23.29,7.71-39.34,1.89-39.34,1.89l-.32-19.84Z"/>
      <path class="a12e76f2-41d1-4581-864f-dd1b69306e7d" d="M1787.23,983.22c-1.06,14.15-8.72,26.34-20,34.24h0c-30.84,23.82-84.93-.22-82.67-39.63.5-17.6,5.36-25.44,9.84-41.37,2.27-59.74,79-73.24,87-9.32C1782.41,948.16,1788.84,964.16,1787.23,983.22Z"/>
      <path class="f38a372f-2954-40d8-96c0-5f53c8b8d027" d="M1746.42,952.25c-1.67-3.14,3.3-5.68,4.88-2.49S1748,955.44,1746.42,952.25Z"/>
      <path class="f38a372f-2954-40d8-96c0-5f53c8b8d027" d="M1713.57,952.43c-1.66-3.14,3.31-5.69,4.88-2.5S1715.15,955.62,1713.57,952.43Z"/>
      <path class="f38a372f-2954-40d8-96c0-5f53c8b8d027" d="M1725.5,977.45c-5,0-13-3.36-6.66-7.88,6.57-3.56,7.85-14.7,10.29-14.31,2.18.69-3.52,12.56-9.29,16.13-4,2.5,4.42,4.89,7.9,3.64a1,1,0,0,1,1.31.67C1729.37,977.51,1726.76,977.3,1725.5,977.45Z"/>
      <path class="f1c2eb0c-f961-4385-aaa8-0f5cd52f89bc" d="M1804.61,1058.35c-15,45.55-36.21,53.74-80.51,45.19.17.57-40.54-3.25-50.4-40.92,15-8.14,34.08-13.34,46.61-14l.26-12.06s11.77,6.4,39.36-.63l.72,12C1759.72,1047,1789.21,1050.3,1804.61,1058.35Z"/>
      <path class="f7443261-2a48-43b4-845d-30f755d0dd48" d="M1787.23,983.22c-1.06,14.15-8.72,26.34-20,34.24,23-25.57,15.08-48.8,11.6-66.93-31.19-20.55-24.59-48-24.59-48-13.51,15.47-45.33,22.2-55.74,40.48l-4.12-6.56c2.27-59.76,79-73.23,87-9.32C1782.41,948.16,1788.84,964.16,1787.23,983.22Z"/>
      <path class="efe32062-139f-46b0-86e4-697313221334" d="M1758.61,889.72s-4.34,45,24.83,55.36C1783.44,945.08,1804.38,878,1758.61,889.72Z"/>
      <path class="efe32062-139f-46b0-86e4-697313221334" d="M1759.54,888.47c-12,20-71,40-67.21,79.11,1.13,21.65,14.85,37.69,7.55,57.2s-30.75,17-30.75,17,22.58-15.63,4.5-47.52C1636.47,933.79,1704.35,828.94,1759.54,888.47Z"/>
      <path class="bf1f2620-5cb7-4367-bb60-9e92c7f20333" d="M1711.37,873s47.51-19.42,80,17.14c0,0-18-43.34-76-23.91C1715.33,866.23,1706.91,869,1711.37,873Z"/>
      <path class="a4536bbf-d78c-41ac-9ecd-09917404fb9e" d="M1716.11,1101.78c-.9-.22-1.79-.46-2.69-.7a.61.61,0,0,1-.18,0c-.13,0-.25-.06-.38-.09a158.2,158.2,0,0,1-26-9.75c-3.22-1.54-6.39-3.19-9.48-4.94-.33-.18-.63-.37-1-.56-1.84-1.06-3.67-2.16-5.46-3.29h0c-1-.62-2-1.27-3-1.94-.87.8-1.73,1.62-2.58,2.44.4-1.12.79-2.24,1.21-3.35,2.12-5.79,4.48-11.45,7.08-16.92a53.93,53.93,0,0,0,6.43,7.14,303.73,303.73,0,0,0,32,27.08c0,.05.12.09.18.14,2.88,2.09,5.76,4.09,8.56,5.9C1719.28,1102.55,1717.69,1102.18,1716.11,1101.78Z"/>
      <path class="a4536bbf-d78c-41ac-9ecd-09917404fb9e" d="M1820.52,1088.31l-1,.55-.57.29q-4,2.1-8.14,4-2.37,1.07-4.79,2.05a145.66,145.66,0,0,1-15.24,5.26,135.22,135.22,0,0,1-19.28,4.25q-6.13.9-12.32,1.24-3.84.22-7.68.21c2.78-2,6-4.28,9.41-6.85,13.28-10,29.92-23.71,38.75-34a38.39,38.39,0,0,0,5-6.92c3.69,6.13,7.43,12.79,11.05,19.93.88,1.73,1.75,3.48,2.62,5.27h0a3.73,3.73,0,0,1,.16.35C1819.14,1085.35,1819.84,1086.82,1820.52,1088.31Z"/>
      <path class="b15ba81d-83fe-4aa6-9fc4-246ac81b71fc" d="M1716.11,1101.78A156.36,156.36,0,0,1,1671,1082.4h0c-1-.62-12.5-8.63-16.32-11.81l-.35.2c10.72-6.6,19.73-8.32,19.37-8.16,10.93,13.13,29.93,28.65,47.17,40.26C1719.28,1102.55,1717.69,1102.18,1716.11,1101.78Z"/>
      <path class="b15ba81d-83fe-4aa6-9fc4-246ac81b71fc" d="M1829.85,1070.21c-17.31,29.19-46.16,35.53-78.38,35.92,18.37-13.67,41.65-30.27,53.14-47.78C1804.61,1058.35,1820.52,1063.57,1829.85,1070.21Z"/>
      <path class="f38a372f-2954-40d8-96c0-5f53c8b8d027" d="M1725.61,988a17.32,17.32,0,0,1-3.5-.24,1,1,0,0,1,.4-2,21.19,21.19,0,0,0,16.33-4.73,1,1,0,0,1,1.46.13C1739.72,986.36,1727.28,988.1,1725.61,988Z"/>
      <path class="f38a372f-2954-40d8-96c0-5f53c8b8d027" d="M1748.69,940.56c-8.63.18-13,5.92-13.11,11.74a11.64,11.64,0,0,0,.13,2.05c.8,5.4,5.28,10.31,13.37,10.22,8.53-.18,12.87-5.79,13.1-11.54a12.21,12.21,0,0,0,0-1.71C1761.55,945.72,1757.05,940.47,1748.69,940.56Zm.35,22.06c-15.2.16-15.53-19.78-.32-20.11C1763.92,942.35,1764.24,962.3,1749,962.62Z"/>
      <path class="f38a372f-2954-40d8-96c0-5f53c8b8d027" d="M1709.69,940.3c-17.74.37-17.37,24.18.38,24,8-.18,12.32-5.12,13-10.48a11.78,11.78,0,0,0,.08-2.22C1722.84,945.8,1718.32,940.21,1709.69,940.3Zm.35,22.05c-15.21.16-15.53-19.78-.33-20.11C1724.92,942.08,1725.24,962,1710,962.35Z"/>
      <path class="f38a372f-2954-40d8-96c0-5f53c8b8d027" d="M1736.32,954.75c-8.84-5.91-12.57.18-14.54-.92-1.14-1.76,6.29-6.62,15.06-.76A.93.93,0,0,1,1736.32,954.75Z"/>
      <path class="f38a372f-2954-40d8-96c0-5f53c8b8d027" d="M1761.48,953.29a.93.93,0,0,1-.25-1.82c.56.33,24.21-7.55,23.77-5.36C1786.38,947.85,1762,952.72,1761.48,953.29Z"/>
      <path class="a12e76f2-41d1-4581-864f-dd1b69306e7d" d="M1802,961.73c-6,20.18-30.63,13-24.84-7.24C1783.18,934.32,1807.83,941.49,1802,961.73Z"/>
      <path class="f38a372f-2954-40d8-96c0-5f53c8b8d027" d="M1796.61,964.56a1,1,0,0,1-1-1.29c3.65-10.75-1.16-15.16-8.32-12.08a1,1,0,0,1-.76-1.87c8.38-3.59,15.39,1.64,11,14.51A1,1,0,0,1,1796.61,964.56Z"/>
      <path class="f38a372f-2954-40d8-96c0-5f53c8b8d027" d="M1787.13,963.3c-3.08-.38,2.6-9.88,10.36-10.64a1,1,0,0,1,.17,2C1789.84,955.61,1789,963,1787.13,963.3Z"/>
      <path class="a4536bbf-d78c-41ac-9ecd-09917404fb9e" d="M1792.63,968.78c.11,3.68-5.67,3.77-5.67.09S1792.63,965.09,1792.63,968.78Z"/>
      <path class="a7dbb7c0-2440-4f15-9e70-7a98b67a9a3c" d="M1746.26,798.64c209.29,1.33,216.7,304.69,8,316.33C1545.28,1113.87,1537.26,810.6,1746.26,798.64Zm7.53,298c184.46-10.29,178-278.4-7.07-279.63C1562,827.49,1569,1095.67,1753.79,1096.62Z"/>
      <path class="f38a372f-2954-40d8-96c0-5f53c8b8d027" d="M1760.77,940.24a1.24,1.24,0,0,1-1.07-.4,23.08,23.08,0,0,0-17.77-7.17,1.25,1.25,0,0,1-.28-2.49h0a25.19,25.19,0,0,1,19.87,8,1.26,1.26,0,0,1-.07,1.77A1.29,1.29,0,0,1,1760.77,940.24Z"/>
      <path class="f38a372f-2954-40d8-96c0-5f53c8b8d027" d="M1706.49,937a1.25,1.25,0,0,1-.91-2.24c.29-.21,7-5.23,15.55-3.38a1.25,1.25,0,0,1,.95,1.49,1.24,1.24,0,0,1-1.48,1c-7.41-1.61-13.45,2.89-13.51,2.93A1.27,1.27,0,0,1,1706.49,937Z"/>
    </g>
    <g id="bd51772f-aabe-4742-a901-c3c971790f5b" data-name="2">
      <path class="b609da17-dd10-4875-b2df-965b25f41ac1" d="M1723.69,303.17A156.51,156.51,0,0,1,1648,353.86c-46.15,14.42-98.59,2.66-135.46-28.15-33-27.33-53.61-67.3-54.41-111.91C1471.31-57,1877.76,83,1723.69,303.17Z"/>
      <path class="efe32062-139f-46b0-86e4-697313221334" d="M1693.84,205.09c41.36,50.94-19.95,102.34-62.1,51.45C1590.39,205.61,1651.7,154.2,1693.84,205.09Z"/>
      <path class="f789a1ab-0359-405a-9cca-0132bee9682d" d="M1584.35,358.24a150.94,150.94,0,0,1-71.84-32.53c27.24-29.12,60.17-30.65,60.17-30.65C1588.83,311.3,1589.16,336.66,1584.35,358.24Z"/>
      <path class="a12e76f2-41d1-4581-864f-dd1b69306e7d" d="M1579.75,272.58l-.27,19.75c6,23.19,36,14.81,49.1.69,0,0-1.64-14.73-1.54-21.56Z"/>
      <path class="efe32062-139f-46b0-86e4-697313221334" d="M1617.93,113.77c-65.46-26.9-101.85,68.1-70.64,115.11Z"/>
      <path class="f7443261-2a48-43b4-845d-30f755d0dd48" d="M1630.82,223.25c-.11.81-.24,1.64-.42,2.44-1.12-.71-3.69,28.8-3.32,50.19-20.42,9.41-43.23,6-47.45,5.18.83-34.29-6.63-67.53,18.32-82.08C1613.64,192.12,1633.29,205.82,1630.82,223.25Z"/>
      <path class="a12e76f2-41d1-4581-864f-dd1b69306e7d" d="M1662.8,203.14c-3.06,21.07-10,44.78-26.55,58.75h0c-45.06,41.39-141.54-20.82-95-72.54a61.23,61.23,0,0,0,14.2-22.75C1579.17,85.13,1676.22,130.5,1662.8,203.14Z"/>
      <path class="a377db70-22fb-44fb-8352-38ac8035676c" d="M1560.05,228.71l27.87-14.39C1591.06,231.24,1572.26,241.6,1560.05,228.71Z"/>
      <path class="f38a372f-2954-40d8-96c0-5f53c8b8d027" d="M1580.69,191.27c-2-3.67,3.86-6.58,5.74-2.94S1582.56,194.91,1580.69,191.27Z"/>
      <path class="f38a372f-2954-40d8-96c0-5f53c8b8d027" d="M1553.3,187.14c-2-3.67,3.87-6.58,5.74-2.94C1561.07,187.87,1555.17,190.78,1553.3,187.14Z"/>
      <path class="f38a372f-2954-40d8-96c0-5f53c8b8d027" d="M1559.92,229.92a1.22,1.22,0,0,1-.43-2.29c.76.28,29.55-16.85,29.51-13.87C1590.6,215.88,1560.65,229.33,1559.92,229.92Z"/>
      <path class="f38a372f-2954-40d8-96c0-5f53c8b8d027" d="M1562.23,214.51c-5.48-.68-12.73-4.23-5.91-9,7.76-4.21,9-17,11.93-16.67,3.19,2.34-6.29,15.7-12.13,20.46.79,1.82,6.81,3.75,10.84,2.43a1.23,1.23,0,0,1,1.54.78C1568.61,215.22,1564.22,214.48,1562.23,214.51Z"/>
      <path class="a12e76f2-41d1-4581-864f-dd1b69306e7d" d="M1542.77,345.13c-.76-.37-1.52-.74-2.27-1.14,10.91-16.57,21.76-34.23,32.18-48.93l6.79-2.73c11.81,18.4,27,16.54,49.11.69a101.59,101.59,0,0,1,65.07,38.31C1650.73,363,1590.65,369.26,1542.77,345.13Z"/>
      <path class="f7443261-2a48-43b4-845d-30f755d0dd48" d="M1662.8,203.14c-3.06,21.07-10,44.78-26.55,58.75h0c9.18-11.5,14.56-37,14.56-37l-4.65-11.27c-74.93-22.51-69.63-81-69.63-81C1621.69,99,1672.53,154.59,1662.8,203.14Z"/>
      <path class="efe32062-139f-46b0-86e4-697313221334" d="M1584.32,127.29s-4.92,57.66,62.18,80.45l24.39,14.18C1716.54,154.89,1645.16,67.55,1584.32,127.29Z"/>
      <path class="a12e76f2-41d1-4581-864f-dd1b69306e7d" d="M1676.63,213.54c-4.37,23.7-35.06,17.9-30.13-5.81C1650.87,184,1681.56,189.84,1676.63,213.54Z"/>
      <path class="f38a372f-2954-40d8-96c0-5f53c8b8d027" d="M1668.83,218.57a1.22,1.22,0,0,1-1-1.55c2.06-7,1.91-11.85-.42-14-3.54-3.58-9.07,1-11.31-1C1663,192.67,1678.87,205.41,1668.83,218.57Z"/>
      <path class="f38a372f-2954-40d8-96c0-5f53c8b8d027" d="M1657.33,217c-4.34.28,6.7-16.11,14-11.48a1.21,1.21,0,0,1-1.12,1.3C1660.58,208,1659.82,216.84,1657.33,217Z"/>
      <path class="a4536bbf-d78c-41ac-9ecd-09917404fb9e" d="M1663.4,224.69c.11,3.51-5.51,3.56-5.52.07S1663.39,221.21,1663.4,224.69Z"/>
      <path class="a021f46e-7712-4b28-b4d2-9457102f8874" d="M1694.22,330.92c-44.15,33-106.62,38.63-155.3,12.27,0,0,21.09-45.85,33.76-48.13-2.67,30.5,6.4,52.49,35.6,26.13,10.15-9.61,20.08-22.28,33.61-25.17C1663.43,300.73,1681.69,313.89,1694.22,330.92Z"/>
      <path class="f789a1ab-0359-405a-9cca-0132bee9682d" d="M1702.56,324.48c-24.94,20.67-56.59,33.84-89.12,35.35-3.43-11.21-2.2-22.92,6-38C1639.36,284.82,1682.39,297.55,1702.56,324.48Z"/>
      <path class="f38a372f-2954-40d8-96c0-5f53c8b8d027" d="M1592.05,185a1.1,1.1,0,0,1-.84-.52c-.06-.07-5.28-7.86-13.52-7.43a1.16,1.16,0,1,1-.13-2.31c9.58-.55,15.34,8.11,15.58,8.48a1.15,1.15,0,0,1-1.09,1.78Z"/>
      <path class="f38a372f-2954-40d8-96c0-5f53c8b8d027" d="M1551.9,179.67a1.13,1.13,0,0,1-.49-.16,1.16,1.16,0,0,1-.38-1.59,12.1,12.1,0,0,1,14.27-5.62,1.16,1.16,0,0,1-.79,2.18c-.29-.1-7.15-2.48-11.5,4.65A1.15,1.15,0,0,1,1551.9,179.67Z"/>
      <path class="a7dbb7c0-2440-4f15-9e70-7a98b67a9a3c" d="M1610.48,368.82c-209-1.93-215.73-305.3-6.72-316.36C1813.09,54.69,1819.17,358,1610.48,368.82Zm-6.34-298c-184.81,9.84-178.79,278,5.95,279.66C1794.6,340.92,1789.13,72.71,1604.14,70.81Z"/>
    </g>
    <g id="a94b55fa-8ecc-4ece-bdf9-301a7682412d" data-name="1">
      <path class="b609da17-dd10-4875-b2df-965b25f41ac1" d="M2308.23,842.7c-24.21,29.72-59.74,50.26-97.83,55.51-47.1,6.75-96.61-12.26-128.46-47.3-24.16-26.33-38.64-60.27-39.29-97.58C2055.83,482.49,2462.3,622.56,2308.23,842.7Z"/>
      <path class="ac2337cd-8e2c-4250-909e-9b399bd37ed8" d="M2167.69,667.84s-11.69-6.47-18.71,3.91.88,17.44-7.85,26.58-14.13,10.79-11.64,19.52,9.19,9.68,6.26,20.62c0,0,32.84-31.42,37.19-50.94S2167.69,667.84,2167.69,667.84Z"/>
      <path class="a12e76f2-41d1-4581-864f-dd1b69306e7d" d="M2169.89,829.77c-.4-3-.65-6.23-.78-9.61-.78-19.54,2.27-43.76,3.85-52.82.44-2.45.75-3.79.87-3.62.14-.58.31-1.14.5-1.69A18.41,18.41,0,0,1,2186,749.71h0a22.19,22.19,0,0,1,22.43,5.37c.12.12.23.25.33.36a18.31,18.31,0,0,1,4.6,15.6c0,.29-.09.6-.15.89s-.15.81-.24,1.21c-.94-.62-3.57,24.84-3.6,43.32a80.42,80.42,0,0,0,1,14.82C2248.36,842.65,2134.25,880,2169.89,829.77Z"/>
      <path class="f7443261-2a48-43b4-845d-30f755d0dd48" d="M2213.41,771c0,.29-.09.6-.15.89s-.15.81-.24,1.21c-.94-.62-3.57,24.84-3.6,43.32-17.38,7.9-36.76,4.42-40.31,3.7-.78-19.54,2.27-43.76,3.85-52.82.47-2.12.81-3.37.87-3.62.14-.58.31-1.14.5-1.69A20.06,20.06,0,0,1,2186,749.71h0a20.14,20.14,0,0,1,22.43,5.37c.12.12.23.25.33.36A20.15,20.15,0,0,1,2213.41,771Z"/>
      <path class="e5b60a85-0791-4a88-a80b-08023c8cdf7e" d="M2169.89,829.77c-13.54,18.32-26.28,35.59-41.08,55.6A151.37,151.37,0,0,1,2073.53,841C2118.27,830.93,2140.42,829.83,2169.89,829.77Z"/>
      <path class="e5b60a85-0791-4a88-a80b-08023c8cdf7e" d="M2127.31,884.66q-4.7-2.26-9.2-4.86a336.05,336.05,0,0,1,40.36-40.68h0c3.78-3.22,7.57-6.3,11.41-9.34h0c-2.54,18.47,7.76,21.79,40.54,1.5h0s0,0,0,0h0c6.38,4.47,17,16,16.77,24-.25,7,3.58,20,9.55,36.8C2201.17,904.26,2161.06,901.19,2127.31,884.66Z"/>
      <path class="a12e76f2-41d1-4581-864f-dd1b69306e7d" d="M2139.74,798.62c15.11,15.38,38.47,19.77,57.14,15.75a47,47,0,0,0,21.09-9.69h0c70.81-70.37-24.54-189.2-69.41-86.49C2133.68,746.16,2108,763.72,2139.74,798.62Z"/>
      <path class="a377db70-22fb-44fb-8352-38ac8035676c" d="M2151.68,774l24.69-12.6s1.46,13.45-8.3,17.1C2158.73,782,2151.68,774,2151.68,774Z"/>
      <path class="a12e76f2-41d1-4581-864f-dd1b69306e7d" d="M2270.43,876.08a157.1,157.1,0,0,1-33.65,16l-1.07.36c-1.07.35-2.13.68-3.2,1a144.33,144.33,0,0,1-22.11,4.82,148.7,148.7,0,0,1-2.51-50.59c.11-1,.23-2.08.37-3.14q.82-6.39,2.18-13.19h0a114.26,114.26,0,0,1,13.44,2.44c20.8,5,42.3,15.93,61.57,31.59a155.48,155.48,0,0,1-14.13,10.16Z"/>
      <path class="f38a372f-2954-40d8-96c0-5f53c8b8d027" d="M2170.4,740.64a2.85,2.85,0,1,1,3.83,1.25A2.85,2.85,0,0,1,2170.4,740.64Z"/>
      <path class="e5b60a85-0791-4a88-a80b-08023c8cdf7e" d="M2270.43,876.08c-20.14,12.68-43.54,21-67.38,22.94-2.7-23.52-1.2-46.44,7.39-67.73,29.18,2.06,57.87,13.27,79.52,30.28A158.09,158.09,0,0,1,2270.43,876.08Z"/>
      <path class="f38a372f-2954-40d8-96c0-5f53c8b8d027" d="M2146.44,736.61a2.85,2.85,0,1,1,3.83,1.25A2.86,2.86,0,0,1,2146.44,736.61Z"/>
      <path class="f38a372f-2954-40d8-96c0-5f53c8b8d027" d="M2151.68,775.1a1.08,1.08,0,0,1-.49-2l24.69-12.6a1.08,1.08,0,0,1,1,1.92L2152.17,775A1.11,1.11,0,0,1,2151.68,775.1Z"/>
      <path class="f7443261-2a48-43b4-845d-30f755d0dd48" d="M2157.08,702.16s10.35,6.87,21.25,3.44,15.28,0,15,8.72,15.58,6.15,17.46,10.23-.3,11.87,3.28,17.17,21.5,11.81,21.5,11.81l-3.24,19s-6.14,26.33-18.2,35a39.71,39.71,0,0,0,3.87-2.85h0a53.35,53.35,0,0,0,13-16.24c1-2,2-4,3-6.16a105,105,0,0,0,3.76-10.26c.33-1,1.49-5,1.76-5.93.36-1.43-10.35-68.92-14.56-73.12-.25-.22-61.89-.64-64,2.11C2159.94,696.22,2157.53,701.44,2157.08,702.16Z"/>
      <path class="f38a372f-2954-40d8-96c0-5f53c8b8d027" d="M2155.5,761.38c-3.8,0-7.94-1.66-8.91-4-.33-.76-.75-2.68,2.18-4.27,5.38-2.9,9.34-14.06,9.38-14.17a1.07,1.07,0,0,1,1.37-.66,1.08,1.08,0,0,1,.66,1.38c-.17.49-4.27,12-10.38,15.35-.7.38-1.47,1-1.23,1.52.69,1.63,5.82,3.44,9.44,2.29a1.06,1.06,0,0,1,1.35.7,1.08,1.08,0,0,1-.69,1.36A10.8,10.8,0,0,1,2155.5,761.38Z"/>
      <path class="ac2337cd-8e2c-4250-909e-9b399bd37ed8" d="M2159.3,694.85s-7.65-11.06,2-19.36,9.11-20.76,22.51-18.69,18.38,3.7,32.93-.23,26.88,10,26.33,19.26,19,9.21,21.89,21.67,0,16.19,0,21.59,17,12.46,13.72,25.33-14.14,10.9-16.22,19.15,4.29,22.41-5.25,27.06c-14.14,6.9-26.31-2.19-26.31-2.19s17.69-33.86,1.11-40.93c-8.07-3.44-16-8.07-13.14-20.11s-15-8.31-19.15-14.54-1.16-13.7-8.91-15.36S2176.49,704.9,2159.3,694.85Z"/>
      <path class="a12e76f2-41d1-4581-864f-dd1b69306e7d" d="M2254.22,761.74c-1.91,9-9.36,15.1-16.63,13.57s-11.62-10.1-9.71-19.13,9.36-15.11,16.63-13.57S2256.13,752.71,2254.22,761.74Z"/>
      <path class="f38a372f-2954-40d8-96c0-5f53c8b8d027" d="M2247.42,766.16a1.12,1.12,0,0,1-.31,0,1.07,1.07,0,0,1-.72-1.34c1.94-6.35,1.87-10.71-.19-12.62-2.75-2.55-8.39-.4-8.45-.37a1.08,1.08,0,0,1-.79-2c.29-.11,7-2.67,10.7.79,2.76,2.55,3,7.54.79,14.84A1.08,1.08,0,0,1,2247.42,766.16Z"/>
      <path class="f38a372f-2954-40d8-96c0-5f53c8b8d027" d="M2237.36,764.65a1.26,1.26,0,0,1-.43-.08,1.09,1.09,0,0,1-.57-1.42c.16-.37,4-9.1,12.21-9.65a1.1,1.1,0,0,1,1.15,1,1.08,1.08,0,0,1-1,1.15c-6.91.45-10.33,8.26-10.36,8.34A1.08,1.08,0,0,1,2237.36,764.65Z"/>
      <path class="b6529a94-8ec4-4342-a73c-cd20023e6cf9" d="M2246.3,760a4.93,4.93,0,1,1-3.55-6A4.93,4.93,0,0,1,2246.3,760Z"/>
      <path class="b6529a94-8ec4-4342-a73c-cd20023e6cf9" d="M2229.57,771.74a3,3,0,0,1-2-5.39l12-9.94a3.05,3.05,0,0,1,3.89,4.7l-12,9.93A3,3,0,0,1,2229.57,771.74Z"/>
      <path class="f38a372f-2954-40d8-96c0-5f53c8b8d027" d="M2186.55,733.52a1,1,0,0,1-.29,0c-11.44-3.28-14.9-11.31-15-11.65a1,1,0,0,1,1.93-.8h0c0,.07,3.26,7.46,13.69,10.44a1,1,0,0,1-.29,2Z"/>
      <path class="f38a372f-2954-40d8-96c0-5f53c8b8d027" d="M2147.87,725.6a1.06,1.06,0,0,1-.73-.3,1,1,0,0,1,0-1.47c.23-.25,5.91-5.91,17-4.29a1,1,0,0,1-.3,2.07c-10-1.46-15,3.47-15.25,3.68A1.1,1.1,0,0,1,2147.87,725.6Z"/>
      <path class="ef8626ee-4390-4238-b8ba-f3cee1323c5a" d="M2224.85,832.84a52.53,52.53,0,0,1-6.67,5.35,131.91,131.91,0,0,1-12.72,7.87c-12.18,6.62-27,12.25-36.48,9.28-6.33-2-9.08-6.23-10.06-10.72a21.52,21.52,0,0,1-.45-5.5,32.83,32.83,0,0,1,1.78-9.35l0,0c6.21-.1,9.65,0,9.65,0-.29,1.17-3.88,30.31,40.54,1.5v0h0A72.18,72.18,0,0,1,2224.85,832.84Z"/>
      <path class="a7dbb7c0-2440-4f15-9e70-7a98b67a9a3c" d="M2195,908.35c-209-1.93-215.72-305.3-6.72-316.36C2397.62,594.22,2403.7,897.54,2195,908.35Zm-6.33-298c-184.81,9.84-178.8,277.95,5.94,279.66C2379.14,880.45,2373.67,612.24,2188.68,610.34Z"/>
    </g>
  </g>
</svg>
