<svg id="bea4beac-726c-4b30-bd38-69a99e6ee5af" data-name="Слой 2" xmlns="http://www.w3.org/2000/svg" viewBox="0 0 2000 1322.22">
  <defs>
    <style>
      .b67995fd-8030-4f94-98cd-52f29b67e063 {
        fill: #f7af4d;
      }

      .bab9ed6f-ebdd-453a-9435-ba173230e707 {
        fill: #f5ae9e;
      }

      .f4826657-d372-4e18-8088-a15f2252b349 {
        fill: #789ed3;
      }

      .ae18573b-22b2-4339-8721-aaaa83f5e789 {
        fill: #4b3584;
      }

      .ffd9bd00-e027-457c-a50a-057adb784575 {
        fill: #b16516;
      }

      .bced6dd1-1b7a-4f27-af59-49ae06808352 {
        fill: #5a8dbf;
      }

      .b25f3e9a-97b5-4faa-94b3-bf08d8a46fba {
        fill: #9fc1e6;
      }

      .a11eecec-93d9-43c3-94d8-346951decae0 {
        fill: #2b2150;
      }

      .b9498028-12ba-4008-9a30-7e33dfb49d09 {
        fill: #313b84;
      }

      .a3173348-e334-437f-8f75-e11a66cdb4b4 {
        fill: #70c2b9;
      }

      .f0e51fcf-9e7b-415f-bdf0-e9b9b223edfb {
        fill: #ee7e94;
      }

      .a8e4ff1e-bc25-4aea-afff-5917cbc1b6e6 {
        fill: #a49acb;
      }

      .b163888a-19a3-4890-aa29-a8d937f72c2e {
        fill: #2bb19e;
      }

      .bb0b8dd6-30b7-493a-9bf4-dfa234e91903 {
        fill: #dc74aa;
      }

      .f2020db7-e5a4-45a3-8c62-027abf324c1b {
        fill: #9bd3d5;
      }

      .a5946d9d-91a1-4d7c-9999-ca67a7bf6fe2 {
        fill: #2d7cbb;
      }

      .a660cd25-e0fc-4a5e-87da-1ceee78f55a5 {
        fill: #c6368b;
      }
    </style>
  </defs>
  <g>
    <path class="b67995fd-8030-4f94-98cd-52f29b67e063" d="M1165.46,1155.4v-41.66h22.16C1180,1127.06,1172.47,1141,1165.46,1155.4Z"/>
    <path class="b67995fd-8030-4f94-98cd-52f29b67e063" d="M1193.37,1053.8h-51.72V993h130a905.3,905.3,0,0,0-78.27,110.91Z"/>
    <path class="b67995fd-8030-4f94-98cd-52f29b67e063" d="M1194.68,1290.67l-30.53.9V1257.8C1174.53,1269.24,1185,1280.53,1194.68,1290.67Z"/>
    <path class="b67995fd-8030-4f94-98cd-52f29b67e063" d="M1458.21,1210.43l4,16.66s-4,1.85-4,3.12c.54,36.61,13.61,62.35,13.61,62.35h-170c4.2-15-4.45-38.83-14.74-40-38.76-4.25-46.62-9.3-55.5-28.56-1.22-2.62-8.14-10.9-10.52-11.23-16.42-2.19-41.43-24.4-55.64-45.45v-7.48l62.6,43.63s134.76-186.29,136.63-191.29l7.25-19.17h47.79c0,22.21,2.57,98.66,31.56,217.42Z"/>
    <path class="bab9ed6f-ebdd-453a-9435-ba173230e707" d="M1219.18,1212.45c-17.77-3.89-44-28.57-57-50.18l4-4.63,51.48,36.66A54.71,54.71,0,0,0,1219.18,1212.45Z"/>
    <path class="f4826657-d372-4e18-8088-a15f2252b349" d="M1120.84,1203.71c2.21-2,30-28.53,43.19-40.86,13.25,22.54,41.37,48.66,59.21,51,2.4.32,9.32,8.64,10.52,11.24,8.92,19.25,16.75,24.34,55.52,28.59,11.17,1.22,21,25.36,13.94,40.4l-106.36-4.54c-20-19.29-71.17-71.76-75.62-76.2-1.6-1.58-3.32-3.5-3.06-5.66C1118.37,1206.08,1119.64,1204.83,1120.84,1203.71Z"/>
    <path class="ae18573b-22b2-4339-8721-aaaa83f5e789" d="M1543.73,1189.44l-92.44,21c-34.84-142.51-31.47-224.15-31.47-224.15s-12.3-17.87-28.57-44.19l-26.56,70.09c-1.87,5-136.63,191.29-136.63,191.29l-64.24-44.75c50.92-106,127.23-188.2,127.23-188.2s-1.08-109.18,5-175c8.93.51,20.29,1.17,25.53,1.35,2.25.1,35.12.52,37.5.52,7.58,0,15.48-.19,23.52-.47,2.34-.05,22.63-1.07,30.53-1.73,2.34-.19,12.3-1.12,15-1.4,5.19-.56,10.38-1.22,15.52-2,.84-.14,2.76-7.24,2.76-7.24l4.16-21.28L1454,757l14.26-2.06,2.67,8.37,3.22,10.06,1,3.08,31,180.77Z"/>
    <g>
      <path class="b67995fd-8030-4f94-98cd-52f29b67e063" d="M1757.42,1209.87a147.42,147.42,0,0,1-198.63,61.77c30.06-8,60.08-16.36,89.82-25.62,1.82-.56,3.93-1.36,4.63-3.13a7.11,7.11,0,0,0,.33-2.2c.09-4.07-4.21-31.19-11.83-36.61-8.94-6.36-23.57-2.53-34.32.79-33.86,10.38-39.75,5.56-59.62-3.55-2.62-1.22-5.8-.7-8.61,0a14,14,0,0,0-5.7,2.48c-9.3-3.36-16.08-6.31-16.08-6.31l26.32-8.09-24.17-149.11a147.36,147.36,0,0,1,237.86,169.54Z"/>
      <path class="ffd9bd00-e027-457c-a50a-057adb784575" d="M1665.38,1191.07q-7.52,14.23-26.16,17.4-17.13,2.77-35.71-4.67l-8.1,15.35-16.59-8.76,8.11-15.35q-17.4-11.55-24.91-27.58t-.29-29.72l1.17-2.22,17.86,9.43q-5.87,11.1-.23,23.29t20.68,20.15q14.79,7.81,27.69,5.64t18.27-12.35q6.45-12.2-2.19-25.51-5-7.85-18.38-18.93-17.4-14.64-24.07-25.49-10.52-17.14-2.22-32.86,6.75-12.77,21.89-16.11t32.72,3.56L1663,1051l16.58,8.76-8.1,15.34q17.58,11.21,24.08,26.68t-.53,28.81l-17.86-9.43q5.46-10.35,0-21t-19-17.83q-12.77-6.73-23.89-4.81a21.84,21.84,0,0,0-16.41,11.91q-5.28,10,1.59,20.47,4.52,6.89,17.5,17.52,17.74,14.58,25.46,27.16Q1674.36,1174.06,1665.38,1191.07Z"/>
    </g>
    <path class="bced6dd1-1b7a-4f27-af59-49ae06808352" d="M940.17,166.84V318.61c0,7.58-5.7,13.8-12.76,13.8h-7.86v917.3c0,24.32-17.86,44-39.88,44h-572c-22,0-39.88-19.73-39.88-44V64.48c0-24.36,17.86-44.09,39.88-44.09h572c22,0,39.88,19.73,39.88,44.09V153h7.86C934.47,153,940.17,159.21,940.17,166.84Z"/>
    <rect class="b25f3e9a-97b5-4faa-94b3-bf08d8a46fba" x="295.13" y="83.23" width="597.07" height="1158.01" rx="14.52"/>
    <rect class="a11eecec-93d9-43c3-94d8-346951decae0" x="501.66" y="51.77" width="167.48" height="7.01"/>
    <path class="b25f3e9a-97b5-4faa-94b3-bf08d8a46fba" d="M892.2,97.73v1129a14.53,14.53,0,0,1-14.54,14.54h-568a14.52,14.52,0,0,1-14.5-14.54V97.73a14.51,14.51,0,0,1,14.5-14.5h568A14.52,14.52,0,0,1,892.2,97.73Z"/>
    <g>
      <path class="b67995fd-8030-4f94-98cd-52f29b67e063" d="M892.2,1058.66v104a147,147,0,0,1-69.67,78.56H686.09c-.38-.19-.8-.42-1.17-.65A147.37,147.37,0,0,1,804.67,972.11c-.24.56-.52,1.17-.75,1.82-1.5,3.55-3.32,8.51-5.42,14.92-.47,1.4-.94,2.9-1.41,4.49a6.81,6.81,0,0,0-.33,1.12c-.79,2.66-1.63,5.52-2.47,8.56a2.78,2.78,0,0,0-.19.6c-.33,1.31-.7,2.72-1.08,4.12-2.47,9.35-5,20.43-7.48,33.43-1.07,5.61-2.1,11.55-3.13,17.91-1.85,11.41-3.76,22.94-4.72,34.46-.42,5-1.18,9.93-1.59,14.92-1.48,17.78-3.08,35.56-3.93,53.39-.24,5.07-.53,10.13-.7,15.2-.14,4.11-.28,8.32-.42,12.58l10.61.65,42.79,2.57,45.07-174.22A147.09,147.09,0,0,1,892.2,1058.66Z"/>
      <path class="ffd9bd00-e027-457c-a50a-057adb784575" d="M771.05,1189.63c.14-4.26.28-8.47.42-12.58.14-3.41.28-6.73.42-10,.09-1.73.19-3.46.28-5.15-.7.28-1.4.52-2.15.75q-16.2,5.13-28.85.56t-16.46-16.5l-19.22,6.08.75,2.38c3.09,9.87,10.24,16.74,21.37,20.67s23.52,4.49,37.13,1.63L770,1194l11.69-3.7Zm-36.57-142.15q14.6-4.62,26-1c7.62,2.39,12.62,7.34,15,14.78l6.92-2.2c1-6.36,2.06-12.3,3.13-17.91a37.25,37.25,0,0,0-10.94-6.59c-10.38-4.16-22.35-4.73-35.91-1.59l-5.24-16.56-17.86,5.66,5.24,16.55q-17.25,7.65-25.53,20.81t-3.88,26.89c3.6,11.31,11.87,18.47,25,21.51q12.4,2.88,35,.75c10.47-1.08,18.66-1.13,24.64-.14h.05c.09-1,.18-2.06.28-3.09.37-3.23.7-6.41,1-9.54.09-.79.18-1.54.28-2.29a146.76,146.76,0,0,0-26,.7c-11.13,1.17-19.41,1.22-24.79.14-8.18-1.64-13.42-6-15.71-13.23a22.14,22.14,0,0,1,3-20.06Q720.73,1051.84,734.48,1047.48Z"/>
      <path class="b67995fd-8030-4f94-98cd-52f29b67e063" d="M309.64,1241.25a14.52,14.52,0,0,1-14.5-14.54V1140c41-52.37,96.42-123.54,97.59-126.62l7-18.52a147,147,0,0,1,53.77,13.75c1.14.54-.07,21.26,0,23.33a501.11,501.11,0,0,0,11.65,91.93c1,5.86,2.62,11.6,4.12,17.35a553.93,553.93,0,0,0,30.11,86.41l3.7,4.76c.6.89,1.26,8.09,2,8.89Z"/>
      <path class="ffd9bd00-e027-457c-a50a-057adb784575" d="M453.56,1114.25c2.2-9.77-.19-19.07-7.06-27.91s-17-15.29-30.25-19.41L420,1050l-18.29-4.07-3.78,16.93c-12.54-1.36-23.34.37-32.5,5.23s-14.78,11.88-16.83,21.28c-2.62,11.59,1,22,10.8,31.14,6.17,5.8,16.18,11.88,29.92,18.24q15.85,7.14,22.73,13.41c7.9,7,10.84,15,8.83,24q-2.52,11.22-14.35,16.69c-7.9,3.7-17.3,4.3-28.2,1.87-11.08-2.48-19.49-7.11-25.25-14s-7.76-14.35-5.93-22.54l-19.74-4.35-.51,2.44q-3.36,15.08,8.09,28.57c7.67,9,18.09,15.66,31.33,20l-3.79,16.93,18.33,4.07,3.74-16.93q19.92,2.33,35.68-4.91,17.18-8,20.66-23.7c2.76-12.49-1.35-24-12.43-34.46q-10.81-10.11-31.75-19.5c-10.2-4.54-17.35-8.65-21.47-12.25-6.26-5.57-8.6-12-7-19.36A21.86,21.86,0,0,1,381,1079c6.78-3.18,14.91-3.74,24.26-1.63q14.94,3.3,23,12.15c5.38,5.94,7.25,12.68,5.56,20.3Z"/>
      <path class="b9498028-12ba-4008-9a30-7e33dfb49d09" d="M688.29,1239.66s-11.41,3.13-28.25,8.37l-147.57,43.62s-17.81-28.75-13.46-53.07c.65-3.69,2-6.12,3.69-7.62l.38,1.4c9,13.85,37.31,12.12,42.55,4.21,13.79-20.71,24.73-26.6,27.3-27.72a3.62,3.62,0,0,1,.56-.24s52.37,8.51,72.76-1C677.39,1193.09,688.29,1239.66,688.29,1239.66Z"/>
      <path class="bab9ed6f-ebdd-453a-9435-ba173230e707" d="M573.49,1208.61s-12.11,4.3-27.86,28c-5.24,7.91-33.58,9.64-42.55-4.21l-1.45-5.47,67.8-21.08-.57-3.32Z"/>
      <path class="a3173348-e334-437f-8f75-e11a66cdb4b4" d="M569.43,1205.81l-70,21.79c-3-4.28-4.27-9.48-6.15-14.28-2.1-5.35-4.31-10.65-6.33-16q-6-16-11-32.33a531.09,531.09,0,0,1-15.67-66.44c-5.17-30.64-8-61.81-6.63-92.89.12-2.73.27-5.46.52-8.18,0,0-15.48-22.16-35-53.63l-26.37,69.53c-1.17,3.08-56.63,74.25-97.59,126.62V1001.71C310.24,983,320.2,972.3,320.2,972.3s.34-71.28.52-80.71c.46-24.37,1.12-48.86,2.94-73.18.78-10,1.5-20.09,2.67-30.11.72-6.2,1.56-12.44,2.8-18.56a56.74,56.74,0,0,1,2.34-9.45c2.29-6.61,7.31-.69,14.67-1.62C387.65,732.72,377,729.34,377,729.34c88.26,26.46,118.82,19.17,118.82,19.17l3.55,22,32.45,217.38Z"/>
      <path class="ae18573b-22b2-4339-8721-aaaa83f5e789" d="M704.09,669.21s.51-3,1.45-8.33c.33-2,.75-4.3,1.21-6.92s1-5.79,1.59-9.07l-91.69-47.78-76.4-109.56-.61-.84s-1.92-2.85-4.54-6.17a60.85,60.85,0,0,0-7.24-8.05l-20.58-9.63-.79,2.85-4.4,15.48a1.05,1.05,0,0,1-.09.38l-1.68,6-2.48,8.79a1.87,1.87,0,0,1-.09.33s-1.73-1.45-4.54-3.84c-1.17-1-2.48-2.1-3.93-3.31-.75-.61-1.49-1.27-2.29-2-2.48-2.1-5.28-4.49-8.18-7-2.67-2.29-5.47-4.73-8.28-7.2-1.12-1-2.29-2.06-3.46-3a8.47,8.47,0,0,0-.75-.7l-4.11-3.7c-2.71-2.38-5.33-4.77-7.72-7-.46-.42-.93-.84-1.35-1.26-1.36-1.27-2.62-2.48-3.79-3.65-.79-.8-1.54-1.5-2.2-2.2-1.21-1.22-2.24-2.34-3-3.32a13.6,13.6,0,0,1-1.49-1.78,2,2,0,0,0-.14-.23,1.55,1.55,0,0,1-.24-.37c-.65-.94-.75-1.5-.28-1.64a14.8,14.8,0,0,1-5.37.47s-10.62,1.31-15,1.54c-12,.7-36,5.19-36,5.19-7.2,1.22-17.72,6.69-29.69,14.4,0,0,0,0,0,0-14.5,9.35-31.19,22.12-46.9,34.93-2.25,1.82-4.49,3.64-6.69,5.47q-2.52,2-4.91,4.07c-.75.6-1.54,1.26-2.29,1.87V704l6.17-4.31,3.32-2.24L340,673l.89-.6-41.05-80.52s15.29-9.07,31.61-19S367.9,550.53,384.12,540c-16.88,51.39-30.58,129-30.86,129.34-1.54,3.27-3,6.17-4.49,8.69,1.78.85,3.65,1.69,5.38,2.53,1.5.7,2.9,1.4,4.07,2h0c1.27.7,2.25,1.22,2.72,1.55,4.53,3.18,7.1,8.13,10.47,12.34.42.56.89,1.12,1.36,1.64l.18.18a21,21,0,0,0,3.79,3.23,51.8,51.8,0,0,0,5.28,2.76,22.61,22.61,0,0,1,2.11,1.12,17.84,17.84,0,0,1,1.49,1c1.45,1.12,2.67,3,1.55,4.44a4.6,4.6,0,0,1-1.92,1.08,23.11,23.11,0,0,1-8.88,1.17h-.14a22.83,22.83,0,0,1-10.29-3,6.64,6.64,0,0,1-.65-.33l9.3,13.24a18.76,18.76,0,0,1,2.38,6.31c10.43,3.41,19.83,6.22,26.33,7.85,51.76,13,77.85,12.91,87.67,12a5.45,5.45,0,0,0,.94-.09,19.37,19.37,0,0,0,2.52-.33h.1a6,6,0,0,0,.84-.14.47.47,0,0,1,.23,0,.69.69,0,0,1,.19,0l8.65-42.74s20.34-52.6,31.47-108.85l44.74,48.81c6.78,7.39,75.19,42.09,107.27,58.12a49.52,49.52,0,0,1,5.09-11.73c1.36-2.2,3.75-5.71,6.5-9.59,1.64-2.24,3.42-4.63,5.15-7,1.59-2.2,3.18-4.35,4.67-6.31Z"/>
      <path class="bab9ed6f-ebdd-453a-9435-ba173230e707" d="M387.21,710.82a6,6,0,0,1-1.92,1.08c-8.28,3.93-20-2.11-20-2.11l9.3,13.24a18.76,18.76,0,0,1,2.38,6.31c.85,4.25.24,8.84-3.55,10.61,0,0-34.74,20-37.64,18.66-1-.42-5-2.76-6-3.46-6.64-4.63-13.84-12.06-17.72-19.87-2.95-5.94-5.71-24.41-7-33.95-.23-1.59-.37-2.9-.47-3.88L340,673l.89,1.5s17.49,7.76,20.11,9.59c6.59,4.63,9,12.95,15.8,17.39,2.81,1.82,6.22,2.85,8.88,4.91C387.11,707.5,388.33,709.42,387.21,710.82Z"/>
      <path class="bab9ed6f-ebdd-453a-9435-ba173230e707" d="M456,397.31c-3.18-5.66-9.17-13.8-20-25.35a11.75,11.75,0,0,1-1.31-1.73l0,0a26.34,26.34,0,0,1-1.92-4.3,6.14,6.14,0,0,1-.23-.89A13.12,13.12,0,0,1,435,354.48c4.07-5.15,12.67-6.6,17.21-1.92a43.24,43.24,0,0,1,4.3,6.41C456.88,369,455.8,382.91,456,397.31Z"/>
      <path class="bab9ed6f-ebdd-453a-9435-ba173230e707" d="M506.58,465.71c.56,1.87-8.83,31-8.83,31S436.91,445.84,442,444.44c8.28-2.29,13.7-22.35,15.53-27.35.37,2.47.79,5,1.35,7.38,4.44,19.27,26.37,25.72,45.22,27.64C503.31,459.73,503.5,465.71,506.58,465.71Z"/>
      <path class="bab9ed6f-ebdd-453a-9435-ba173230e707" d="M569.38,382c-1.4,4.16-8.6,9-11.69,11.45-11.41,9.07-19.41,3.42-32.5,2.95-10.05-.33-24.27,2.85-34.32,2.2a26.12,26.12,0,0,1-20.95-13.7c-3.13-5.9-1.87-15.71-1.91-22.07,0-.56-.28-3.09-.38-3.79V359c-1.59-16.18,8.42-23.52,16.32-28,12.25-6.88,28.2-3.42,40.87-1.08a59.14,59.14,0,0,0,23-.14A168.61,168.61,0,0,0,566,325.11a3.24,3.24,0,0,1,.18.66,120.11,120.11,0,0,1,2.9,13.74c.89,5.76,1.5,12,1.87,18.71A99.7,99.7,0,0,1,569.38,382Z"/>
      <path class="f0e51fcf-9e7b-415f-bdf0-e9b9b223edfb" d="M546.41,390.23A14.38,14.38,0,0,0,559,406.18a10.19,10.19,0,0,0,2.27.06,88.1,88.1,0,0,0,8.33-25.56,13.81,13.81,0,0,0-7.25-3A14.34,14.34,0,0,0,546.41,390.23Z"/>
      <path class="a11eecec-93d9-43c3-94d8-346951decae0" d="M529.69,391.09c-2.9,0-5.79-.6-7.83-2.4a3.51,3.51,0,1,1,4.64-5.26c.82.72,4.32,1.09,9.57-.34l-3.21-26.31a3.51,3.51,0,0,1,7-.85l3.26,26.74a6.67,6.67,0,0,1-5,7.15A32.7,32.7,0,0,1,529.69,391.09Z"/>
      <path class="a11eecec-93d9-43c3-94d8-346951decae0" d="M551,370.5a3.36,3.36,0,0,1-3.48-3.81l.6-5.19a3.47,3.47,0,0,1,3.9-3.07,3.51,3.51,0,0,1,3.07,3.89s-.61,5.17-.61,5.19A3.28,3.28,0,0,1,551,370.5Z"/>
      <path class="a11eecec-93d9-43c3-94d8-346951decae0" d="M507.52,367.54a3.36,3.36,0,0,1-3.49-3.8l.61-5.19a3.51,3.51,0,0,1,7,.82l-.61,5.18A3.28,3.28,0,0,1,507.52,367.54Z"/>
      <path class="f0e51fcf-9e7b-415f-bdf0-e9b9b223edfb" d="M481.54,386.35a14.37,14.37,0,1,0,15.95-12.6A14.38,14.38,0,0,0,481.54,386.35Z"/>
      <path class="a11eecec-93d9-43c3-94d8-346951decae0" d="M501.19,347a3.51,3.51,0,0,1-.43-7,114.28,114.28,0,0,1,15.6-.85,4,4,0,0,1,3.56,2.5,3.65,3.65,0,0,1-1.23,4,3.72,3.72,0,0,1-3.53.48C510.61,346.11,501.33,347,501.19,347Z"/>
      <path class="a11eecec-93d9-43c3-94d8-346951decae0" d="M558.51,345.7c-1.92,0-4-1-5.9-1.36a32.33,32.33,0,0,0-6.36-.69,3.56,3.56,0,0,1-3.59-3.42,3.51,3.51,0,0,1,3.42-3.59c4.71-.13,9.29,1.09,13.32,2.16a3.52,3.52,0,0,1,2.5,4.29A3.59,3.59,0,0,1,558.51,345.7Z"/>
      <g>
        <path class="a8e4ff1e-bc25-4aea-afff-5917cbc1b6e6" d="M456.53,458.89c2.35,2.39,4.71,4.77,7.14,7H363c1.61-1.27,3.22-2.58,4.83-3.88,1.35-1.08,2.66-2.16,4.05-3.14Z"/>
        <path class="a8e4ff1e-bc25-4aea-afff-5917cbc1b6e6" d="M479.55,480.54a60.64,60.64,0,0,1,8,7H331.21l9.26-7Z"/>
        <path class="a8e4ff1e-bc25-4aea-afff-5917cbc1b6e6" d="M542.84,487.56H499.91c.89-2.3,1.68-4.63,2.43-7h35.07C539.33,482.79,541.1,485.17,542.84,487.56Z"/>
        <path class="a8e4ff1e-bc25-4aea-afff-5917cbc1b6e6" d="M551.53,509.25h-247l9.45-7H547.15C548.61,504.58,550,506.91,551.53,509.25Z"/>
        <path class="a8e4ff1e-bc25-4aea-afff-5917cbc1b6e6" d="M565.93,530.9H293.41c-.32-2.34-.6-4.68-.92-7H561.22C562.77,526.22,564.33,528.61,565.93,530.9Z"/>
        <path class="a8e4ff1e-bc25-4aea-afff-5917cbc1b6e6" d="M580.87,552.55H383.71l2.86-7H577.26C578.78,547.87,579.39,550.16,580.87,552.55Z"/>
        <path class="a8e4ff1e-bc25-4aea-afff-5917cbc1b6e6" d="M333,567.38l-11.06,7h-26.5c0-1.59-.09-3.22-.18-4.86,0-.7-.1-1.45-.14-2.15Z"/>
        <path class="a8e4ff1e-bc25-4aea-afff-5917cbc1b6e6" d="M595.78,574.2l-217.57,0,1.48-7H591.14A52,52,0,0,0,595.78,574.2Z"/>
        <path class="a8e4ff1e-bc25-4aea-afff-5917cbc1b6e6" d="M611.92,595.89H372.18l1.55-7H607.24a43.49,43.49,0,0,0,4,6.27C611.47,595.38,611.69,595.66,611.92,595.89Z"/>
        <path class="a8e4ff1e-bc25-4aea-afff-5917cbc1b6e6" d="M308.7,617.53l-13.57-.08s-.14-4.29,0-6.62l10.05-.23Z"/>
        <path class="a8e4ff1e-bc25-4aea-afff-5917cbc1b6e6" d="M368.65,610.53H528.81c-.22,2.38-.49,4.68-.89,7H367.15Z"/>
        <path class="a8e4ff1e-bc25-4aea-afff-5917cbc1b6e6" d="M646.4,617.54H559.64c-1.6-1.82-3.21-3.64-4.81-5.47l-1.33-1.54h81.24A105.91,105.91,0,0,0,646.4,617.54Z"/>
        <path class="a8e4ff1e-bc25-4aea-afff-5917cbc1b6e6" d="M295.13,639.47c.17-.71,0-7.21,0-7.21l21.46,0,2.94,7Z"/>
        <path class="a8e4ff1e-bc25-4aea-afff-5917cbc1b6e6" d="M364.05,632.23H523.57c-.52,2.38-1.18,4.72-1.92,7H362.56Z"/>
        <path class="a8e4ff1e-bc25-4aea-afff-5917cbc1b6e6" d="M689.29,639.37l-110.87-.13c-1.87-2.25-3.71-4.63-5.52-7H678.09Z"/>
        <path class="a8e4ff1e-bc25-4aea-afff-5917cbc1b6e6" d="M331.44,660.89H294.31q.07-3.51.43-7h33.52Z"/>
        <path class="a8e4ff1e-bc25-4aea-afff-5917cbc1b6e6" d="M359.75,653.87H518c-.39,1.27-.79,2.53-1.19,3.79-.3,1.08-.61,2.15-.83,3.23H358.25Z"/>
        <path class="a8e4ff1e-bc25-4aea-afff-5917cbc1b6e6" d="M709.62,657.38a3.48,3.48,0,0,1-2.52,3.41,4.17,4.17,0,0,1-.77.1H611.5a108.49,108.49,0,0,1-9.63-7H706.33a3.19,3.19,0,0,1,1.84.61A3.46,3.46,0,0,1,709.62,657.38Z"/>
        <path class="a8e4ff1e-bc25-4aea-afff-5917cbc1b6e6" d="M354,675.52l157.31.18c-.23,1.31-2.53,5.81-2.76,6.84H354.18C354.14,681,354.05,676.32,354,675.52Z"/>
        <path class="a8e4ff1e-bc25-4aea-afff-5917cbc1b6e6" d="M709.62,679a3.36,3.36,0,0,1-3.25,3.51h-53c-.46-.33-.88-.61-1.35-.89a115.1,115.1,0,0,0-11.15-6.13h65.52A3.38,3.38,0,0,1,709.62,679Z"/>
        <path class="a8e4ff1e-bc25-4aea-afff-5917cbc1b6e6" d="M372.77,697.22H503.34c-.54,2.34-1.08,4.68-1.64,7H375.62C375.65,703,372.79,699.18,372.77,697.22Z"/>
        <path class="a8e4ff1e-bc25-4aea-afff-5917cbc1b6e6" d="M498.06,718.87c-.44,2.34-.87,4.67-1.23,7H379.67l-4.05-7Z"/>
      </g>
    </g>
    <path class="b67995fd-8030-4f94-98cd-52f29b67e063" d="M562.37,281.72c-50.83-76.59-130.6-20.11-126.35-.61-14.35,5.8-44.42,27.68-23,80.8,5.38,13.33,22.17,38.39,43.53,46.34a114.36,114.36,0,0,0,2.34,16.22c5.47,23.66,37.27,28,57.37,28.39,28.2.56,48.17-24.13,50.74-50.46.56-5.93,1.91-14.58,2.57-20.8-1,4.25-8.65,9.35-11.83,11.87-11.41,9.07-19.41,3.42-32.5,2.95-10.05-.33-24.27,2.85-34.32,2.2a26.12,26.12,0,0,1-20.95-13.7c-3.13-5.9-1.87-15.71-1.91-22.07,0-.56-.28-3.09-.38-3.79V359c-1.59-16.18,8.42-23.52,16.32-28,12.25-6.88,28.2-3.42,40.87-1.08a59.14,59.14,0,0,0,23-.14,172.18,172.18,0,0,0,18.7-4.81c-.37.7,6.08,33.94,4.58,48.34a19.77,19.77,0,0,0,3.37-4.49,36.57,36.57,0,0,0,3.46-10.56,178.37,178.37,0,0,0,3.65-40.45c-.33.19,2.38-2.24,3.6-3.83C592.29,304.59,595.84,277,562.37,281.72ZM456,397.31c-3.18-5.66-9.17-13.8-20-25.35-4.44-4.76-5.09-12.34-1.07-17.48s12.67-6.6,17.21-1.92a43.24,43.24,0,0,1,4.3,6.41C456.88,369,455.8,382.91,456,397.31Z"/>
    <path class="a11eecec-93d9-43c3-94d8-346951decae0" d="M520.82,416.92a20.8,20.8,0,0,1-5.61-.77,18,18,0,0,1-9.61-6.51,5.68,5.68,0,0,1-1.31-3.24,3.46,3.46,0,0,1,5.23-2.91,10.72,10.72,0,0,1,2.37,2.64c3.72,4.51,10.22,4.4,15.25,2.55,2.79-1,3.57-2.86,5.52-4.8,2.41-2.4,6,.34,5.6,3.31a7.42,7.42,0,0,1-2.38,4.11,19.71,19.71,0,0,1-9,4.85A23.94,23.94,0,0,1,520.82,416.92Z"/>
    <path class="b163888a-19a3-4890-aa29-a8d937f72c2e" d="M1118.28,1267.85l-59.29,9.82c-7.49,1.22-15-1.73-20.62-7.48-5.8-5.89-13.19-10.56-20.58-14.21l1.87,28.19-17.58,2.95-11-41.24c-16.42-7-6-38.57,2.15-48.44,6.69,9.44,26.84,20.15,34.88,22.44,30.12,8.65,34.93.8,27.36-10,17.77,17.68,35.21,24.46,47.08,26.93,9.59,2.06,17.21,10.15,19.6,20.48l.65,3A6,6,0,0,1,1118.28,1267.85Z"/>
    <path class="bab9ed6f-ebdd-453a-9435-ba173230e707" d="M1028.12,1219.88c-8.79-2.52-32.07-15.1-36.42-25.06l46.24-14.31c4.59,10.85,9.64,19.92,15.25,26.46C1063.71,1219.13,1060.9,1229.33,1028.12,1219.88Z"/>
    <path class="b163888a-19a3-4890-aa29-a8d937f72c2e" d="M883.5,1282.58l0,3.09a6,6,0,0,1-6.17,6.26l-59.94-4.25c-7.58-.51-14.17-5.19-18.33-12.06-4.26-7.06-10.38-13.33-16.69-18.61l-4.73,27.86-17.76-1.26L758.7,1241a33.55,33.55,0,0,1-2.85-2.34c-6.64-13.23,5.38-36.1,16.23-44.33,4.3,10.76,21.41,25.91,28.71,30,27.58,15.57,33.9,8.7,28.75-3.74,13.19,21.6,28.67,32.31,39.7,37.6C878,1262.38,883.6,1272,883.5,1282.58Z"/>
    <path class="bab9ed6f-ebdd-453a-9435-ba173230e707" d="M828.19,1217.59c7.34,14.26,2.29,23.52-27.4,6.73-8.42-4.77-30-24.26-29.74-34.69l50.26,3C822.48,1202.3,824.68,1210.76,828.19,1217.59Z"/>
    <path class="b9498028-12ba-4008-9a30-7e33dfb49d09" d="M1037.94,1180.51l-54.94,17c-52.09-138.73-46.43-211.25-46.43-211.25-.28-.43-18.33-36.06-39.56-78.09L881.49,972.3l-57,220.55-53.4-3.22c4.81-165.9,36.24-223.18,36.24-223.18-.43.14,6-92.77-7-171.37-2.71-16.36-28.24-52.56-2-89l.24.09a.38.38,0,0,0,.09-.18c5.24,9.67,55.08,21.69,78.18,25.39,48.35,7.66,67.61,3.32,74.25.7l8.33,44.56,50.12,211.25Z"/>
    <path class="bab9ed6f-ebdd-453a-9435-ba173230e707" d="M1126.41,711.52c-.51,1.55-8.18,5.9-11.13,6.5-4,.8-19.64.19-19.64.19,5.48,4.91,30.68,46.15,21.65,52.88-13.7,9.45-30.2,14.73-38.39,4.26-13.6-13.33-31.79-37.13-35.44-53.77l38.34-30c4.77.52,9.36,1.31,11.27,2.11,2.71,1.12,21,14.21,29.23,12.9C1126.83,705.87,1128.05,706.8,1126.41,711.52Z"/>
    <path class="bb0b8dd6-30b7-493a-9bf4-dfa234e91903" d="M1025.27,622.87l-8.6-9.54L1003,553.11c12.39-17.63,19.87-52.79-26.38-115.12-2.33-3.18-6.54-4.4-10.42-4.4h-5.15s17.16,59.34-52.83-2.38c0,0,.65-1.92,1.54-5.15a80,80,0,0,0-8.6,3.09c-7.58,0-20.53.19-31.57,4.44-53.86,20.72-133.91,76.17-136.25,85.24-10.85,42.41-29.27,150.38-29.27,150.38h50.22l21-125c2-1.78,52.61-25.63,80.33-37.74,9.17,109.7-4.16,117.74-27.21,147.43-9.26,11.88-27.07,41-30.07,49.61-3.5,10,53.36,23.89,78.51,27.92,60.65,9.63,75.56.32,77.11-.8-.24-2.29,17.67-89.35,17.67-89.35l69.58,82.1L1085,689.08ZM876.72,491.67a.55.55,0,0,1-.33-.14l.57-.38Z"/>
    <path class="bab9ed6f-ebdd-453a-9435-ba173230e707" d="M771.33,693.19l-18.05,44c-1.64,4-5.56,6.27-8.74,5l-6.88-2.8a9.41,9.41,0,0,1-2.1-1.27c-3.42,4.3-8.89,8.14-13.33,5.71l-33.76-12.67c-5.56-3.09-3.93-25.07,4.58-39,2.9-4.72,10.53-15.15,16.32-22.91h44.94l1.07-6.41,1.36,5.94c1.22,1.78,2.24,6.27,3,11.36a10.41,10.41,0,0,1,2,.56l6.87,2.81C771.75,684.78,773,689.13,771.33,693.19Z"/>
    <path class="a11eecec-93d9-43c3-94d8-346951decae0" d="M949.82,561.24h-.18a77,77,0,0,1-33.93-10.91,2.33,2.33,0,0,1-.79-3.21,2.36,2.36,0,0,1,3.22-.79A72,72,0,0,0,950,556.56a2.34,2.34,0,0,1-.17,4.68Z"/>
    <path class="f2020db7-e5a4-45a3-8c62-027abf324c1b" d="M1542.33,364.06l3.22,10-2.9,1c-6.12,2.2-9.53,8.88-8.36,15.76-1,.45-7.5-3-15,5.89L1514.88,383l-9.21,6.83c-13.09,9.72-31.24,7.34-40.59-5.24l-.37-.47c-9.35-12.62-6.36-30.67,6.73-40.39l33.39-24.79,80.56-122.18,93.94,126.49Z"/>
    <path class="bced6dd1-1b7a-4f27-af59-49ae06808352" d="M1568.46,472.35l-7-2.1-23.52-7.11-7-2.1-12.67-3.84-6.55,24.46-1.87,7-2.38,9-7,26.28-5,18.75-.38,1.4-1.26-1.4c-6-6.62-9.35-15.2-15.21-22-7.06-8.25-13.87-16.72-20.19-25.56-3.05-4.42-18.6-21-23.45-25.09-4.18-3.5-8.71-7.59-14.19-8.8-.84-.19-1.72-.37-2.71-.52-2.41-.34-4.82-.79-7.24-1.11a19.13,19.13,0,0,0-5.6-.07c1.12,4.15,4.3,8.4,6.3,12.27q6.18,11.94,12.34,23.89c2.05,4,4,8.06,5.89,12.11a148.79,148.79,0,0,1,7.48,17.49C1456.06,581.44,1464,755,1464,755l-14.22,2s-42.5-191.48-53.44-220.37-67.66-77.39-67.66-77.39-3.51-.47-4.35-.09c-4.83,2.1-9.19,5.12-13.94,7.38-5.45,2.6-11.12,4.71-16.59,7.25a68.27,68.27,0,0,0-7,3.6c-4.79,2.9-16.46,22.59-17.49,28.53-1.07,2-2.19,4.11-3.27,6.26q-7.53,15.06-14.31,30.49-1.53,3.44-3.08,7c-3.32,7.72-6.64,15.67-9.87,23.52-1,2.34-1.92,4.68-2.85,7-1.08,2.66-2.1,5.28-3.13,7.85-3,7.53-5.94,15.12-8.89,22.68-6.79,17.77-14.86,35.64-19.87,54a42.1,42.1,0,0,0-1.36,7,39.59,39.59,0,0,0,5,23.52,41.75,41.75,0,0,0,5,7c3.73,4.19,8.25,7.13,13,9.91l7,4,23.47,13.56,5.14,3,25.39,14.63s7,4.07,7.06,4.12c-.37,1.63-.79,3.22-1.17,4.77-.56,2.29-6.26,24.64-7.52,30.48a56.19,56.19,0,0,0-1.31,7,6.08,6.08,0,0,0-.14,1s28.57,1.78,37.87,2.1c2.25.1,35.12.52,37.5.52,7.58,0,15.48-.19,23.52-.47,2.34-.05,22.63-1.07,30.53-1.73,2.34-.19,12.3-1.12,15-1.4,5.19-.56,10.38-1.22,15.52-2,.84-.14,2.76-7.24,2.76-7.24l4.16-21.28L1454,757l12.38-1.41,2.06,8.81,1.5,9.5,8,11.29c1.08-.28,3.25-1.15,4.94-1.66,0,0-4.47-36.3-5.22-38.22,0,0-3.41-79.68-3.37-80.56.38-7,1.13-45.88.94-54,0-1.92,0-3.83-.1-5.8l1.78.84,10.71,5,12.81,5.94.89.42a32.3,32.3,0,0,0,6.13,2.15,31.45,31.45,0,0,0,23.47-3.6,31.08,31.08,0,0,0,6.26-4.86s.75-2.44.75-2.44l1.45-4.62,7.25-23.52,2.2-7,7.24-23.52,2.2-7,3.18-10.33,4.07-13.14,2.15-7,.79-2.48,6.5-21.08,2-6.22,2.1-6.88ZM1300.82,685.76l-7-3.93-7-3.93-10.89-6.12-4.16-2.34s.84-1.68,2.38-4.67c2.48-4.91,6.73-13.33,11.83-23.52.28-.57.56-1.17.84-1.73.89-1.73,1.73-3.46,2.62-5.29,1.45-2.85,2.9-5.8,4.4-8.84,2.33-4.76,4.77-9.67,7.15-14.63h0v0c1.12-2.34,2.24-4.63,3.36-7C1304.79,602.9,1300.77,681.93,1300.82,685.76Z"/>
    <path class="bab9ed6f-ebdd-453a-9435-ba173230e707" d="M1415.38,766.79l-18.28,32.78c-4.07,5.33-27.22,2.62-40.82-6.59-5.38-3.6-16.28-17.21-22.59-25.39a93.55,93.55,0,0,0,3.37-10.15,119.92,119.92,0,0,1,8.51-21c2.34-4.58,5-9.07,6.82-13.84,3.93-.09,18.1-.28,22.92.24,8.46.88,15,7.1,23.47,7.76,3.51.23,7.2-.56,10.71,0,1.91.28,4,1.4,3.69,3.18a4.91,4.91,0,0,1-1.22,1.91,26.14,26.14,0,0,1-19.49,8L1407.8,751C1413,753.84,1419.35,761.41,1415.38,766.79Z"/>
    <path class="bab9ed6f-ebdd-453a-9435-ba173230e707" d="M1571.79,427.84c-5.57-14.73-17.31-49-17.31-49-1.35-3.88-5.28-6-8.79-4.82l-3,1.08c-6.12,2.2-9.53,8.88-8.36,15.76-.94.42-1.59.65-1.69.42-3.37-1.4-7.43,0-11.17,5.33-.61-2.11-16.6,40.54-3.18,57.14,1.63,2,4.49,4,7.85,5.89.05,0,.05.05.1.05l4.72,1.4,7,2.1,23.52,7.11,1.54.47C1567.39,464.41,1580.48,450.89,1571.79,427.84Z"/>
    <path class="f2020db7-e5a4-45a3-8c62-027abf324c1b" d="M1558.51,440.23a15.87,15.87,0,0,1-14.69-11l-5.94-16.78c-2.33,4.16-5.82,6.55-7.13,8.42,0,.42-.09,5.24,0,7.25l3.67,13.67c2.19,6.78,13,12,19.41,10,3.37-1.13,7.77-5.42,9.17-8.5.37-.75-2.2-2.51-2-3.3A11.19,11.19,0,0,1,1558.51,440.23Z"/>
    <polygon class="a8e4ff1e-bc25-4aea-afff-5917cbc1b6e6" points="295.13 682.88 318.93 682.88 329.88 675.52 295.13 675.52 295.13 682.88"/>
    <polygon class="a8e4ff1e-bc25-4aea-afff-5917cbc1b6e6" points="295.13 552.55 357.71 552.55 368.54 545.54 295.13 545.54 295.13 552.55"/>
    <g>
      <path class="b9498028-12ba-4008-9a30-7e33dfb49d09" d="M1006.38,303.65c-2.38,4.44-9,7.62-13.51,9.87-11.69,5.89-28.85-.42-41.9-1.36-29.73-2.15-44.56,25.67-44.56,25.67-4.25-12-16.5-13.65-22.53-8.56-3.14,2.67-4.59,7.16-2.3,13a65.27,65.27,0,0,0,2.86,6.5c4.86,9.63,8.27,10.15,12.95,29.51a103.63,103.63,0,0,1-12.58-10c-.09,7.15-.89,14.26-3.55,20.9-5.75,14.12-19.83,23.94-34.93,27.54s-31.1,1.55-46-2.76c13.46-7.29,26.65-18.28,28.66-33.2,1.73-12.9-4.25-26.46-7-38.94-2.43-11.09-4.35-22.36-4.63-33.72-.47-21.88,6.4-44,28.52-53.3a48.81,48.81,0,0,1,24.48-3.38,45.19,45.19,0,0,1,12.06,3.11c1.62.67,3.67,2.3,5.35,2,1.45-.24,3.89-2.77,5.23-3.58,15.2-9.2,33.51-10.35,50.65-7.17,28.1,5.19,38.06,20.76,40.54,21.65C997.17,272.14,1014.19,289.11,1006.38,303.65Z"/>
      <path class="bab9ed6f-ebdd-453a-9435-ba173230e707" d="M1008.25,339.33a148.43,148.43,0,0,1-2.19,19.17,132.42,132.42,0,0,1-4.87,18.7c-7.57,21.51-20.9,37.36-40.44,39.51l.32,16.88s17.16,59.34-52.83-2.38c0,0,5.65-15.9,5.89-33.15a99.14,99.14,0,0,1-17.58-20.34l.84.56c-4.68-19.36-8.09-19.88-12.95-29.51v0a60.37,60.37,0,0,1-2.86-6.46c-2.29-5.84-.84-10.33,2.3-13,6-5.09,18.28-3.41,22.53,8.56,0,0,14.83-27.82,44.56-25.67,13,.94,30.21,7.25,41.9,1.36,4.49-2.25,11.13-5.43,13.51-9.87a0,0,0,0,1,0,0C1008.58,313.56,1009.05,325.49,1008.25,339.33Z"/>
      <path class="a11eecec-93d9-43c3-94d8-346951decae0" d="M967.89,394.08c-4.53,0-9.08-1.17-12.21-3.36-.42-.29-.81-.6-1.2-.91a3.73,3.73,0,0,1-.78-5.07,3.32,3.32,0,0,1,4.74-.74l.42.33c.26.21.54.43.84.64,3.11,2.17,9.5,2.74,13.69,1.21a10.86,10.86,0,0,0,3.92-2.4,3.51,3.51,0,1,1,4.92,5,18.24,18.24,0,0,1-6.43,4A23.24,23.24,0,0,1,967.89,394.08Z"/>
      <path class="a11eecec-93d9-43c3-94d8-346951decae0" d="M915.7,295.77a2.34,2.34,0,0,1-1.6-4c5-4.72,11.46-7.41,19.65-8.22a2.37,2.37,0,0,1,2.55,2.1,2.33,2.33,0,0,1-2.09,2.55c-7.12.71-12.66,3-16.91,7A2.35,2.35,0,0,1,915.7,295.77Z"/>
      <path class="a11eecec-93d9-43c3-94d8-346951decae0" d="M837.15,406a2.45,2.45,0,0,1-2.41-2.35,2.34,2.34,0,0,1,2.34-2.33.06.06,0,0,0,.07,0c14.52,0,23.31-12.22,27.27-19.51a2.34,2.34,0,1,1,4.11,2.23C864.08,392.21,854.1,406,837.15,406Z"/>
      <path class="f0e51fcf-9e7b-415f-bdf0-e9b9b223edfb" d="M954.4,369.75a14.29,14.29,0,1,1-14.29-14.29A14.29,14.29,0,0,1,954.4,369.75Z"/>
      <path class="a11eecec-93d9-43c3-94d8-346951decae0" d="M898.19,352.36a2.35,2.35,0,0,1-1.73-.77c-3.11-3.43-6.26-8.5-6.26-12.08a2.34,2.34,0,0,1,4.68,0c0,1.86,2.26,5.87,5,8.94a2.34,2.34,0,0,1-1.74,3.91Z"/>
      <path class="a11eecec-93d9-43c3-94d8-346951decae0" d="M995.72,349.75a3.5,3.5,0,0,1-3.5-3.5v-4.44a3.51,3.51,0,0,1,7,0v4.44A3.51,3.51,0,0,1,995.72,349.75Z"/>
      <path class="a11eecec-93d9-43c3-94d8-346951decae0" d="M946.65,352.29a3.51,3.51,0,0,1-3.51-3.5V344.7a3.51,3.51,0,0,1,7,0v4.09A3.5,3.5,0,0,1,946.65,352.29Z"/>
      <path class="f0e51fcf-9e7b-415f-bdf0-e9b9b223edfb" d="M1003.28,356.81c-.2,1.09-.43,2.19-.66,3.28a130.69,130.69,0,0,1-5.24,18.5c-.68,1.86-1.4,3.67-2.15,5.39-6.05-1.47-10.44-7.49-10.16-14.47.32-7.91,6.49-14,13.76-13.74A11.66,11.66,0,0,1,1003.28,356.81Z"/>
    </g>
    <g>
      <path class="b163888a-19a3-4890-aa29-a8d937f72c2e" d="M849.2,730.32V1081c-2.34,9-4.68,18.1-7,27.12V728.73C844.47,729.3,846.81,729.81,849.2,730.32Z"/>
      <path class="b163888a-19a3-4890-aa29-a8d937f72c2e" d="M878.19,735.37v233.7q-3.51,13.54-7,27.22V734.35C873.51,734.72,875.85,735.09,878.19,735.37Z"/>
      <path class="b163888a-19a3-4890-aa29-a8d937f72c2e" d="M907.18,738.18v178.9c-2.86-6.6-5.29-12.49-7-16.79V737.76Q903.74,738,907.18,738.18Z"/>
      <path class="b163888a-19a3-4890-aa29-a8d937f72c2e" d="M936.17,738V975.71c-2.15-5.28-5.1-12.11-7-14.87V738.46Q932.73,738.33,936.17,738Z"/>
      <path class="b163888a-19a3-4890-aa29-a8d937f72c2e" d="M965.2,815.33v326.52c-2.43-8.19-4.72-16.42-7-24.65V782.93C960.53,793.68,962.87,804.44,965.2,815.33Z"/>
      <path class="b163888a-19a3-4890-aa29-a8d937f72c2e" d="M994.19,937.56v257.32c-2.75.65-5.37,1.17-7,1.54V910.63Q990.48,923.67,994.19,937.56Z"/>
      <path class="b163888a-19a3-4890-aa29-a8d937f72c2e" d="M1023.18,1105.65v79.65l-7,2.33V1059C1018,1072.55,1020.66,1089.9,1023.18,1105.65Z"/>
      <path class="b163888a-19a3-4890-aa29-a8d937f72c2e" d="M791.22,726.26V757C788.92,743.65,788.5,734.67,791.22,726.26Z"/>
      <path class="b163888a-19a3-4890-aa29-a8d937f72c2e" d="M791.22,1026.35v165.29c-2.39-.19-4.77-.33-7-.47V1079.24c1-11.93,2.11-23.76,3.51-35.4A114,114,0,0,1,791.22,1026.35Z"/>
      <path class="b163888a-19a3-4890-aa29-a8d937f72c2e" d="M820.21,722.75v469.8c-1.41.09-3.89,0-7-.24v-472C815.39,721.11,817.73,721.91,820.21,722.75Z"/>
    </g>
    <path class="a5946d9d-91a1-4d7c-9999-ca67a7bf6fe2" d="M1408.88,459.31v7.53c.84,1.49,1.68,3.18,2.62,4.91.7,1.35,1.45,2.71,2.2,4.11l2.19,4.26V460.29C1413.83,460,1411.5,459.64,1408.88,459.31Zm30.49,251.42v15h-23.48V702.31h21.56c-.52-2.29-1-4.63-1.59-7h-20V671.78h14.54c-.51-2.34-1.07-4.68-1.59-7h-12.95V641.25h7.44c-.56-2.34-1.12-4.68-1.64-7h-5.8V610.76h.19c-2.48-10.29-4.91-20.15-7.2-29.18v22.17h-23.8l0-23.52h23.43c-.61-2.44-1.21-4.73-1.78-7h-21.65l.05-23.52h15.29c-.75-2.62-1.45-5-2.1-7h-13.19l0-23.47h1.12c-2.43-3.42-5.14-6.88-8-10.34v3.32h-23.52V488.67H1360c-4.21-4.3-8.32-8.32-12.16-12v5h-23.47V459.17a57,57,0,0,0-6.83,3.6.31.31,0,0,1-.18.09v18.8h-23.52V473.8a68.27,68.27,0,0,0-7,3.6v4.26h-2.69a30.08,30.08,0,0,0-5.1,7h7.79v23.52H1266c-.89,1.73-1.78,3.56-2.71,5.38v.09c-.23.52-.51,1-.75,1.55h24.22v23.47h-23.52V526c-.23.46-.46,1-.7,1.45h-3.88c-.84,1.73-1.64,3.46-2.43,5.19v10h-4.58c-1,2.29-2,4.63-3,7h7.62v23.52h-17.49c-1,2.34-1.92,4.68-2.85,7h20.34v23.52h-23.47V588.08c-2.15,5.33-4.21,10.62-6.18,15.67-.28.74-.56,1.44-.84,2.19v28.29h-10.7c-.94,2.48-1.83,4.82-2.62,7h13.32v23.52h-19.26a3.28,3.28,0,0,0-3,2c-.14.51-.28,1-.37,1.54a3.47,3.47,0,0,0,3.32,3.51h19.26V695.3h-18.09a41.75,41.75,0,0,0,5,7h13v9.91l7,4V702.31h23.47v27.5l5.14,3h25.39v14.63l7,4.07V732.8h23.52v23.52h-23.52v-4.58c-.38,1.59-.75,3.08-1.13,4.58-.42,1.73-3.74,14.73-5.89,23.56v6.92h-1.63a56.19,56.19,0,0,0-1.31,7h33.48v3.08c2.24.1,4.58.14,7,.24v-3.32h30.49V792a52.89,52.89,0,0,1-5.38-5.15h-25.11V763.33h10.8a41,41,0,0,1,1.87-7h-12.67V732.8h25.81a48.6,48.6,0,0,0,3.18-7c-.09.29-.23.24-.37,0h-28.62V702.31h23.47v5.75c.7-1.26,3.84,15.67,5.15,17.72h1.87V702.31h23.52v16.83s6,8.84,6.49,4.54l.05-21.37h24V754.4c.19-.65,7,1.92,7,1.92V732.8h23.48v23.52h-28.15a10.2,10.2,0,0,1,.93.93,9.66,9.66,0,0,1,2,3,5.52,5.52,0,0,1,.19,3.13h25V786.8h-23.48V766a23.4,23.4,0,0,1-3.5,5.28c-.66.8-12.11,22.54-12.11,22.54h15.61s25.21-2.2,26-2.34l3.5-3.69.94-1V741.64C1444.56,733.64,1442.17,723,1439.37,710.73ZM1256.26,695.3h-23.47V671.78h23.47Zm0-30.53h-23.47V641.25h23.47Zm0-30.54h-23.47V610.76h23.47Zm37.55-145.56h23.52v23.52h-23.52Zm0,30.54h23.52v23.47h-23.52Zm0,30.48h23.52v23.52h-23.52Zm0,30.54h23.52v23.52h-23.52Zm-30.54-30.54h23.52v23.52h-23.52Zm0,30.54h23.52v23.52h-23.52Zm23.52,145.55h-23.52V702.31h23.52Zm0-30.48h-23.52V671.78h17.07c-2.29-2.71.05-2.39-3.51-3.23a17.15,17.15,0,0,1,.94-3.78h-14.5V641.25h23.52v-7h-23.52V610.76h23.52v23.47h7V610.76h23.52v23.47H1302c0,2.34-.1,4.68-.19,7h15.48v23.52h-15.76c0,.6,0,1.26,0,1.87,0,1.73.14,3.41.18,5.14h15.53V695.3h-23.52V680.24a42.54,42.54,0,0,1-7-3.41Zm7,30.48V702.31h23.52v23.47Zm0,61V763.33h23.52V786.8Zm54-91.5h-23.47V671.78h23.47Zm0-30.53h-23.47V641.25h23.47Zm0-30.54h-23.47V610.76h23.47Zm0-30.48h-23.47V580.23h23.47Zm0-30.54h-23.47V549.69h23.47Zm0-30.53h-23.47V519.21h23.47Zm0-30.49h-23.47V488.67h23.47Zm30.54,183.11h-23.52V671.78h23.52Zm0-30.53h-23.52V641.25h23.52Zm0-30.54h-23.52V610.76h23.52Zm0-30.48h-23.52V580.23h23.52Zm0-30.54h-23.52V549.69h23.52Zm0-30.53h-23.52V519.21h23.52Zm30.53,152.62h-24l0-23.52h23.94Zm0-30.53h-23.94l0-23.52h23.89Zm0-30.54H1385l0-23.47h23.8Zm51.48,61.07c.19,2.38.33,4.72.51,7h9v-7Zm2.06,30.48q.21,3.72.42,7h7.06v-7Zm112.5-244.12h-6.46v-9.31l-7-2.1v11.41h-23.52V463.14l-7-2.1v20.62H1511.7l-1.87,7h21.09v23.52h-23.47V497.65l-7,26.28v18.75h-23.52V518.36l-4.11-4.67-.24-.28-2.66-3v1.82h-23.52V488.63c-1.22-2.44-2.48-4.77-3.79-7h-25.9c1.21,2.29,2.38,4.63,3.64,7h19v23.52h-7.53s0,0,0,.1c1.13,2.47,2.16,4.77,3,6.92h4.45v13.18a328.25,328.25,0,0,1,7,33V549.69h23.52v23.52h-22.26c.38,2.29.7,4.63,1.08,7h21.18v23.52h-18.05c.28,2.33.56,4.67.79,7h17.26v23.47h-14.73l.7,7h14v23.52H1458c.24,2.33.43,4.67.61,7h16c-.18-4.26-.28-6.87-.28-7,.38-7,1.13-45.88.94-54,0-1.92,0-3.83-.1-5.8l1.78.84,10.71,5h12.81v5.94l.89.42a32.3,32.3,0,0,0,6.13,2.15v-8.51h23.47v4.91a31.08,31.08,0,0,0,6.26-4.86v0h.75V580.23h8.7l2.2-7h-10.9V549.69h18.14l1.13-3.6v-3.41h-19.27V519.21h23.52v13.14l4.07-13.14,2.94-9.5v-21h6.5v0l2-6.22v-.05A3.37,3.37,0,0,0,1574.92,481.66Zm-105,61h-23.52V519.21h23.52Zm30.53,61.07h-23.52V580.23h23.52Zm0-30.54h-23.52V549.69h23.52Zm30.49,30.54h-23.47V580.23h23.47Zm0-30.54h-23.47V549.69h23.47Zm0-30.53h-23.47V519.21h23.47Zm30.53-30.49h-23.52V488.67h23.52Z"/>
    <path class="b67995fd-8030-4f94-98cd-52f29b67e063" d="M1464,755l-14.22,2s-42.5-191.48-53.44-220.37-67.66-77.39-67.66-77.39l8.46-2.62c9.26,5.61,33.25,9.31,45,6.88,13.47-2.81,14.63-4.73,20.81-7.53h.09s28.24,51.76,34.13,69.25C1456.06,581.44,1464,755,1464,755Z"/>
    <path class="a660cd25-e0fc-4a5e-87da-1ceee78f55a5" d="M1438.2,334.88c-3.84,6.46-11.55,10.29-18.19,7.44-4.68-2-8-6.69-10.94-11.22a63.07,63.07,0,0,1-7.07-12.58c-10.8,3.6-23.23,3.88-34,4.86-17,1.55-34.51.61-50.12-6.92,11.17,9.17,14.73,20.72,19.21,29.65,4.21,8.41-2.43,17.81-7.71,13.93-5.85-4.25-11.46-5.94-16.88-3.41-12.58,7.1-.19,20,8,26.51,0,0,7.1,12.3.79,19,0,0-10.8,2.44-25.58-7.38-16-10.71-18.84-22.07-24-40.5s2.1-46.05,20.43-53.77c1.08-16,15.11-31.09,30.58-37.17,10.24-4.07,22.21-7.34,33.2-7.39,18.28-.19,29.69,2.24,29.69,2.24s5-4.81,9.73-5.7c13.93-2.57,24.59,5.7,30.77,14.45a18,18,0,0,1,2.89,7.2,31.81,31.81,0,0,1,.47,10.15,59,59,0,0,1,12,28.1C1442.54,320.11,1442,328.48,1438.2,334.88Z"/>
    <path class="bab9ed6f-ebdd-453a-9435-ba173230e707" d="M1399.9,427.7a40.1,40.1,0,0,1-5.56,1.73c3.22,12.67,7.43,26.56,8.69,26.56-6.22,2.8-7.34,4.72-20.85,7.53-13.7,2.85-44-2.67-48.3-9.82,1.4-.24,6.83-35.07,7-35.4a95.25,95.25,0,0,1-19.55-16.18c6.31-6.68-.79-19-.79-19-8.19-6.5-20.58-19.41-8-26.51,5.42-2.53,11-.84,16.88,3.41,5.28,3.88,11.92-5.52,7.71-13.93-4.48-8.93-8-20.48-19.21-29.65,15.61,7.53,33.15,8.47,50.12,6.92,15.71-1.45,35-1.31,47.51-12.44a41.32,41.32,0,0,0,4.91-5.23,174.34,174.34,0,0,1,10.33,23.05C1446.43,370.94,1432.54,415.12,1399.9,427.7Z"/>
    <path class="f0e51fcf-9e7b-415f-bdf0-e9b9b223edfb" d="M1417,367.24a14.41,14.41,0,0,0,16.84,11.57,9.81,9.81,0,0,0,2.18-.64,90.8,90.8,0,0,0,.23-27.28,13.75,13.75,0,0,0-7.84-.72A14.57,14.57,0,0,0,1417,367.24Z"/>
    <path class="a11eecec-93d9-43c3-94d8-346951decae0" d="M1414.38,347a3.51,3.51,0,0,1-3.44-2.86l-1-5.2a3.51,3.51,0,1,1,6.89-1.31l1,5.21a3.5,3.5,0,0,1-2.8,4.09A3,3,0,0,1,1414.38,347Z"/>
    <path class="a11eecec-93d9-43c3-94d8-346951decae0" d="M1398.65,377.79a9.12,9.12,0,0,1-4.25-1,3.51,3.51,0,0,1,3.27-6.21c1.19.64,4.71-.27,8.89-3.19L1394,339a3.51,3.51,0,0,1,6.41-2.85l12.57,28.3a7.1,7.1,0,0,1-2.4,8.7C1407.78,375.09,1403.11,377.79,1398.65,377.79Z"/>
    <path class="a11eecec-93d9-43c3-94d8-346951decae0" d="M1372,357.44a3.51,3.51,0,0,1-3.44-2.86l-1-5.2a3.51,3.51,0,1,1,6.89-1.31l1,5.21a3.51,3.51,0,0,1-2.79,4.1A3.68,3.68,0,0,1,1372,357.44Z"/>
    <path class="f0e51fcf-9e7b-415f-bdf0-e9b9b223edfb" d="M1354,383.37a14.4,14.4,0,0,0,16.84,11.57,14.58,14.58,0,0,0,11.41-17.08,14.39,14.39,0,0,0-16.84-11.56A14.57,14.57,0,0,0,1354,383.37Z"/>
    <path class="a11eecec-93d9-43c3-94d8-346951decae0" d="M1328.7,375.81a2.35,2.35,0,0,1-2.09-1.27c-1.19-2.35-5.69-4.12-7.18-4.55a2.34,2.34,0,0,1,1.31-4.49c.79.23,7.73,2.37,10,6.92a2.33,2.33,0,0,1-1,3.14A2.36,2.36,0,0,1,1328.7,375.81Z"/>
    <path class="a11eecec-93d9-43c3-94d8-346951decae0" d="M1375.08,290.23h-1.36a2.34,2.34,0,0,1-2.29-2.39,2.52,2.52,0,0,1,2.39-2.29c6.62.15,11.62-.8,14.94-2.8a2.34,2.34,0,1,1,2.42,4C1387.34,289.06,1381.93,290.23,1375.08,290.23Z"/>
    <path class="a11eecec-93d9-43c3-94d8-346951decae0" d="M1360.67,313.56h-.1c-10.47-.44-20.88-2.49-28.79-4.23a2.34,2.34,0,0,1,1-4.57c7.72,1.7,17.87,3.7,28,4.13a2.34,2.34,0,0,1-.09,4.67Z"/>
    <path class="a11eecec-93d9-43c3-94d8-346951decae0" d="M1371.58,313.38a2.34,2.34,0,0,1-.19-4.67q3.06-.24,6.1-.75a56.09,56.09,0,0,0,22.36-8.76c2.79-1.9,12.53-11.83,13.36-16.82a2.34,2.34,0,0,1,4.61.77c-1.2,7.24-12.65,18.09-15.34,19.91a60.9,60.9,0,0,1-24.22,9.52c-2.16.36-4.32.62-6.5.79Z"/>
    <path class="a11eecec-93d9-43c3-94d8-346951decae0" d="M1395,401.42a21.63,21.63,0,0,1-5.43-.65,8.27,8.27,0,0,0,3.18,3.46c2.58,1.49,6.17,1.4,10.71-.19,4.26-1.49,6.58,5.12,2.34,6.64a26.87,26.87,0,0,1-8.7,1.64,15.27,15.27,0,0,1-7.85-2c-4.4-2.58-7.2-7.25-8.42-13.89-.6-3.28,3.49-6.65,6.36-4.4,4.44,3.51,12,2.72,17.21.1,3.27-1.64,4.3-3.37,4.3-3.79,0-4.49,6.9-4.79,7-.23.1,3.88-2.85,7.62-8.18,10.28A28.56,28.56,0,0,1,1395,401.42Z"/>
    <path class="a11eecec-93d9-43c3-94d8-346951decae0" d="M1360.53,344.72a3.51,3.51,0,0,1-2.13-6.29c.84-.64,8.42-6.33,14.83-7.27a3.51,3.51,0,1,1,1,6.94c-3.91.57-9.82,4.55-11.58,5.9A3.45,3.45,0,0,1,1360.53,344.72Z"/>
    <path class="a11eecec-93d9-43c3-94d8-346951decae0" d="M1406.69,333.07a3.51,3.51,0,0,1-1.62-6.63c4.56-2.35,11.92-1.16,13.35-.89a3.51,3.51,0,0,1-1.26,6.9c-2.59-.48-7.06-.71-8.87.23A3.59,3.59,0,0,1,1406.69,333.07Z"/>
    <path class="bab9ed6f-ebdd-453a-9435-ba173230e707" d="M1517.41,1197.53s6.78,3,16.08,6.31a6.64,6.64,0,0,0-.75.75c-11.36,13.79-43.9,23.75-69.25,24.69l-3.93-18.85Z"/>
    <path class="f4826657-d372-4e18-8088-a15f2252b349" d="M1458.61,1229.36c25.93.29,62.07-10.06,74.14-24.76,1.54-1.87,4.13-2.63,6.47-3.24,2.8-.74,6-1.24,8.57,0,19.88,9.14,25.76,14,59.62,3.54,10.75-3.3,25.41-7.11,34.34-.75,7.59,5.4,11.89,32.53,11.8,36.6a6.22,6.22,0,0,1-.32,2.19c-.71,1.76-2.78,2.54-4.61,3.12-49.62,15.49-99.94,28.4-150.24,41.29l-18.26,4.68c-2.18.56-4.7,1.06-6.43-.27C1472.39,1290.71,1456.06,1254,1458.61,1229.36Z"/>
    <path class="a11eecec-93d9-43c3-94d8-346951decae0" d="M1287.12,1280.29H1287l-79.14-4.36-32.18-27.29a2.34,2.34,0,0,1,3-3.57l31,26.27,77.58,4.29a2.34,2.34,0,0,1-.13,4.67Z"/>
    <path class="a11eecec-93d9-43c3-94d8-346951decae0" d="M1799,1291.7H1649.54a150.88,150.88,0,1,0-127.65-257.31l-12.34-76.31-28.9-169.64,2.48-.7a3.48,3.48,0,0,0,2.43-4.07c-.23-1.21-5.94-29.78-6.31-36.28,0,0,.75-89.73-2.34-135.18,0,0,22.87,9.54,22.91,9.54,19.46,9.82,38.49-1.78,40.73-8.42,11.27-33.52,41.8-135.22,41.85-135.32a3.51,3.51,0,0,0-2.34-4.39l-11.31-3.42c5.51-7.52,14-21.32,6.45-41.75l-17.4-49.38a11,11,0,0,0-9.77-7.39l-1.26-3.88S1676,329.27,1680.31,328a3.57,3.57,0,0,0,1.82-5.47l-93.89-126.48a3.57,3.57,0,0,0-5.75.19l-80.24,121.61-32.91,24.46a33.42,33.42,0,0,0-13.14,21.32c-3.28,19.27,12.2,37.08,31.56,37.08a33,33,0,0,0,20-6.69l5.28-3.92,2.62,8-.75,2.34c-5.94,18.42-13.05,39.51.37,56.48-.18.28-19.35,71.87-19.45,72.29-1.17,4.4,5.57,6.22,6.78,1.83l13.33-49.85s45.35,12.72,45.54,12.72a2.3,2.3,0,0,0,2.25-1.68,2.35,2.35,0,0,0-1.59-2.9l-45-12.67,3.64-13.56,4.12,1.21,49.8,15L1534.1,610.39c-6.08,9.77-20.81,9.91-31.28,5l-28.62-13.32s-2.2-20.39-2.71-24.64c-2.62-20.16-5.19-40.12-10.76-59.71-1.68-5.71-9.11-27.31-12.57-32.08,17.2,19.59,44.51,62.42,44.88,62.7,0,.1,0,.14,0,.24l2.71,9.3c1.26,4.35,8,2.39,6.74-2l-2.72-9.31c-.23-.79-44.23-77.47-73.92-87.39-1.5-1-20.48-5.33-21-5.19-1.36-3.08-4-11.73-6.36-20.76.89-.28,1.73-.56,2.57-.89,20-7.71,34.32-27.21,38.35-52.23a98.72,98.72,0,0,0-1.5-37.92,21.29,21.29,0,0,0,3.18-4.11c4.86-8.14,4.67-18,3.69-24.83a61.53,61.53,0,0,0-11.83-28.62c.42-6.22-.42-13.23-4.11-18.42-4.3-6.13-13.8-16.37-28.48-16.37a33.87,33.87,0,0,0-5.75.52c-4.11.75-8.13,3.69-10.19,5.38a168.5,168.5,0,0,0-27-2,106.36,106.36,0,0,0-36.1,7.66c-14.72,5.8-30.3,20.62-32.59,38.11-18.42,9.4-26.09,37.32-20.48,57.09,2.62,7.91,4.26,16,8.09,23.52a50.3,50.3,0,0,0,17.4,18.89c10.8,7.21,19.77,8.28,24.22,8.28.79,0,1.45-.05,2-.09a99.18,99.18,0,0,0,16.64,14.07c-.42,2-4.44,27.12-5.33,30.72-13.23,3.27-39.18,20.9-43.06,23.57,0,0-3.51,2.43-3.65,2.62-12.3,11.92-29.92,46.47-52.51,102.54-2.24,5.61-30.3,81-30.3,81-7.62,20,.52,42.32,19.31,53.21l65,37.55c-1.59,7.71-6.59,31.89-10,42.59-.79,2.53,1,3.89,3,4.59.14,0,4.72.42,12.58.93-2.81,26.84-4.21,157.39-4.26,163.09a3.51,3.51,0,0,0,7,.1c0-1.4,1.45-137.66,4.25-162.81,5,.28,10.9.56,17.44.74,6.46,20.39,16.42,42.93,27.59,65.09l-12.16,120-136.76,188.3L1169.34,1157c58.91-116.33,119-173.52,119.65-174.13a3.48,3.48,0,0,0,.14-5,3.52,3.52,0,0,0-5-.14c-.14.14-3.69,3.5-9.77,10.1H1141.65a3.5,3.5,0,0,0-3.5,3.5v60.79a3.53,3.53,0,0,0,3.5,3.51h48.21v49c-.75,1.27-1.49,2.58-2.29,3.89h-22.11a3.53,3.53,0,0,0-3.51,3.5v44l-1.26,2.52s-43.77,42.32-44.38,42.88c-1.31,1.21-3.41,3.18-3.79,6.17-.46,4,2.62,7.11,4.07,8.56,0,0,42.37,42.78,44.05,44.46,0,0,0,30.72.14,31H1004.65l15.62-2.62a3.44,3.44,0,0,0,2.9-3.69l-1.45-21.84a66.85,66.85,0,0,1,14.12,10.57c5.56,5.66,12.58,8.79,19.78,8.79a22.16,22.16,0,0,0,4-.33l59.29-9.82a9.16,9.16,0,0,0,6-3.92,10.25,10.25,0,0,0,1.4-7.86l-.7-3c-2.71-11.74-11.46-20.81-22.26-23.1-11.69-2.48-28.24-9.07-45.26-26-.65-.89-1.4-1.82-2.2-2.76-5.33-6.17-10.14-14.73-14.45-25L1013,988.57s-59.25-252.08-59.29-252.36c.6,1.36,3.78-4.53,3.83-5.05.75-6.5,7.53-43.25,15.15-81.83l65.88,77.72a3.52,3.52,0,0,0,2.76,1.26c5.94,17.67,23.52,39.51,34.84,50.64,3.74,4.77,9,7.15,15.43,7.15,7.9,0,17.44-3.6,27.82-10.75,1.4-1.08,3.13-3.13,3.32-7.16.51-11.4-12-33.61-19.73-44.84,4.81,0,10.56,0,13-.46,2.81-.57,12.49-5.19,13.75-8.75.56-1.59,1.82-5.28-.33-7.85s-5.84-2-7.66-1.69c-5,.75-18-7.1-22.87-10.1a34.12,34.12,0,0,0-4.49-2.57,35,35,0,0,0-5.94-1.5,3.57,3.57,0,0,0-.89-2.24L1027.89,622c-2.94-3.23-8.32,1.26-5.19,4.72,0,0,44,48.77,44,48.87a457.1,457.1,0,0,1-36.28,30.95L975,641.2S985,588.69,988.9,572a47.21,47.21,0,0,0,12.29-9.54l11.27,49.66a44.1,44.1,0,0,0-10.52,4.11c-3.93,2.11-.56,8.37,3.41,6.18,3.7-2.06,12.49-4.26,12.68-4.35a3.51,3.51,0,0,0,2.1-3.79l-13.37-58.92a56.39,56.39,0,0,0,3.74-6.73c9.12-19.4,11.08-54.43-31-111.24-2.71-3.69-7.57-5.8-13.23-5.8h-1.69l-.18-10.38c17.81-3.32,31.84-17.72,40.12-41.38a122.31,122.31,0,0,0,4.58-17,20.7,20.7,0,0,0,3.08-33.85,120.37,120.37,0,0,0-2-23.47,20.82,20.82,0,0,0,.14-16.42c-4.2-11-15.71-20.1-24.5-23.19a16.85,16.85,0,0,1-1.73-1.63c-4.91-4.82-17-16-40.35-20.34-.19,0,0-75.57,0-75.57,0-9.53-7.29-17.3-16.27-17.3h-4.72v-85c0-26.23-19.46-47.55-43.4-47.55h-572c-23.9,0-43.39,21.32-43.39,47.55V584a3.51,3.51,0,1,0,7,0V65.93c0-22.35,16.32-40.54,36.38-40.54h572c20.06,0,36.38,18.19,36.38,40.54v177a63,63,0,0,0-28.76,11.32A52.91,52.91,0,0,0,844.5,253c-20.38,8.6-31.28,28.71-30.67,56.63.24,10.05,1.69,20.66,4.72,34.36.8,3.6,1.83,7.3,2.86,10.9,2.57,9,5.23,18.28,4.06,26.84-1.91,14.3-15.61,24.55-26.84,30.58a3.54,3.54,0,0,0,.71,6.45,111,111,0,0,0,30.53,4.72,75.74,75.74,0,0,0,17.25-1.92c17.3-4.11,31.61-15.47,37.36-29.64A54.69,54.69,0,0,0,887.94,377c2,1.64,4,3.18,6.18,4.68a98.49,98.49,0,0,0,16.41,19.36,115,115,0,0,1-4.26,26.18c-.09,0-2.43,0-2.43,0-7.29-.14-22.44-.42-35.49,4.58C815.84,452,732.89,508.08,730,519.44c-7.25,28.34-18,86.41-24.22,121.57L619,595.84s-84.12-121.47-88.61-125.36c-.23-.18-22.45-10.38-23.29-10.38,0-.84.05-1.73.1-2.71,3.32.24,6.64.42,10,.42,30.11,0,50.64-27.07,53.25-53.63.28-3.09,2.25-17.77,2.53-20.76.09-.42,1.54-6.83,1.54-7.29a21.9,21.9,0,0,0,3-4.17,40.43,40.43,0,0,0,3.84-11.59A180,180,0,0,0,585,320.58a22.68,22.68,0,0,0,2.86-3c4.25-5.57,8.08-17.72,3.31-27.36-2.47-5.05-8.27-11.08-21.69-11.08a54.27,54.27,0,0,0-5.42.33c-22-32-48-38.76-66-38.76-26.18,0-49.33,13.88-59.76,26.79-3.74,4.63-5.75,9-5.93,12.9-10.52,5.15-45.64,27.12-22.63,84.31,5.7,14.21,22.16,38.48,43.48,47.55a44.89,44.89,0,0,1-.05,8c-1.68,5.14-6.87,20.8-12.15,22.25-.14.05-27.22,2.25-41.8,4.82-5.62,1-10.53,1.87-13.61,2.24a1.1,1.1,0,0,0-.38.05,1.87,1.87,0,0,0-.46.09.27.27,0,0,0-.19,0c-19.08,3.6-58.12,33.39-89.45,59.48v9.21c20.57-17.35,45.08-36.89,64.76-49.38a.93.93,0,0,0,.28-.19c10.34-6.5,19.31-11,25.63-12.25a.55.55,0,0,1,.23,0,.39.39,0,0,0,.23-.05c3.28-.37,8.33-1.26,14.17-2.29S413.21,452,419.66,451l50,59.57,26.42-9.4c1.45,6.74,5.05,26.89,3,55.6-2.52,35.68-13.51,79.82-13.65,80.38-.61,2.9,3.78,4.07,4.53,1.12.1-.47,11.23-45,13.8-81.17,1.87-26.14-.8-45.08-2.53-54L519.67,515,530,480.21c7.58,9.54,10.85,23.8,11.74,39.14,2.66,71.72-40,185.49-40.49,186.61,0,0-7.95,40.91-8.33,41-8.32.84-35.11,1.82-88.7-11.69-7-1.73-15.34-4.26-24.17-7.11a23,23,0,0,0-2.48-5.7l-3.23-4.58a29.55,29.55,0,0,0,3.51.23,26.86,26.86,0,0,0,8.6-1.4c2.81-.94,5.1-3.14,4.68-6.32a8.54,8.54,0,0,0-3.27-5.33c-2.81-2.15-6.22-3.13-9.12-5s-5-4.81-7.2-8c-2.39-3.31-4.82-6.77-8.51-9.35-2.34-1.63-5.52-3.78-8.89-5.7.75-1.4,25-108.76,33-133.26,15.71-10.34,27.82-18.94,29.78-22.31a3.5,3.5,0,0,0-1.21-4.77,3.56,3.56,0,0,0-4.82,1.17c-1.26,2-8.7,7.49-20,15.06,0,0-19.69,12.81-25.25,16.32-11,6.92-68,41.52-68.27,41.71a3.47,3.47,0,0,0-.61,4l21.75,42.6,17.91,35.16-41.2,28.47v8.51l6.69-4.63c1.4,10.15,4.11,27.17,7.1,33.25,3.65,7.39,10.71,15.2,17.82,20.39a3.42,3.42,0,0,0-1.17,1.82c-7.95,28.43-7.71,78.41-7.53,126.76.1,29.37-1.77,85.52-2,85.76-2.57,2.71-13.51,15-20.95,23.75v11.13c3.7-4.63,28.15-32.45,28.29-32.83a3.4,3.4,0,0,0,.28-1.35c-.23-.24,1.45-57,1.36-86.51-.19-47.83-.42-97.3,7.24-124.84,0-.05.05-.09,0-.14a46.65,46.65,0,0,0,6.69,2.48c-1,28.8,12.3,66.16,30,102.59L348.4,992s-53,66.21-53.26,66.53v8.19L352.79,994l19.78-119.51a840.76,840.76,0,0,0,42,72.85l-25.06,66.11-1.78,4.73c-3.41,5-51.24,65.74-92.58,118.06v11.36c44.47-56.29,97.87-124.14,99-126.62l1.78-4.72.09-.24,6.08-16.08a143.23,143.23,0,0,1,46.76,11.83c-2.06,27.12.09,95.62,47.27,218.55a3.44,3.44,0,0,0,2.1,2c.19-.33.28.14,0,0a18.58,18.58,0,0,0-2.66,7.11c-3.7,20.71,7.43,43.81,12.06,52.27H307.3c-20.06,0-36.38-18.19-36.38-40.54V598.7a3.51,3.51,0,1,0-7,0v652.46c0,17.12,8.32,32.17,20.76,40.54H201a3.51,3.51,0,0,0,0,7H1799a3.51,3.51,0,0,0,0-7ZM1547.75,378.6a4,4,0,0,1,3.46,2.81l17.25,49a1,1,0,0,1-.18,1.21l-7.53,2.62a6,6,0,0,1-2.24.38c-3.42,0-6.78-2.57-8.09-6.32l-12.11-34.41c-2.11-6,.37-12.3,5.51-14.12C1543.82,379.82,1547.42,378.6,1547.75,378.6ZM1561,441.45a10.19,10.19,0,0,1-.79,2.29,11.92,11.92,0,0,1-7.3,6.45c-6.35,2-13.65-2.15-15.85-8.93l-3.69-11.41c-.09-2-.7-6.69-.75-7.11,1.31-1.87,3-4.67,5.28-8.83l5.94,16.78a15.87,15.87,0,0,0,14.69,11A11.19,11.19,0,0,0,1561,441.45Zm-30.39-52.79a11,11,0,0,0-6.26,1.68c-.94.56-3,2-3.18,2l-2.16-6.64,21.14-15.61,1.08,3.32C1534.89,375.7,1531,381.78,1530.59,388.66Zm55-184.37,88,118.44-133.07,39.65h0l-31.28-42.18Zm-81.46,120.92,30.07,40.49-7.62,5.66-29.32-41.06Zm-.56,63.21a26.22,26.22,0,0,1-15.8,5.29,25.11,25.11,0,0,1-24.64-28.9,26.44,26.44,0,0,1,10.38-16.88l18.09-13.42,29.32,41Zm58,79.63s-33.76-10.14-33.85-10.19c-3.27-1.82-5.57-3.51-6.74-5-3.83-4.77-6.68-11.59-6.73-17.62-.09-4.54,1.31-9.22,2.2-13.61a87.81,87.81,0,0,1,3.41-12.77c1.55-4.3,3.84-10.1,8-12.53,2.24-1.31,4.67.89,5.19,2.62,1.49,5.24.28,7.86.28,7.86-1.27,2.19-8.47,12-7.63,18,1.17,8.51,1,12.3-2.38,13.51a3.59,3.59,0,0,0-2.06,4.54,3.53,3.53,0,0,0,3.28,2.29,4,4,0,0,0,1.26-.24,11.15,11.15,0,0,0,4.16-2.61l.33,1.07c2.8,8.56,10.42,14.31,19,14.31a18.95,18.95,0,0,0,17.21-11,19.19,19.19,0,0,0,1.87-7.67l2.2-.79c2.57,14.4-4.49,23.7-8.93,29.64C1561.64,468,1561.59,468,1561.59,468.05ZM1196.88,1093v-37.31h24.17C1213.33,1066.89,1205.25,1079.28,1196.88,1093Zm-51.72-44.33V994.88h122.93a619.31,619.31,0,0,0-41.52,52.93c-.19.28-.42.56-.61.84Zm-53.44-350.22a36.48,36.48,0,0,1,3.5,2.06c9.68,5.94,20.58,12.16,27.64,11a.4.4,0,0,0,.23,0c-1.63,1.4-6.64,4.16-8.51,4.53-2.62.52-12.9.38-18.8.14a3.31,3.31,0,0,0-3.41,2.2,3.49,3.49,0,0,0,.94,3.93c4.58,4.11,22.91,34.55,22.39,45.59a3.55,3.55,0,0,1-.37,1.77c-11.83,8.09-26.84,13.7-33.95,4.63-12.39-12.11-29.55-34.13-34-49.89l35.4-27.68A50.29,50.29,0,0,1,1091.72,698.43ZM1069.83,679l10,11.08-38.11,29.83-7.76-9.16C1034.11,710.4,1058.47,689.78,1069.83,679Zm-58.07-338c.09-1.82.19-3.65.23-5.38a15.7,15.7,0,0,1,2.86,9.12,16,16,0,0,1-4.63,11.27Q1011.33,348.66,1011.76,341Zm-445.7,41.43c-1.26,4.25-7.16,7.25-10.57,9.72-9.49,6.92-19.59,2.58-30.2,2.2a129.48,129.48,0,0,0-16.84,1.17c-6.08.65-12.39,1.36-17.34,1A22.74,22.74,0,0,1,473,384.73c-2-3.74-1.78-10.33-1.59-15.62.05-1.35-.28-9-.28-9.07-1.31-13.61,6.5-20.06,14.54-24.55,4.3-2.43,9.54-3.6,16-3.6,7.57,0,15.06,1.45,22.44,2.85a61.73,61.73,0,0,0,24.36-.09c4.07-.89,9.12-2,14.27-3.46,1.87,8,4.2,15.52,5,23.8a101,101,0,0,1,.33,11.27A62.34,62.34,0,0,1,566.06,382.44Zm12-57.14a174.73,174.73,0,0,1-3.18,31.56,108.92,108.92,0,0,0-5-26.23,19.24,19.24,0,0,1-.46-2c.09-.38,1.82-1.08,3.88-2.06s4.2-2.34,4.77-2.48ZM432.19,353.78a17,17,0,0,0,1.31,22,192.77,192.77,0,0,1,12.9,14.82c2,2.62,5.94,8.84,6.18,9.4,0,1.26.09,2.57.14,4.16a.34.34,0,0,1,.18.19.78.78,0,0,1-.23-.1c-16.23-8.09-29.83-25.9-36.42-42.22-21.14-52.56,10.05-71.26,19.68-75.61,3.51-.51,6.83-.56,10.38-.75,13.09-.7,19.17,2.34,19.45,2.34a2.35,2.35,0,0,0,.84-4.53C460,281,452.67,281,446.31,281a43.09,43.09,0,0,0-6.92.23c-.14-2.29,1.45-5.75,4.4-9.4,9.67-12,31.46-24.17,54.28-24.17,23.66,0,44.75,12.72,60.93,36.75l-14,7.11c-1.92.93-3.79,1.92-5.71,2.76a59.33,59.33,0,0,1-43.72,1.35c-2.85-1-4.44,3.42-1.59,4.45a65.45,65.45,0,0,0,21.75,3.74,63.33,63.33,0,0,0,25.43-5.29c5.76-2.52,11.41-5.42,17-8.32,2.38-1.17,5-3.51,7.34-4.3,3.13-1.12,8.46.19,11.55,1.17,11.22,3.5,11.59,17.91,5.28,26.18-7.53,9.82-24,12.07-35.3,14.5-15.34,3.32-30-2.9-45.31-2.9-13.79,0-29.41,6.83-35.35,20.29-2.67,6-2.06,11.41-1.92,17.77.19,7-1,14.26,1,21.13,2.48,8.7,10,15.57,18.61,18.15,13.19,3.92,27.26-1.5,41-.75,6.88.37,13.7,2.34,20.58,1.78A29,29,0,0,0,564.56,394c-.56,10.85-2.85,21.79-7.9,31.42s-13.19,17.91-23.28,22c-12,4.91-25.58,3.65-38.3,1.17-10.61-2.06-21.88-5.47-28.34-14.12-4.72-6.41-6-14.68-6.64-22.58-.84-11-.51-22.07-.28-33.11.19-9.86,2.25-19.59-5.14-27.21C448.56,345.27,437.47,347.09,432.19,353.78Zm20.43,33.57a204.25,204.25,0,0,0-14-16.32,10.19,10.19,0,0,1-.89-12.95,9.59,9.59,0,0,1,7.29-3.42c4.3,0,6,3.51,7.95,6.69C453.18,366.17,452.67,384.21,452.62,387.35Zm18.52,117.74-46-54.76c6-.75,11.22-1.12,14.45-.65,3.55,5.14,15.29,17.06,52.23,48.06Zm24.83-13c-21.51-18.1-43.44-37.64-49.47-44.61,4.21-3.09,7.48-9.17,10.28-16.32,6.32,16.37,24.79,23.1,43.54,25.48-.38,5.85.14,9.82,2.05,12.07C502.37,469.22,498.91,482.78,496,492.09Zm21,15.61-15.43-9.91c6.13-19.08,8-26.23,8.42-29.22l16.22,7.57.05.05Zm487.69,776.85-8.55-32.17a155,155,0,0,1,18.32,7.34l1.55,23Zm56.72-61.82c.14-.37.28-.7.42-1.07,15.06,12.44,29.41,17.81,40,20.1,6.92,1.45,12.71,6.64,15.61,13.7l-61.48,10.2c-2.72.46-2.44,4.63.37,4.63.14,0,62.52-10.29,62.52-10.29l.56,2.57c.28,1.17-.14,3-1.69,3.27l-59.29,9.82a18.9,18.9,0,0,1-2.8.24c-5.28,0-10.52-2.39-14.78-6.69-13.93-14.17-37-21.69-46.85-24.87-1.49-.52-3.13-1-3.93-1.36-6.64-8.84-2.9-28,3.42-38.48a63.69,63.69,0,0,0,9.68,7.9,42,42,0,0,0-4.73,25.3c.38,2.94,5,2.38,4.68-.61a37,37,0,0,1,4-22.12c7.91,4.86,16,8.56,20.11,9.73,8.84,2.52,16,3.83,21.51,3.83C1055.34,1228.53,1059.64,1226.57,1061.37,1222.73Zm-10.85-12c4.49,5.19,4.91,8.23,4.49,9.11s-2.24,1.69-6.31,1.69c-4.82,0-11.36-1.22-19.59-3.56s-25.3-12-31.94-19.68l38.81-12C1040.33,1196.17,1045.15,1204.5,1050.52,1210.72Zm-54-261.48,9.54,40.64,28,189.6-49,15.2c-52.69-126-42.92-201.2-42.78-202a3.78,3.78,0,0,0-.33-2c-5.47-11.5-33.2-70.23-40.35-84.82L923.62,815l13-42.32a3.33,3.33,0,0,0-2.15-2.1,3.56,3.56,0,0,0-4.44,2.24l-13.19,40.26-95.06,377.53-47.13-2.81c0-.88,0-1.77.09-2.61h-.09C779.7,1025,810.09,967.57,810.37,967a3.64,3.64,0,0,0,.47-1.68c0-.14,1.21-54.8,1.12-60.6-.33-41.24-3-77.67-8.18-108.76-.66-4.07-2.53-9-4.72-14.73-4.21-11.08-9.31-24.5-9-39A54.71,54.71,0,0,1,799,712.88c15,11.46,66.68,21.74,77.34,23.43q12.27,1.89,22.21,2.94a244.38,244.38,0,0,0,25.06,1.45c10.89,0,18.38-1,23.38-2.24ZM825.05,1220.63c3,5.8,2.86,8.88,2.29,9.82-.42.7-1.87.84-2.66.84-3.23,0-9.63-1.5-22.16-8.6-7.67-4.31-23.2-18.85-27.08-27.83l42.83,2.58C819.49,1206.32,821.69,1214.13,825.05,1220.63ZM954,732.05l.14-.09C954,732.19,954,732.19,954,732.05Zm50.82-391.46a161.15,161.15,0,0,1-2.2,18.75c0,.33-.13.7-.18,1a14.92,14.92,0,0,1-3.6.42,16,16,0,0,1,0-32.08,16.63,16.63,0,0,1,6.31,1.26C1005.12,333.3,1005,336.9,1004.79,340.59Zm-6-16.55a20.71,20.71,0,0,0-20.67,20.71,15.47,15.47,0,0,0,.19,2.57l-1.59.1-1.5-6.88a3.5,3.5,0,0,0-6.83,1.5l1.27,5.84-2.34.14a20.7,20.7,0,0,0-40.63-5.42l-15.48-4.44c4.49-6.55,17.77-22.63,39.51-21,3.6.28,7.62,1,11.88,1.73,5.94,1,12.11,2.1,18,2.1,8.55,0,16.64-3.32,23.47-8.42a125.22,125.22,0,0,1,.93,12.49A19.76,19.76,0,0,0,998.81,324Zm-36.15,24.17a16,16,0,1,1-16-16A16,16,0,0,1,962.66,348.21ZM922.69,158h4.72c5.09,0,9.26,4.63,9.26,10.28v74.44a88.43,88.43,0,0,0-14-.46ZM878,389.31c-4.91,12.11-17.34,21.84-32.45,25.44-10.66,2.52-22.77,2.29-36.19-.66,13.61-9,21.56-19.78,23.1-31.42,1.36-10-1.49-20-4.3-29.69-1-3.65-2-7.11-2.76-10.52-2.9-13.23-4.3-23.38-4.53-33-.38-17.58,3.88-40.53,26.41-50a45.31,45.31,0,0,1,33.58-.23,59.09,59.09,0,0,0-6.46,6.78,2.36,2.36,0,0,0-1.07-.84c-14.64-5.43-29.37.84-38.53,16.41-1.5,2.57,2.48,5,4.07,2.38,7.9-13.46,20.43-19,32.77-14.4-10.24,13.84-15.52,31.57-15,50.88.51,18.14,9.3,36,24.64,50.73C881.12,377.53,880.32,383.65,878,389.31Zm-14.35-69.06c-.7-24.6,8.88-46.29,26.32-59.52,10.1-7.72,22.45-11.6,36.62-11.6A88.55,88.55,0,0,1,943,250.72a71.48,71.48,0,0,1,22.26,7.86,66.08,66.08,0,0,1,14.22,11c.65.66-4.59,5.1-5.15,5.52-5.23,3.69-11.73,5.14-17.91,6.41-2,.37-7.24.32-6.64,3.6.38,2.1,2.39,1.91,4,1.63,10.05-1.82,23.43-4.3,29.55-14.35,7.48,2.76,17,10.38,20.39,19.17,5.56,14.5-11.08,22.4-23.05,22.4-5.33,0-11.18-1-16.84-2-4.44-.8-8.6-1.5-12.58-1.83-23.66-1.73-38.29,13.75-44.51,22.21a18.57,18.57,0,0,0-15-7.81c-11,0-17.3,10.43-13.42,20.48a68.43,68.43,0,0,0,7.11,13.89,48,48,0,0,1,5.8,11.83C874.06,356.44,864.14,338.44,863.63,320.25Zm37.22,59c0-.09-6.41-19.22-9.49-24.08a62.51,62.51,0,0,1-6.5-12.67c-1.22-3.18-1.17-5.89.18-7.86a8,8,0,0,1,6.69-3.08c4,0,9,2.34,11.36,8.93a3.49,3.49,0,0,0,3,2.29,3.1,3.1,0,0,0,2.15-.51l17.68,5a5.5,5.5,0,0,0-.05.93,20.71,20.71,0,0,0,40.92,4.54l3.88-.24,3.64,16.7c-3.13.28-6.31,0-7.1-.57a3.44,3.44,0,0,0-4.91.43,3.48,3.48,0,0,0,.42,4.95c2.19,1.83,5.7,2.34,8.88,2.34a42.49,42.49,0,0,0,6.08-.51,5.64,5.64,0,0,0,3.65-3.61,6,6,0,0,0-.24-4.81L977.77,352l1.68-.09a20.61,20.61,0,0,0,19.36,13.51,15.48,15.48,0,0,0,2.57-.18,115,115,0,0,1-3.51,12.2c-4.91,14-16.78,37.41-41.66,37.41C935.92,414.89,913.8,398.24,900.85,379.21Zm56.86,76.31c-.56.75-1.59,1.68-4,1.68-5.48,0-17.07-4.48-41.39-25.67a121.56,121.56,0,0,0,4.87-24.92c11.92,9.21,25.67,15.29,39,15.29a10.39,10.39,0,0,0,1.12,0l.38,14.16C959.3,441.49,960.65,451.59,957.71,455.52Zm-221,65.74c7.06-6.87,83-61.86,134.15-82.95,6.64-2.75,14.26-3.6,20.76-3.92,8,9.49,37.17,35.77,51.52,40.26,4.4,1.4,9.26,2.75,14.13,2.75a22.36,22.36,0,0,0,7.57-1.26c7.86-2.9,13.33-10.43,12.95-17.95a2.31,2.31,0,0,0-2.43-2.25,2.34,2.34,0,0,0-2.24,2.43c.28,5.47-4,11.23-9.87,13.38s-12.76.32-18.66-1.55c-12.53-3.92-37.31-25.81-47-36.05,2.39,0,7.11.05,7.11.05l1.22,1.08c22.07,19.49,37.68,28.94,47.74,28.94a11.48,11.48,0,0,0,9.63-4.49c4.3-5.71,2.9-21.18,2.9-21.18,3.36,0,6.22,1.12,7.57,2.94,28.71,38.72,40.12,72.25,33.06,97a45.4,45.4,0,0,1-22,27.73,3.45,3.45,0,0,0-2.39,2.52c-4.67,19.64-31.19,154.26-31.7,161.18l-.28.14c-3.6,1.64-15.62,5.38-46.34,2.71-7.67-.65-16.5-1.78-26.7-3.36-30.62-4.91-73.69-17.49-75.75-23.29,2.81-8,20.2-36.66,29.51-48.63,1.54-2,3-3.83,4.49-5.66C856.19,626,867.6,611.55,859.37,510c7.44-3.18,12.68-5.28,14.13-5.56a3.5,3.5,0,1,0-1.08-6.92c-4.77.75-35,14.49-52.56,22.63-24.4,11.27-36.42,16.92-42.36,20.15-.09-.09-15.24-10.15-15.24-10.15a3.53,3.53,0,0,0-3.88,5.9l13.42,8.83c0,.19-17.35,103.9-17.35,103.9-9.17,1-18.61.61-27.73.28-5-.19-10.1-.37-15.24-.37C717.51,614.78,729.11,551.14,736.73,521.26ZM710.68,653.4c5.29,0,10.66.19,15.85.38,4.77.18,9.64.37,14.5.37a126.19,126.19,0,0,0,12.62-.56l-2.29,13.56H708.25C708.81,664.06,709.61,659.29,710.68,653.4Zm.47,20.76h43.16a1,1,0,0,0,.33,0c.32,1.07.65,2.48,1,4.11-5.52,1.08-10.52,5.47-13,11.6L729.43,721.9a19.67,19.67,0,0,0-.93,12.91,15,15,0,0,0,2.24,4.72c-2.34,2.25-5,3.6-6.83,2.62-.14-.09-33.8-12.72-33.8-12.72-1.73-1.68-2.11-9.91,0-19.12a48.15,48.15,0,0,1,2.05-6.83,44.93,44.93,0,0,1,3.84-8.09C698.71,691,705.59,681.69,711.15,674.16ZM758.24,685a5.54,5.54,0,0,1,2.15.43l6.82,2.8c1.22.47,1.83,2.76.85,5.1l-18,44c-1,2.48-3,3.55-4.21,3L739,737.52a6.7,6.7,0,0,1-3.79-4.63,13.36,13.36,0,0,1,.66-8.37L749,692.45C750.85,688.05,754.64,685,758.24,685ZM539.87,597c.75-2.9,13.94-53.4,7.25-92l65.09,93.38-7.11,8.42c-2.9,3.41,2.39,7.94,5.38,4.53l7-8.32,86.93,45.26c-2.29,13-3.74,21.51-3.79,21.79a3.69,3.69,0,0,0,.79,2.85,4.23,4.23,0,0,0,1.22.94c-5,6.78-10.24,14.07-12.58,17.9a53.1,53.1,0,0,0-4.16,8.61c-44-22-97.26-49.71-102.63-55.55,0,0-43.49-47.55-43.49-47.6S539.83,597.06,539.87,597Zm-32,111.23c1.87-5,19.41-51.2,30.16-102.4l40.07,43.77c7.06,7.71,71.92,40.68,105.63,57.56-2.2,8.51-2.57,17-1.22,22.21.8,3,2.25,5.19,4.21,6.31.19.05,34,12.81,34,12.81a10.05,10.05,0,0,0,4.4,1c4.21,0,8.13-2.52,11.08-5.52,0,0,0,0,.09,0l6.83,2.81a8.71,8.71,0,0,0,3.27.65c4.21,0,8.23-3,10.1-7.53l18-44c2.39-5.84.29-12.2-4.67-14.26l-6.83-2.8s-.14,0-.18-.1c-.75-4.16-1.69-7.81-2.86-10l-1.07-4.63,19.54-116.47c7.95-4.4,48.49-23.38,74.11-34.74,7.58,96.6-3.18,110.21-22.44,134.47-1.45,1.83-2.95,3.7-4.49,5.71-8.88,11.46-25.62,41-30.49,50.17-7.66,14.4-12.39,26.47-12.11,38.72.29,14.91,5.43,28.52,9.45,39,2.06,5.38,3.79,10,4.35,13.42,5.19,31.37,7.9,68.36,8.09,110.35,0,5.8-1.12,58.49-1.17,59.57-.42.84-1.12,2.24-2,4.35A150.93,150.93,0,0,0,637.93,1208.1c-5.66,1.31-13,2-22.07,2a292.56,292.56,0,0,1-40.45-3.27l-3.18-4.26L537.72,989.36,499.43,750Zm117.37,508.59a14.2,14.2,0,0,1-2.67,3.7,25.23,25.23,0,0,1-16.27,7.39c-5.1.37-31.1-3.32-43.53-5.61,5.75-5.66,9.77-7.91,11.22-8.61a295.64,295.64,0,0,0,41.85,3.42C619.18,1217.08,622.36,1217,625.26,1216.79ZM304.45,594.67c13.32-7.9,46.43-27.72,73.31-44.93-8.55,28-27.68,119.23-27.82,119.84-.7,1.54-1.45,3-2.2,4.4a23.16,23.16,0,0,0-3.5-1.08C344.19,672.67,304.45,594.67,304.45,594.67Zm35.11,163.1a25.19,25.19,0,0,1-8-4.3c-5.8-4.12-12.58-10.71-16.32-18.33-2.71-5.38-5.52-24.13-6.92-34.6,5.52-3.79,27.68-19.08,29.13-20.06,1.64-1.13,1.73-.94,3.51-1,3.32-.14,10.38,3.55,18,8.93a24.34,24.34,0,0,1,6.83,7.71c2.43,4.17,4.81,7.86,9.11,9.78,1.17.51,7.25,4.77,8.33,4.48-6.55,1.83-14.12.19-18.85-4.2-2-1.87-6.17-.52-5.28,2.29.56,1.82,2.66,3.78,3.79,5.33l8.83,12.53c1.73,2.85,4.31,10.38-.14,12.16l-30.3,19.45A3.83,3.83,0,0,1,339.56,757.77Zm110,246.69a152.67,152.67,0,0,0-26.05-8.36,142.15,142.15,0,0,0-18.84-3l14.63-38.53c15.15,23.24,27.41,40.07,31.05,45.08C450.1,1000.77,449.82,1002.36,449.54,1004.46Zm7.95-4.67a3.56,3.56,0,0,0-.57-3c-.42-.56-15.57-20.95-34.5-50.46-1.55-2.38-48.4-85.19-48.63-85.75-17-35.3-29.27-70.84-27.73-97.45l28.85-18.56a9.85,9.85,0,0,0,5.38-6.4,11.91,11.91,0,0,0,.51-2.58c9.73,3.14,17.68,5.43,21.65,6.46,9.4,2.38,18,4.3,25.77,5.89a47.78,47.78,0,0,1-11.65,30.67,50.81,50.81,0,0,1-7.29,6.88,46.65,46.65,0,0,1-25,9.72c-2.71.23-2.76,4.68.19,4.68h.19A51.12,51.12,0,0,0,409.75,791l80.37,197.22S526.5,1179,526.59,1179.57c.57,3,5.19,2.2,4.63-.88L494.61,986.88,413.58,788a55.08,55.08,0,0,0,6.5-6.31,52.43,52.43,0,0,0,12.76-32.83c23.57,4.49,39.47,5.66,49.57,5.66A88.36,88.36,0,0,0,493,754L530.8,990.44l31.38,194-68.74,18.38C443.13,1061.23,457.35,1000.4,457.49,999.79ZM495,1207.3l67.9-18.14,2.52,15.66-64,19.92C499.24,1218.81,497.09,1213,495,1207.3Zm67.34,5.85c-5.29,4.44-12.12,11.59-19.64,22.91-1.45,2.2-7.39,4.54-15.43,4.54-7.39,0-16.7-2.2-21-8.28l-.42-1.59Zm-51.67,69.06,163.42-48.3c2.85-.84,1.54-5.33-1.36-4.49l-138.87,41a32.67,32.67,0,0,0-6.69-9.12c-2.19-2.15-5.42,1.22-3.27,3.37a26.76,26.76,0,0,1,5.42,7.11l-20.57,6.08c-2.81-6.69-5.7-15.2-6.64-23.9a45.45,45.45,0,0,1,15.52,5.85c2.53,1.54,5-2.43,2.44-4a50.81,50.81,0,0,0-18.24-6.68,39.35,39.35,0,0,1,.61-8.51,13.73,13.73,0,0,1,.37-1.64c5.38,5.43,14.22,8.56,24.46,8.56,7.43,0,17.48-2,21.27-7.67A128,128,0,0,1,559,1226.33c10.8,2.25,38.72,6.41,46.67,6.27a28.93,28.93,0,0,0,20.34-8.88,16.79,16.79,0,0,0,4.34-7.35c7.3-.74,13.14-2.1,17.45-4.11a23.76,23.76,0,0,1,10-2.48c15.62,0,23.66,20.76,26.23,28.9-4.63,1.31-165.75,49.14-169.82,50.31C513.27,1287.4,512.05,1285.06,510.7,1282.21Zm19.17,9.49c2.06-.65,159.26-47.18,159.35-47.22,3.6-1.31,2.62-3.7,2.48-4.17-.33-1.54-9.07-37.54-34-37.54a30.33,30.33,0,0,0-12.67,3,143.95,143.95,0,0,1,154-230.47c-7.71,20.1-22.11,67.89-28.71,157q-1.75,22.88-2.62,49.47c0,.84.75,12.35.24,12.81-11.55,10.2-22.35,33-15.29,47.09a6,6,0,0,0,2.52,2.39l1.08,41.1a3.51,3.51,0,0,0,3.27,3.41l17.77,1.26h.23a3.5,3.5,0,0,0,3.46-2.94l3.65-21.61A68,68,0,0,1,796,1278.89,27.86,27.86,0,0,0,812,1291.7Zm232.48-43.25a173.47,173.47,0,0,1,16.18,11.41l-3.88,22.72-11.41-.79ZM880,1287.12a2.58,2.58,0,0,1-2.25,2.76l-60.08-4.26c-6.22-.42-11.92-4.21-15.62-10.38-10.24-17-31-29.69-39.79-35.07-1.31-.84-2.81-1.73-3.51-2.19-4.39-10.15,3.7-27.87,12.25-36.66a62.48,62.48,0,0,0,7.58,10,41.62,41.62,0,0,0-10.43,23.43,2.36,2.36,0,0,0,2.11,2.57h.23a2.37,2.37,0,0,0,2.34-2.1,37.06,37.06,0,0,1,9-20.48c6.45,6.5,13.51,11.92,17.3,14.07,11.12,6.27,19.73,9.49,25.62,9.49,5.05,0,7.48-2.29,8.65-4.2a.33.33,0,0,0,.09-.19c11.79,15.62,24.46,24.17,34.28,28.85,6.36,3,10.8,9.44,12,17l-62.14-4.39a2.3,2.3,0,0,0-2.48,2.15,2.34,2.34,0,0,0,2.15,2.52l62.79,4.44Zm-9.21-30.67a85.27,85.27,0,0,1-28.11-22.12,150.79,150.79,0,0,0,49.57-61.21v-20.34a144,144,0,0,1-53.87,76.08c-1.87-2.53-3.74-5.29-5.56-8.23-.42-1-.94-2.11-1.5-3.18a67.15,67.15,0,0,1-6-19.73,3.63,3.63,0,0,0,2.57-2.53L871.06,1028a141.8,141.8,0,0,1,20.39,40.63c.28.85.51,1.73.75,2.58V1050.9a152.57,152.57,0,0,0-18.85-31.57L899,916.56c5,10.29,10.43,21.88,16.69,35.11.14.24.24.52.38.8v298.69c0,19.87-12.91,36.47-29.88,39.89,0,0,0,0,0-.1a10.27,10.27,0,0,0,.75-3.78l0-3.09C887.1,1272.06,880.74,1261.22,870.74,1256.45Zm31.61,35.25c12.39-8.37,20.71-23.42,20.71-40.54V967.25q5.61,11.91,12.06,25.57c-1.17,10-7.43,84.49,44.66,207.52a3.49,3.49,0,0,0,3.22,2.15c.38,0,4.31-1.17,4.31-1.17-7.81,13.23-11.69,35.49-2.25,46.66a6.36,6.36,0,0,0,3,1.78l10.66,39.7a3.56,3.56,0,0,0,1.83,2.24Zm547.44-785c.52,1.55,4.26,12.63,4.91,14.92,2.11,7.06,4.07,14.87,5.8,23.24.23,1.07,1.36,12.11,1.4,12.25,10.2,64.57,8.14,134.43,8.09,135.5,0,0,0,55,.14,55.41,1.78,4.58,5.85,23.71,7.95,33.85l-1.54.43-9-26.38s-4-74.39-9.63-128.11l-4.82-100.53-18-49.24C1435.58,478.67,1443.29,487.78,1449.79,506.72Zm-24-40.54,22.68,61.72,2,42.23c-2.86-17.82-6.18-33.39-9.92-44.56-4.77-14.27-23.61-49.85-31.18-64Zm8.13,61.63c17.07,51,25.25,201.76,26.47,225.61l-7.86,1.12c-5.79-25.9-42.59-190.59-52.88-217.71-6.41-17-27.49-39.93-44.61-56.67a93,93,0,0,0,16.93,1.5,97.54,97.54,0,0,0,22.12-2.53,45.58,45.58,0,0,0,13.84-5.28C1416.64,490.4,1430.11,516.54,1433.89,527.81Zm-2.8-233.23a54.1,54.1,0,0,1,6.87,19.73c.75,5.47,1,13.19-2.34,19.41-.46-1.59-1-3.18-1.58-4.73a174.35,174.35,0,0,0-9.45-21.46A46.86,46.86,0,0,0,1431.09,294.58ZM1319.43,400.3c-2.85.19-11,.09-21.74-7.06-10.1-6.73-15.81-17-19.59-28.29-3.47-10.38-5.71-20.34-3.75-31.28,2.06-11.32,8-23.8,19.13-28.52a3.43,3.43,0,0,0,2.1-3c1.08-15.52,15.11-28.89,28.39-34.18a98,98,0,0,1,38.52-7.1c7.44.23,15,2.15,22.35,2.15a3.51,3.51,0,0,0,3.14-.89c3.64-3.37,7.48-5.19,12.48-5.19,10.57,0,22.91,8.65,25.11,19.31,2.34,11.41-2.62,24.83-12.34,33.53-10,8.79-25.3,10-38.86,11l-6.69.56c-19.82,1.83-35.25-.28-48.3-6.54-3.64-1.73-6.82,3.27-3.74,5.84,9.12,7.53,13.09,18.29,18.33,28.48a8.77,8.77,0,0,1-.18,8.23c-1.46,2.34-2.48,1.12-4.31-.05a26,26,0,0,0-6.26-3.08c-8-2.58-18.8,1.54-19.55,10.8-.65,8.51,8.33,17.2,14.12,21.88C1319.24,389.73,1321.81,396.42,1319.43,400.3Zm6.41,2.95c4.48-8.47-2-19.88-2.3-20.44a4.15,4.15,0,0,0-.84-1c-7.62-6-12.34-12.39-12-16.27,0-.61.18-2.53,3.32-4.3,3.88-1.83,8-.8,13.32,3.08a7.74,7.74,0,0,0,4.63,1.55c3,0,5.89-1.78,7.81-4.91a15.53,15.53,0,0,0,.47-15c-.84-1.68-1.64-3.46-2.48-5.28a101.24,101.24,0,0,0-7.76-14.68c11,2.9,23.56,3.6,38.34,2.24,2.15-.19,4.35-.33,6.59-.51,14.64-1.12,31.24-2.39,42.93-12.77.6-.56,1.26-1.12,1.82-1.73a194.2,194.2,0,0,1,7.76,18.14,103,103,0,0,1,5.38,21.42,86.29,86.29,0,0,1-.24,26.23c-3.69,22.87-16.08,39.93-33.94,46.81a47.18,47.18,0,0,1-17.11,3C1361.56,428.92,1341,418.91,1325.84,403.25Zm71.72,53c-13.46,6.74-27.58,7.06-42.13,4.21-1.31-.28-18-4-17.44-6,.89-3.23,4.63-26.7,5-29.23,12.11,6.83,25.44,10.71,38.49,10.71a61.53,61.53,0,0,0,10.28-.89C1392.56,437.8,1397.56,455.47,1397.56,456.22Zm-60.69,5.66c9.17,4.82,25.44,7.39,36.33,7.39a48.14,48.14,0,0,0,9.68-.84c10.76-2.25,14.08-4,18-6,.23-.14.46-.23.74-.37,1,1.87,2.44,4.49,4.12,7.67-3.23,2.05-7.25,3.55-12.72,4.81a93.63,93.63,0,0,1-44.37-.51c-5.19-4.91-9.68-9-12.86-11.83Zm-11.5-.09c.18.6,57.23,49.75,67.7,77.52,4.68,12.35,15.34,55.46,25.86,100.3L1371.75,538.8l-55.13-72.48C1319.71,464.59,1322.7,463,1325.37,461.79ZM1224.65,709c-15.8-9.16-22.68-27.91-16.27-44.61,0-.14,54.38-154.86,81.17-181.09,5-3.41,14.07-9.4,23-14.59l55,72.38,56.58,120.78c10.94,47.08,20.67,90.66,22,96.7l-7.07,31.28c-10.47,1.49-21.79,2.71-33.75,3.6l12.85-23.1a9.91,9.91,0,0,0,1.69-8.28c-1.22-5.47-6.22-10.38-10.57-12.72l-5.47-2.57a29.5,29.5,0,0,0,10.71-7.1,8,8,0,0,0,2.1-3.75c.94-4-3.23-6.82-6.64-7.29-2.34-.33-9.58.09-10.94,0-3.74-.28-7.2-1.87-10.8-3.6-3.88-1.78-7.86-3.65-12.58-4.16-3.83-.42-13-.38-19-.28l.84-2a3.5,3.5,0,0,0-1.54-4.44l-51.63-28.94c.05-2.48.89-73,1.55-75.05,14.49-30,28.24-60.18,28-66.35a3.54,3.54,0,0,0-3.6-3.32,3.71,3.71,0,0,0-3.42,3.6c-1.21,12.67-47.5,104.18-58,124.75-3.46,3.42-9.49,5.85-17.12,6.88a3.52,3.52,0,0,0-3,4c.23,1.73,3.65,3,3.93,3,6-.84,13.89-2.76,19.59-7.48l56.63,31.8-21.28,49.84Zm129,18.61c5.1-.09,17.07-.19,21.23.24,3.56.37,6.83,1.91,10.34,3.55,4.06,1.92,8.23,3.88,13.27,4.21a38.34,38.34,0,0,0,5.15,0,30.37,30.37,0,0,1,5,0,22.65,22.65,0,0,1-16.18,6.22,3.55,3.55,0,0,0-3.51,2.66,3.4,3.4,0,0,0,1.92,4l15.15,7.2c2.85,1.54,6.22,5,6.87,7.95a3.26,3.26,0,0,1-.7,3L1394.2,799c-2.76,2.66-22.82,1.4-36-7.48-5.52-3.74-16.36-17.49-21.41-24.18Zm-25.2,41.34-16.79-9.73L1333,709.28l16.83,9.44Zm-30.39-142.71c-.24,10.75-.47,25-.61,45.82,0,3.46,0,6.69-.09,9.26l-21-11.78C1280.81,660.88,1289.13,644.43,1298.11,626.19Zm-14,166.93c3.09-11.08,6.78-28.48,8.56-36.8,0,0,35.72,20.62,35.81,20.66a3.63,3.63,0,0,0,5.19-2.19c5.57,7.2,11.27,14.68,18.19,20.62C1320.13,795.5,1294,793.82,1284.08,793.12Zm39.61,8.93c7.85.23,16.5.37,25.62.37,4.25,0,13.75-.19,14.07-.28a66.33,66.33,0,0,0,23.85,5.1c5.8,0,10.52-1.26,12.67-4.12.1-.14,1.36-2.38,1.36-2.38,14.77-1,28.61-2.48,41.24-4.35a3.49,3.49,0,0,0,2.9-2.71l7.24-32.08,8.94-1.26,8.79,27.4a4.53,4.53,0,0,0,3.5,2.62l28.76,168.89L1537.28,1173l-33.76,7.9-10.29-65.32-1.07-7-8.47-53.78-1.12-7-10.33-65.74-61.16-163.42a2.32,2.32,0,1,0-4.35,1.63l60.92,162.77,10.2,64.76,1.07,7,8.47,53.78,1.12,7,10.43,66.4-49.19,11.5c-7.07-29-12.3-54.94-16.18-77.9-.42-2.39-.8-4.72-1.17-7-3.32-20.48-5.52-38.44-7-53.78-.18-2.43-.42-4.77-.6-7-2.76-32.64-2-52.32-1.5-59v-.28c0-4.77-6.31-11.27-8.79-15.06Q1405,959,1395.88,944.29c-17.39-28.11-34-56.82-48.68-86.51C1338.32,839.69,1330,821.22,1323.69,802.05Zm-47.89,367.33h-17.53c11.92-16.36,25.58-35.16,39-53.77h129.15c2.76,16.41,6.22,34.32,10.52,53.77H1295.49c-4.54,0-4.54,7,0,7h143.08q4.14,18.38,9.35,38.43a3.5,3.5,0,0,0,3.37,2.67c.28,0,5.61-1.31,5.61-1.31l2.1,10.24H1236c-.38-.8-.75-1.64-1.17-2.48-1.08-2.25-8.14-11.88-12.72-13.09a46.32,46.32,0,0,1-.84-6.41l4.81,3.37a3.65,3.65,0,0,0,4.87-.8c5.51-7.62,13.28-18.23,22.25-30.62h22.63C1280.29,1176.4,1280.34,1169.38,1275.8,1169.38Zm140.14-174.5c-.33,9.77-.33,27.49,1.87,52.93a4.74,4.74,0,0,0,0,.84h-72.15c.19-.28,19.12-26.65,20.38-28.76l9.5-25Zm-37.69-7L1392,951.53c11.41,18.19,20.29,31.47,23.66,36.34Zm40.21,67.8c1.45,15.19,3.65,32.82,6.88,52.93H1302.41c15.38-21.23,30.07-41.48,38.25-52.93Zm35.35,154.06c-1-4-2-7.85-2.94-11.69l48.77-11.4,1.77,11.22Zm63.27-7.06c1.73.7,5.33,2.25,10.1,4.07-11.08,10.1-34.32,17.44-54.62,19.73-.23,0-.51,0-.74,0h-5.62l-2.47-11.88Zm-11.08-6-1.78-11.13,33.81-8,1.72,10.66ZM1336.17,988.61l11.55-114c13.09,25.25,27.4,49.65,39.65,69.43l-27.63,73c-2.86,4.77-93.8,129.94-131.58,181.89l-29.23-21.37Zm-167.21,127h14.64q-7.3,12.77-14.64,26.74Zm-2.15,48.21,47.32,33.66c-.05.66,0,8.28.42,11.18-13.93-5.8-32.82-22.63-45.12-40.35-1-1.41-2-2.81-2.85-4.21Zm.84,127.88v-23.85c6.5,6.64,13,17.68,19.27,23.85Zm131.07-.89-84.92-3.6-17.63-.75c-10.24-10-21.22-21.18-32-32.26-1.17-1.17-44.66-45.54-44.66-45.73,0-.47,3.79-4,6.36-6.4,0,0,30.49,29.36,30.67,29.55,2.15,2.05,5.43-1.31,3.23-3.37l-30.49-29.41c8.7-8.28,22.54-21.37,31.89-30.16,14.17,22,40.82,46.52,59,48.91a19.37,19.37,0,0,1,3.93,3.69c-7.43,1-17.72,7-17.86,7.11-2,1.31-1.4,4.4,1.17,4.07,2.1-.24,4-1.69,5.84-2.53,5.47-2.62,12.3-5.28,13.89-4l3,4.49c-3.65,1.22-9,3.7-17,8.46a2.37,2.37,0,0,0,.7,4.26c2.06.65,5.57-2.48,7.34-3.46a62.58,62.58,0,0,1,11.27-5.14c8.93,15,20.76,19.31,54.34,23,2.85.33,6.07,3.27,8.69,7.9,3.18,5.71,5.43,14.22,4.21,21.79a27.75,27.75,0,0,1-.89,3.51h3.6C1300.59,1290.77,1298.72,1290.77,1298.72,1290.81Zm7.29.89a30.33,30.33,0,0,0,.7-4.49,42.93,42.93,0,0,0-5.14-25.2c-3.84-6.83-8.84-10.89-14.08-11.46-30.25-3.32-40.54-7.1-47.46-17.11h214.86c-1.4,21,5.47,44,11.17,53.77a40.35,40.35,0,0,1,2.2,4.49S1306,1292,1306,1291.7Zm170.06-1.21c0-.14-4.58-8-4.72-8.23,0,0,43.11-11.79,43.3-11.83,2.8-.75,1.63-5.33-1.22-4.49l-44,12c-4.07-10-8.56-27.21-7.57-43.67,3.18,0,6.54-.28,10-.65,24.36-2.48,52.74-12.07,63.63-25.35.89-1.07,6.74-2.57,7.53-2.66-3.23,6.59-5.66,17.3-5.66,20.43a2.34,2.34,0,0,0,4.68,0c0-3.55,3.13-14.77,5.7-19.45l2.76,1.26c.75.38,1.55.7,2.25,1.08-2.76,5.47-2.9,13.61-2.85,15.15a2.36,2.36,0,0,0,2.33,2.29,2.32,2.32,0,0,0,2.34-2.34c0-4.86.84-10.47,2.39-13.23a6.14,6.14,0,0,0,.84.37c13,5.43,23.75,6.74,50.68-1.54,6.5-2,14-4,20.67-4,4.44,0,8,.93,10.61,2.81,3.42,2.43,6.46,12.25,8.33,20.76L1539,1259a2.31,2.31,0,0,0-1.64,2.85,2.35,2.35,0,0,0,2.25,1.73c.23,0,109.41-29.78,109.41-29.78a50.86,50.86,0,0,1,1.08,8.27c0,.33,0,.85-.1.94s-.46.51-2.38,1.12C1598,1259.58,1479.25,1290,1479.25,1290A11.47,11.47,0,0,1,1476.07,1290.49Zm25,1.21c18.89-4.86,38.1-9.82,57.32-14.91,14.22,6.68,29.69,11.17,46.2,14.91Zm67.7-17.67c27.08-7.25,54.2-14.87,80.89-23.24,1.73-.52,5.38-1.69,6.78-5.15a10,10,0,0,0,.61-3.41c0-3.41-3.78-32.78-13.28-39.56-3.83-2.71-8.74-4.06-14.68-4.06-7.57,0-15.76,2.19-22.72,4.34-12.91,4-21.79,5.71-28.81,5.71-8.83,0-14.91-2.85-24.17-7.16l-4.16-1.91c-2.85-1.31-6.17-1.45-10.94-.19a21.75,21.75,0,0,0-5.29,2c-2.48-.93-4.72-1.78-6.68-2.57l18.23-4.54a3.5,3.5,0,0,0,2.62-4L1523.3,1043A143.83,143.83,0,1,1,1568.79,1274Z"/>
  </g>
</svg>
